<?xml version="1.0" encoding="UTF-8" standalone="no"?>
<svg
   xmlns:dc="http://purl.org/dc/elements/1.1/"
   xmlns:cc="http://creativecommons.org/ns#"
   xmlns:rdf="http://www.w3.org/1999/02/22-rdf-syntax-ns#"
   xmlns:svg="http://www.w3.org/2000/svg"
   xmlns="http://www.w3.org/2000/svg"
   xmlns:sodipodi="http://sodipodi.sourceforge.net/DTD/sodipodi-0.dtd"
   xmlns:inkscape="http://www.inkscape.org/namespaces/inkscape"
   width="240"
   height="240"
   viewBox="0 0 240 240"
   fill="none"
   version="1.1"
   id="svg188"
   sodipodi:docname="doc2_1.svg"
   inkscape:version="0.92.3 (3ce5693, 2018-03-11)">
  <metadata
     id="metadata194">
    <rdf:RDF>
      <cc:Work
         rdf:about="">
        <dc:format>image/svg+xml</dc:format>
        <dc:type
           rdf:resource="http://purl.org/dc/dcmitype/StillImage" />
        <dc:title></dc:title>
      </cc:Work>
    </rdf:RDF>
  </metadata>
  <defs
     id="defs192" />
  <sodipodi:namedview
     pagecolor="#ffffff"
     bordercolor="#666666"
     borderopacity="1"
     objecttolerance="10"
     gridtolerance="10"
     guidetolerance="10"
     inkscape:pageopacity="0"
     inkscape:pageshadow="2"
     inkscape:window-width="1303"
     inkscape:window-height="713"
     id="namedview190"
     showgrid="false"
     inkscape:zoom="0.98333333"
     inkscape:cx="120"
     inkscape:cy="120"
     inkscape:window-x="63"
     inkscape:window-y="27"
     inkscape:window-maximized="1"
     inkscape:current-layer="svg188" />
  <g
     id="image">
    <g
       id="images">
      <mask
         id="mask0"
         mask-type="alpha"
         maskUnits="userSpaceOnUse"
         x="0"
         y="0"
         width="240"
         height="240">
        <circle
           id="mask"
           cx="110"
           cy="110"
           r="110"
           transform="translate(10 10)"
           fill="url(#paint0_linear)" />
      </mask>
      <g
         mask="url(#mask0)"
         id="g171">
        <g
           id="1 Doc">
          <rect
             id="cover"
             width="248"
             height="220"
             transform="translate(-4 10)"
             fill="white" />
          <g
             id="list">
            <g
               id="Pediatrician study"
               transform="translate(73.8593 147.59)">
              <path
                 d="M1.20779 6.0767V9.66234H0V0.503247H3.37804C4.38034 0.503247 5.16457 0.759064 5.73072 1.2707C6.30107 1.78233 6.58624 2.45962 6.58624 3.30256C6.58624 4.19163 6.30736 4.8773 5.74959 5.35958C5.19602 5.83766 4.40131 6.0767 3.36546 6.0767H1.20779ZM1.20779 5.08908H3.37804C4.02388 5.08908 4.51874 4.93811 4.86262 4.63616C5.20651 4.33002 5.37845 3.88968 5.37845 3.31514C5.37845 2.76995 5.20651 2.33381 4.86262 2.0067C4.51874 1.67959 4.04694 1.50974 3.44724 1.49716H1.20779V5.08908Z"
                 fill="black"
                 id="path5" />
              <path
                 d="M10.2305 9.78815C9.30788 9.78815 8.55721 9.4862 7.97847 8.88231C7.39974 8.27422 7.11037 7.46273 7.11037 6.44785V6.23397C7.11037 5.55878 7.23828 4.95698 7.4941 4.42857C7.75411 3.89597 8.11477 3.48079 8.57608 3.18304C9.04158 2.88109 9.54483 2.73011 10.0858 2.73011C10.9707 2.73011 11.6585 3.02158 12.1491 3.60451C12.6398 4.18743 12.8851 5.02198 12.8851 6.10816V6.59253H8.27413C8.29091 7.26353 8.48591 7.80662 8.85916 8.22179C9.23659 8.63278 9.71467 8.83827 10.2934 8.83827C10.7044 8.83827 11.0525 8.7544 11.3376 8.58665C11.6228 8.4189 11.8723 8.19663 12.0862 7.91985L12.7971 8.47342C12.2267 9.34991 11.3712 9.78815 10.2305 9.78815ZM10.0858 3.68628C9.61612 3.68628 9.22191 3.85823 8.90319 4.20211C8.58447 4.5418 8.38736 5.01989 8.31187 5.63636H11.7214V5.5483C11.6878 4.95698 11.5285 4.49987 11.2433 4.17695C10.9581 3.84984 10.5723 3.68628 10.0858 3.68628Z"
                 fill="black"
                 id="path7" />
              <path
                 d="M13.5036 6.20252C13.5036 5.15828 13.751 4.31953 14.2459 3.68628C14.7408 3.04884 15.3887 2.73011 16.1897 2.73011C16.9865 2.73011 17.6177 3.00271 18.0832 3.54789V0H19.2469V9.66234H18.1775L18.1209 8.93263C17.6554 9.50298 17.0075 9.78815 16.1771 9.78815C15.3887 9.78815 14.745 9.46523 14.2459 8.8194C13.751 8.17357 13.5036 7.33063 13.5036 6.29058V6.20252ZM14.6674 6.33462C14.6674 7.10626 14.8267 7.71016 15.1455 8.14631C15.4642 8.58245 15.9045 8.80053 16.4665 8.80053C17.2046 8.80053 17.7435 8.46922 18.0832 7.80662V4.68019C17.7351 4.03856 17.2004 3.71774 16.4791 3.71774C15.9087 3.71774 15.4642 3.93791 15.1455 4.37825C14.8267 4.81859 14.6674 5.47071 14.6674 6.33462Z"
                 fill="black"
                 id="path9" />
              <path
                 d="M21.8721 9.66234H20.7083V2.85593H21.8721V9.66234ZM20.614 1.05053C20.614 0.86181 20.6706 0.702449 20.7838 0.572443C20.9013 0.442438 21.0732 0.377435 21.2997 0.377435C21.5261 0.377435 21.6981 0.442438 21.8155 0.572443C21.9329 0.702449 21.9916 0.86181 21.9916 1.05053C21.9916 1.23925 21.9329 1.39651 21.8155 1.52232C21.6981 1.64813 21.5261 1.71104 21.2997 1.71104C21.0732 1.71104 20.9013 1.64813 20.7838 1.52232C20.6706 1.39651 20.614 1.23925 20.614 1.05053Z"
                 fill="black"
                 id="path11" />
              <path
                 d="M27.4916 9.66234C27.4245 9.52814 27.37 9.2891 27.3281 8.94521C26.7871 9.50717 26.1412 9.78815 25.3906 9.78815C24.7196 9.78815 24.1681 9.59943 23.7361 9.222C23.3084 8.84037 23.0945 8.35809 23.0945 7.77516C23.0945 7.06642 23.3629 6.51705 23.8997 6.12703C24.4407 5.73282 25.1997 5.53571 26.1769 5.53571H27.3092V5.00101C27.3092 4.59422 27.1876 4.27131 26.9443 4.03226C26.7011 3.78903 26.3425 3.66741 25.8686 3.66741C25.4535 3.66741 25.1054 3.77225 24.8244 3.98194C24.5434 4.19163 24.4029 4.44535 24.4029 4.7431H23.2329C23.2329 4.40341 23.3524 4.0763 23.5915 3.76177C23.8347 3.44305 24.1618 3.19142 24.5728 3.0069C24.988 2.82238 25.443 2.73011 25.9378 2.73011C26.7221 2.73011 27.3364 2.92722 27.781 3.32143C28.2255 3.71145 28.4562 4.25034 28.4729 4.93811V8.07082C28.4729 8.69569 28.5526 9.19264 28.712 9.56169V9.66234H27.4916ZM25.5604 8.77537C25.9253 8.77537 26.2712 8.68101 26.5984 8.49229C26.9255 8.30357 27.1624 8.05824 27.3092 7.75629V6.35978H26.3971C24.9712 6.35978 24.2583 6.77706 24.2583 7.61161C24.2583 7.97646 24.3799 8.26163 24.6231 8.46713C24.8663 8.67262 25.1788 8.77537 25.5604 8.77537Z"
                 fill="black"
                 id="path13" />
              <path
                 d="M31.4252 1.20779V2.85593H32.6959V3.75548H31.4252V7.97646C31.4252 8.24905 31.4819 8.45455 31.5951 8.59294C31.7083 8.72714 31.9012 8.79424 32.1738 8.79424C32.308 8.79424 32.4925 8.76908 32.7274 8.71875V9.66234C32.4213 9.74621 32.1235 9.78815 31.8341 9.78815C31.3141 9.78815 30.922 9.63089 30.6578 9.31636C30.3936 9.00183 30.2615 8.55519 30.2615 7.97646V3.75548H29.0222V2.85593H30.2615V1.20779H31.4252Z"
                 fill="black"
                 id="path15" />
              <path
                 d="M36.9001 3.90016C36.7239 3.87081 36.5331 3.85613 36.3276 3.85613C35.5644 3.85613 35.0464 4.18114 34.7738 4.83117V9.66234H33.6101V2.85593H34.7424L34.7613 3.64225C35.1429 3.03416 35.6839 2.73011 36.3842 2.73011C36.6107 2.73011 36.7826 2.75947 36.9001 2.81818V3.90016Z"
                 fill="black"
                 id="path17" />
              <path
                 d="M38.7892 9.66234H37.6255V2.85593H38.7892V9.66234ZM37.5311 1.05053C37.5311 0.86181 37.5877 0.702449 37.701 0.572443C37.8184 0.442438 37.9903 0.377435 38.2168 0.377435C38.4433 0.377435 38.6152 0.442438 38.7326 0.572443C38.8501 0.702449 38.9088 0.86181 38.9088 1.05053C38.9088 1.23925 38.8501 1.39651 38.7326 1.52232C38.6152 1.64813 38.4433 1.71104 38.2168 1.71104C37.9903 1.71104 37.8184 1.64813 37.701 1.52232C37.5877 1.39651 37.5311 1.23925 37.5311 1.05053Z"
                 fill="black"
                 id="path19" />
              <path
                 d="M42.9368 8.83827C43.3519 8.83827 43.7147 8.71246 44.025 8.46084C44.3354 8.20921 44.5073 7.89468 44.5409 7.51725H45.6417C45.6207 7.90727 45.4865 8.27841 45.2391 8.63068C44.9917 8.98295 44.6604 9.26393 44.2452 9.47362C43.8342 9.68331 43.3981 9.78815 42.9368 9.78815C42.0099 9.78815 41.2719 9.47991 40.7225 8.86343C40.1773 8.24276 39.9047 7.39563 39.9047 6.32204V6.12703C39.9047 5.46442 40.0263 4.8752 40.2696 4.35938C40.5128 3.84355 40.8609 3.44305 41.3138 3.15787C41.7709 2.8727 42.3098 2.73011 42.9305 2.73011C43.6937 2.73011 44.327 2.95867 44.8302 3.41579C45.3377 3.8729 45.6082 4.46632 45.6417 5.19602H44.5409C44.5073 4.75568 44.3396 4.39502 44.0376 4.11404C43.7399 3.82887 43.3708 3.68628 42.9305 3.68628C42.3392 3.68628 41.8799 3.90016 41.5528 4.32792C41.2299 4.75149 41.0685 5.36587 41.0685 6.17106V6.39123C41.0685 7.17546 41.2299 7.77936 41.5528 8.20292C41.8757 8.62649 42.3371 8.83827 42.9368 8.83827Z"
                 fill="black"
                 id="path21" />
              <path
                 d="M47.7637 9.66234H46.5999V2.85593H47.7637V9.66234ZM46.5055 1.05053C46.5055 0.86181 46.5621 0.702449 46.6754 0.572443C46.7928 0.442438 46.9647 0.377435 47.1912 0.377435C47.4177 0.377435 47.5896 0.442438 47.707 0.572443C47.8245 0.702449 47.8832 0.86181 47.8832 1.05053C47.8832 1.23925 47.8245 1.39651 47.707 1.52232C47.5896 1.64813 47.4177 1.71104 47.1912 1.71104C46.9647 1.71104 46.7928 1.64813 46.6754 1.52232C46.5621 1.39651 46.5055 1.23925 46.5055 1.05053Z"
                 fill="black"
                 id="path23" />
              <path
                 d="M53.3832 9.66234C53.3161 9.52814 53.2615 9.2891 53.2196 8.94521C52.6786 9.50717 52.0328 9.78815 51.2821 9.78815C50.6111 9.78815 50.0596 9.59943 49.6277 9.222C49.1999 8.84037 48.986 8.35809 48.986 7.77516C48.986 7.06642 49.2544 6.51705 49.7912 6.12703C50.3322 5.73282 51.0913 5.53571 52.0684 5.53571H53.2007V5.00101C53.2007 4.59422 53.0791 4.27131 52.8359 4.03226C52.5926 3.78903 52.2341 3.66741 51.7602 3.66741C51.345 3.66741 50.9969 3.77225 50.716 3.98194C50.435 4.19163 50.2945 4.44535 50.2945 4.7431H49.1244C49.1244 4.40341 49.244 4.0763 49.483 3.76177C49.7262 3.44305 50.0533 3.19142 50.4643 3.0069C50.8795 2.82238 51.3345 2.73011 51.8294 2.73011C52.6136 2.73011 53.228 2.92722 53.6725 3.32143C54.1171 3.71145 54.3477 4.25034 54.3645 4.93811V8.07082C54.3645 8.69569 54.4442 9.19264 54.6035 9.56169V9.66234H53.3832ZM51.452 8.77537C51.8168 8.77537 52.1628 8.68101 52.4899 8.49229C52.817 8.30357 53.054 8.05824 53.2007 7.75629V6.35978H52.2886C50.8627 6.35978 50.1498 6.77706 50.1498 7.61161C50.1498 7.97646 50.2714 8.26163 50.5147 8.46713C50.7579 8.67262 51.0703 8.77537 51.452 8.77537Z"
                 fill="black"
                 id="path25" />
              <path
                 d="M56.8387 2.85593L56.8764 3.71145C57.3965 3.05722 58.0758 2.73011 58.9146 2.73011C60.353 2.73011 61.0785 3.5416 61.0911 5.16457V9.66234H59.9274V5.15828C59.9232 4.66761 59.8099 4.30486 59.5877 4.07001C59.3696 3.83516 59.0278 3.71774 58.5623 3.71774C58.1849 3.71774 57.8536 3.81838 57.5684 4.01968C57.2832 4.22098 57.061 4.48519 56.9016 4.8123V9.66234H55.7378V2.85593H56.8387Z"
                 fill="black"
                 id="path27" />
              <path
                 d="M69.1031 7.85694C69.1031 7.54241 68.9836 7.29918 68.7445 7.12723C68.5097 6.9511 68.0966 6.80012 67.5053 6.67431C66.9181 6.5485 66.4505 6.39752 66.1025 6.22139C65.7586 6.04525 65.5028 5.83557 65.335 5.59233C65.1715 5.34909 65.0897 5.05973 65.0897 4.72423C65.0897 4.16646 65.3245 3.69467 65.7942 3.30885C66.2681 2.92303 66.872 2.73011 67.6059 2.73011C68.3776 2.73011 69.0024 2.92932 69.4805 3.32772C69.9628 3.72612 70.2039 4.23566 70.2039 4.85633H69.0339C69.0339 4.53761 68.8976 4.26292 68.625 4.03226C68.3566 3.80161 68.0169 3.68628 67.6059 3.68628C67.1824 3.68628 66.851 3.77854 66.612 3.96307C66.373 4.14759 66.2534 4.38873 66.2534 4.68649C66.2534 4.96746 66.3646 5.17925 66.5868 5.32183C66.8091 5.46442 67.2096 5.60072 67.7883 5.73072C68.3713 5.86073 68.8431 6.0159 69.2037 6.19623C69.5644 6.37656 69.8307 6.59463 70.0026 6.85045C70.1788 7.10207 70.2668 7.41031 70.2668 7.77516C70.2668 8.38325 70.0236 8.87182 69.5371 9.24087C69.0507 9.60572 68.4195 9.78815 67.6437 9.78815C67.0985 9.78815 66.6162 9.69169 66.1968 9.49878C65.7775 9.30587 65.4482 9.03747 65.2092 8.69359C64.9744 8.34551 64.8569 7.97017 64.8569 7.56757H66.0207C66.0417 7.95759 66.1968 8.26793 66.4862 8.49858C66.7798 8.72504 67.1656 8.83827 67.6437 8.83827C68.084 8.83827 68.4363 8.7502 68.7005 8.57407C68.9689 8.39374 69.1031 8.15469 69.1031 7.85694Z"
                 fill="black"
                 id="path29" />
              <path
                 d="M72.9109 1.20779V2.85593H74.1816V3.75548H72.9109V7.97646C72.9109 8.24905 72.9675 8.45455 73.0807 8.59294C73.194 8.72714 73.3869 8.79424 73.6595 8.79424C73.7937 8.79424 73.9782 8.76908 74.213 8.71875V9.66234C73.9069 9.74621 73.6091 9.78815 73.3198 9.78815C72.7998 9.78815 72.4076 9.63089 72.1434 9.31636C71.8792 9.00183 71.7471 8.55519 71.7471 7.97646V3.75548H70.5079V2.85593H71.7471V1.20779H72.9109Z"
                 fill="black"
                 id="path31" />
              <path
                 d="M79.2978 8.98925C78.8449 9.52185 78.1802 9.78815 77.3037 9.78815C76.5782 9.78815 76.0246 9.57846 75.643 9.15909C75.2656 8.73553 75.0748 8.11066 75.0706 7.2845V2.85593H76.2343V7.25304C76.2343 8.2847 76.6537 8.80053 77.4924 8.80053C78.3815 8.80053 78.9728 8.46922 79.2664 7.80662V2.85593H80.4301V9.66234H79.323L79.2978 8.98925Z"
                 fill="black"
                 id="path33" />
              <path
                 d="M81.4701 6.20252C81.4701 5.15828 81.7175 4.31953 82.2124 3.68628C82.7073 3.04884 83.3552 2.73011 84.1562 2.73011C84.953 2.73011 85.5842 3.00271 86.0497 3.54789V0H87.2134V9.66234H86.144L86.0874 8.93263C85.6219 9.50298 84.974 9.78815 84.1436 9.78815C83.3552 9.78815 82.7114 9.46523 82.2124 8.8194C81.7175 8.17357 81.4701 7.33063 81.4701 6.29058V6.20252ZM82.6339 6.33462C82.6339 7.10626 82.7932 7.71016 83.112 8.14631C83.4307 8.58245 83.871 8.80053 84.433 8.80053C85.1711 8.80053 85.71 8.46922 86.0497 7.80662V4.68019C85.7016 4.03856 85.1669 3.71774 84.4456 3.71774C83.8752 3.71774 83.4307 3.93791 83.112 4.37825C82.7932 4.81859 82.6339 5.47071 82.6339 6.33462Z"
                 fill="black"
                 id="path35" />
              <path
                 d="M90.8011 7.95759L92.3863 2.85593H93.6318L90.8954 10.7129C90.4719 11.8452 89.7988 12.4113 88.8761 12.4113L88.656 12.3925L88.2219 12.3107V11.3671L88.5364 11.3922C88.9307 11.3922 89.2368 11.3126 89.4549 11.1532C89.6771 10.9938 89.8596 10.7024 90.0022 10.2788L90.2601 9.58685L87.8319 2.85593H89.1026L90.8011 7.95759Z"
                 fill="black"
                 id="path37" />
            </g>
            <g
               id="General cancer study"
               transform="translate(69.6815 124.777)">
              <path
                 d="M6.46987 7.75577C6.18539 8.16326 5.78751 8.46887 5.27623 8.67262C4.76879 8.87252 4.17677 8.97247 3.50019 8.97247C2.81591 8.97247 2.20852 8.81293 1.67801 8.49386C1.14751 8.17094 0.736173 7.71348 0.44401 7.12147C0.155692 6.52945 0.00768849 5.84325 0 5.06287V4.33054C0 3.06579 0.294085 2.0855 0.882254 1.38969C1.47427 0.693886 2.30463 0.345982 3.37333 0.345982C4.24981 0.345982 4.95523 0.570871 5.48958 1.02065C6.02393 1.46658 6.35069 2.10088 6.46987 2.92355H5.36272C5.15513 1.81256 4.49392 1.25707 3.37909 1.25707C2.63715 1.25707 2.07397 1.51848 1.68955 2.04129C1.30897 2.56027 1.11675 3.31374 1.11291 4.30171V4.98791C1.11291 5.92975 1.32819 6.67938 1.75874 7.23679C2.1893 7.79036 2.7717 8.06715 3.50595 8.06715C3.92113 8.06715 4.28441 8.02102 4.5958 7.92876C4.90718 7.83649 5.16474 7.6808 5.36849 7.46168V5.57608H3.42522V4.67653H6.46987V7.75577Z"
                 fill="black"
                 fill-opacity="0.3"
                 id="path40" />
              <path
                 d="M10.3294 8.97247C9.48368 8.97247 8.79556 8.69568 8.26505 8.14211C7.73455 7.5847 7.46929 6.84084 7.46929 5.91053V5.71447C7.46929 5.09555 7.58654 4.5439 7.82104 4.05952C8.05938 3.5713 8.38999 3.19072 8.81286 2.91778C9.23957 2.641 9.70088 2.5026 10.1968 2.5026C11.0079 2.5026 11.6384 2.76978 12.0882 3.30413C12.5379 3.83848 12.7628 4.60348 12.7628 5.59914V6.04315H8.53607C8.55145 6.65823 8.73021 7.15606 9.07234 7.53664C9.41833 7.91338 9.85657 8.10175 10.3871 8.10175C10.7638 8.10175 11.0829 8.02486 11.3443 7.87109C11.6057 7.71732 11.8344 7.51358 12.0305 7.25986L12.6821 7.7673C12.1593 8.57075 11.375 8.97247 10.3294 8.97247ZM10.1968 3.37909C9.76623 3.37909 9.40487 3.53671 9.11271 3.85193C8.82055 4.16332 8.63986 4.60156 8.57067 5.16667H11.696V5.08594C11.6653 4.5439 11.5192 4.12488 11.2578 3.82887C10.9964 3.52902 10.6427 3.37909 10.1968 3.37909Z"
                 fill="black"
                 fill-opacity="0.3"
                 id="path42" />
              <path
                 d="M14.5984 2.61793L14.633 3.40216C15.1097 2.80246 15.7324 2.5026 16.5013 2.5026C17.8198 2.5026 18.4849 3.24647 18.4964 4.73419V8.85714H17.4297V4.72842C17.4258 4.27865 17.322 3.94612 17.1183 3.73084C16.9184 3.51556 16.6051 3.40792 16.1784 3.40792C15.8324 3.40792 15.5287 3.50019 15.2673 3.68471C15.0059 3.86923 14.8021 4.11142 14.656 4.41127V8.85714H13.5893V2.61793H14.5984Z"
                 fill="black"
                 fill-opacity="0.3"
                 id="path44" />
              <path
                 d="M22.281 8.97247C21.4353 8.97247 20.7472 8.69568 20.2167 8.14211C19.6861 7.5847 19.4209 6.84084 19.4209 5.91053V5.71447C19.4209 5.09555 19.5381 4.5439 19.7726 4.05952C20.011 3.5713 20.3416 3.19072 20.7645 2.91778C21.1912 2.641 21.6525 2.5026 22.1484 2.5026C22.9595 2.5026 23.59 2.76978 24.0398 3.30413C24.4895 3.83848 24.7144 4.60348 24.7144 5.59914V6.04315H20.4877C20.5031 6.65823 20.6818 7.15606 21.0239 7.53664C21.3699 7.91338 21.8082 8.10175 22.3387 8.10175C22.7154 8.10175 23.0345 8.02486 23.2959 7.87109C23.5573 7.71732 23.786 7.51358 23.9821 7.25986L24.6337 7.7673C24.1109 8.57075 23.3267 8.97247 22.281 8.97247ZM22.1484 3.37909C21.7178 3.37909 21.3565 3.53671 21.0643 3.85193C20.7721 4.16332 20.5915 4.60156 20.5223 5.16667H23.6476V5.08594C23.6169 4.5439 23.4708 4.12488 23.2094 3.82887C22.948 3.52902 22.5943 3.37909 22.1484 3.37909Z"
                 fill="black"
                 fill-opacity="0.3"
                 id="path46" />
              <path
                 d="M28.5567 3.57515C28.3952 3.54824 28.2203 3.53478 28.0319 3.53478C27.3323 3.53478 26.8575 3.83271 26.6076 4.42857V8.85714H25.5409V2.61793H26.5788L26.5961 3.33873C26.9459 2.78131 27.4418 2.5026 28.0838 2.5026C28.2914 2.5026 28.449 2.52951 28.5567 2.58333V3.57515Z"
                 fill="black"
                 fill-opacity="0.3"
                 id="path48" />
              <path
                 d="M32.7507 8.85714C32.6892 8.73413 32.6392 8.515 32.6007 8.19978C32.1048 8.71491 31.5128 8.97247 30.8247 8.97247C30.2096 8.97247 29.7041 8.79948 29.3081 8.4535C28.916 8.10367 28.72 7.66158 28.72 7.12723C28.72 6.47755 28.966 5.97396 29.4581 5.61644C29.954 5.25508 30.6498 5.0744 31.5455 5.0744H32.5834V4.58426C32.5834 4.21137 32.472 3.91536 32.249 3.69624C32.026 3.47328 31.6973 3.36179 31.2629 3.36179C30.8824 3.36179 30.5633 3.4579 30.3057 3.65011C30.0482 3.84232 29.9194 4.0749 29.9194 4.34784H28.8468C28.8468 4.03646 28.9564 3.73661 29.1755 3.44829C29.3985 3.15613 29.6983 2.92547 30.0751 2.75632C30.4557 2.58718 30.8728 2.5026 31.3264 2.5026C32.0452 2.5026 32.6084 2.68328 33.0159 3.04464C33.4234 3.40216 33.6348 3.89614 33.6502 4.5266V7.39825C33.6502 7.97104 33.7233 8.42659 33.8693 8.76488V8.85714H32.7507ZM30.9804 8.04408C31.3148 8.04408 31.632 7.95759 31.9318 7.7846C32.2317 7.61161 32.4489 7.38672 32.5834 7.10993V5.8298H31.7473C30.4403 5.8298 29.7868 6.2123 29.7868 6.97731C29.7868 7.31176 29.8982 7.57316 30.1212 7.76153C30.3442 7.9499 30.6306 8.04408 30.9804 8.04408Z"
                 fill="black"
                 fill-opacity="0.3"
                 id="path50" />
              <path
                 d="M36.0682 8.85714H35.0014V0H36.0682V8.85714Z"
                 fill="black"
                 fill-opacity="0.3"
                 id="path52" />
              <path
                 d="M42.386 8.10175C42.7666 8.10175 43.0991 7.98642 43.3836 7.75577C43.6681 7.52511 43.8257 7.23679 43.8565 6.89081H44.8656C44.8464 7.24833 44.7233 7.58854 44.4965 7.91146C44.2697 8.23438 43.966 8.49194 43.5854 8.68415C43.2087 8.87636 42.8089 8.97247 42.386 8.97247C41.5365 8.97247 40.8599 8.68992 40.3563 8.12481C39.8565 7.55587 39.6066 6.77933 39.6066 5.7952V5.61644C39.6066 5.00905 39.7181 4.46894 39.9411 3.99609C40.1641 3.52325 40.4831 3.15613 40.8983 2.89472C41.3173 2.63331 41.8113 2.5026 42.3803 2.5026C43.0799 2.5026 43.6604 2.71212 44.1217 3.13114C44.5869 3.55016 44.8348 4.09412 44.8656 4.76302H43.8565C43.8257 4.35938 43.6719 4.02877 43.3952 3.77121C43.1222 3.5098 42.7839 3.37909 42.3803 3.37909C41.8382 3.37909 41.4173 3.57515 41.1174 3.96726C40.8214 4.35553 40.6734 4.91871 40.6734 5.65681V5.85863C40.6734 6.5775 40.8214 7.13108 41.1174 7.51934C41.4134 7.90761 41.8363 8.10175 42.386 8.10175Z"
                 fill="black"
                 fill-opacity="0.3"
                 id="path54" />
              <path
                 d="M49.5036 8.85714C49.4421 8.73413 49.3921 8.515 49.3537 8.19978C48.8577 8.71491 48.2657 8.97247 47.5776 8.97247C46.9625 8.97247 46.457 8.79948 46.0611 8.4535C45.6689 8.10367 45.4729 7.66158 45.4729 7.12723C45.4729 6.47755 45.7189 5.97396 46.211 5.61644C46.7069 5.25508 47.4027 5.0744 48.2984 5.0744H49.3364V4.58426C49.3364 4.21137 49.2249 3.91536 49.0019 3.69624C48.7789 3.47328 48.4503 3.36179 48.0159 3.36179C47.6353 3.36179 47.3162 3.4579 47.0586 3.65011C46.8011 3.84232 46.6723 4.0749 46.6723 4.34784H45.5998C45.5998 4.03646 45.7093 3.73661 45.9284 3.44829C46.1514 3.15613 46.4513 2.92547 46.828 2.75632C47.2086 2.58718 47.6257 2.5026 48.0793 2.5026C48.7982 2.5026 49.3613 2.68328 49.7688 3.04464C50.1763 3.40216 50.3878 3.89614 50.4031 4.5266V7.39825C50.4031 7.97104 50.4762 8.42659 50.6223 8.76488V8.85714H49.5036ZM47.7333 8.04408C48.0678 8.04408 48.3849 7.95759 48.6848 7.7846C48.9846 7.61161 49.2018 7.38672 49.3364 7.10993V5.8298H48.5002C47.1932 5.8298 46.5397 6.2123 46.5397 6.97731C46.5397 7.31176 46.6512 7.57316 46.8741 7.76153C47.0971 7.9499 47.3835 8.04408 47.7333 8.04408Z"
                 fill="black"
                 fill-opacity="0.3"
                 id="path56" />
              <path
                 d="M52.6712 2.61793L52.7058 3.40216C53.1824 2.80246 53.8052 2.5026 54.5741 2.5026C55.8926 2.5026 56.5577 3.24647 56.5692 4.73419V8.85714H55.5024V4.72842C55.4986 4.27865 55.3948 3.94612 55.1911 3.73084C54.9912 3.51556 54.6779 3.40792 54.2511 3.40792C53.9052 3.40792 53.6015 3.50019 53.3401 3.68471C53.0787 3.86923 52.8749 4.11142 52.7288 4.41127V8.85714H51.662V2.61793H52.6712Z"
                 fill="black"
                 fill-opacity="0.3"
                 id="path58" />
              <path
                 d="M60.2673 8.10175C60.6479 8.10175 60.9804 7.98642 61.2649 7.75577C61.5494 7.52511 61.707 7.23679 61.7377 6.89081H62.7469C62.7276 7.24833 62.6046 7.58854 62.3778 7.91146C62.151 8.23438 61.8473 8.49194 61.4667 8.68415C61.09 8.87636 60.6902 8.97247 60.2673 8.97247C59.4177 8.97247 58.7412 8.68992 58.2376 8.12481C57.7378 7.55587 57.4879 6.77933 57.4879 5.7952V5.61644C57.4879 5.00905 57.5994 4.46894 57.8224 3.99609C58.0453 3.52325 58.3644 3.15613 58.7796 2.89472C59.1986 2.63331 59.6926 2.5026 60.2616 2.5026C60.9612 2.5026 61.5417 2.71212 62.003 3.13114C62.4682 3.55016 62.7161 4.09412 62.7469 4.76302H61.7377C61.707 4.35938 61.5532 4.02877 61.2764 3.77121C61.0035 3.5098 60.6652 3.37909 60.2616 3.37909C59.7195 3.37909 59.2986 3.57515 58.9987 3.96726C58.7027 4.35553 58.5547 4.91871 58.5547 5.65681V5.85863C58.5547 6.5775 58.7027 7.13108 58.9987 7.51934C59.2947 7.90761 59.7176 8.10175 60.2673 8.10175Z"
                 fill="black"
                 fill-opacity="0.3"
                 id="path60" />
              <path
                 d="M66.122 8.97247C65.2763 8.97247 64.5882 8.69568 64.0577 8.14211C63.5272 7.5847 63.2619 6.84084 63.2619 5.91053V5.71447C63.2619 5.09555 63.3792 4.5439 63.6137 4.05952C63.852 3.5713 64.1826 3.19072 64.6055 2.91778C65.0322 2.641 65.4935 2.5026 65.9894 2.5026C66.8005 2.5026 67.431 2.76978 67.8808 3.30413C68.3305 3.83848 68.5554 4.60348 68.5554 5.59914V6.04315H64.3287C64.3441 6.65823 64.5228 7.15606 64.865 7.53664C65.2109 7.91338 65.6492 8.10175 66.1797 8.10175C66.5564 8.10175 66.8755 8.02486 67.1369 7.87109C67.3983 7.71732 67.627 7.51358 67.8231 7.25986L68.4747 7.7673C67.9519 8.57075 67.1677 8.97247 66.122 8.97247ZM65.9894 3.37909C65.5588 3.37909 65.1975 3.53671 64.9053 3.85193C64.6132 4.16332 64.4325 4.60156 64.3633 5.16667H67.4886V5.08594C67.4579 4.5439 67.3118 4.12488 67.0504 3.82887C66.789 3.52902 66.4353 3.37909 65.9894 3.37909Z"
                 fill="black"
                 fill-opacity="0.3"
                 id="path62" />
              <path
                 d="M72.3977 3.57515C72.2362 3.54824 72.0613 3.53478 71.8729 3.53478C71.1733 3.53478 70.6985 3.83271 70.4486 4.42857V8.85714H69.3819V2.61793H70.4198L70.4371 3.33873C70.7869 2.78131 71.2828 2.5026 71.9248 2.5026C72.1324 2.5026 72.29 2.52951 72.3977 2.58333V3.57515Z"
                 fill="black"
                 fill-opacity="0.3"
                 id="path64" />
              <path
                 d="M79.1192 7.20219C79.1192 6.91388 79.0096 6.69091 78.7905 6.5333C78.5752 6.37184 78.1966 6.23344 77.6545 6.11812C77.1163 6.00279 76.6877 5.8644 76.3686 5.70294C76.0534 5.54148 75.8189 5.34927 75.6651 5.1263C75.5152 4.90334 75.4402 4.63808 75.4402 4.33054C75.4402 3.81926 75.6555 3.38678 76.0861 3.03311C76.5205 2.67944 77.074 2.5026 77.7468 2.5026C78.4541 2.5026 79.0269 2.68521 79.4652 3.05041C79.9072 3.41561 80.1283 3.88269 80.1283 4.45164H79.0558C79.0558 4.15947 78.9308 3.90768 78.6809 3.69624C78.4349 3.48481 78.1235 3.37909 77.7468 3.37909C77.3585 3.37909 77.0548 3.46367 76.8357 3.63281C76.6166 3.80196 76.507 4.023 76.507 4.29594C76.507 4.55351 76.6089 4.74764 76.8126 4.87835C77.0164 5.00905 77.3835 5.13399 77.914 5.25316C78.4484 5.37233 78.8808 5.51457 79.2114 5.67987C79.5421 5.84518 79.7862 6.04508 79.9438 6.27958C80.1052 6.51023 80.186 6.79278 80.186 7.12723C80.186 7.68465 79.963 8.1325 79.5171 8.4708C79.0711 8.80525 78.4926 8.97247 77.7814 8.97247C77.2816 8.97247 76.8395 8.88405 76.4551 8.70722C76.0707 8.53038 75.7689 8.28435 75.5498 7.96912C75.3345 7.65005 75.2269 7.30599 75.2269 6.93694H76.2937C76.3129 7.29446 76.4551 7.57893 76.7204 7.79036C76.9895 7.99795 77.3431 8.10175 77.7814 8.10175C78.185 8.10175 78.5079 8.02102 78.7501 7.85956C78.9962 7.69426 79.1192 7.47514 79.1192 7.20219Z"
                 fill="black"
                 fill-opacity="0.3"
                 id="path66" />
              <path
                 d="M82.6097 1.10714V2.61793H83.7745V3.44252H82.6097V7.31176C82.6097 7.56163 82.6616 7.75 82.7654 7.87686C82.8692 7.99988 83.046 8.06138 83.2959 8.06138C83.4189 8.06138 83.5881 8.03832 83.8033 7.99219V8.85714C83.5227 8.93403 83.2498 8.97247 82.9845 8.97247C82.5078 8.97247 82.1484 8.82831 81.9062 8.53999C81.664 8.25167 81.5429 7.84226 81.5429 7.31176V3.44252H80.4069V2.61793H81.5429V1.10714H82.6097Z"
                 fill="black"
                 fill-opacity="0.3"
                 id="path68" />
              <path
                 d="M88.4644 8.24014C88.0492 8.72836 87.4399 8.97247 86.6364 8.97247C85.9714 8.97247 85.464 8.78026 85.1141 8.39583C84.7681 8.00756 84.5932 7.43477 84.5894 6.67745V2.61793H85.6562V6.64862C85.6562 7.59431 86.0406 8.06715 86.8094 8.06715C87.6244 8.06715 88.1665 7.76345 88.4356 7.15606V2.61793H89.5023V8.85714H88.4874L88.4644 8.24014Z"
                 fill="black"
                 fill-opacity="0.3"
                 id="path70" />
              <path
                 d="M90.4556 5.68564C90.4556 4.72842 90.6824 3.95957 91.1361 3.37909C91.5897 2.79477 92.1836 2.5026 92.9179 2.5026C93.6483 2.5026 94.2268 2.75248 94.6535 3.25223V0H95.7203V8.85714H94.74L94.6881 8.18824C94.2614 8.71106 93.6675 8.97247 92.9063 8.97247C92.1836 8.97247 91.5935 8.67646 91.1361 8.08445C90.6824 7.49243 90.4556 6.71974 90.4556 5.76637V5.68564ZM91.5224 5.80673C91.5224 6.51407 91.6685 7.06765 91.9607 7.46745C92.2528 7.86725 92.6565 8.06715 93.1716 8.06715C93.8482 8.06715 94.3422 7.76345 94.6535 7.15606V4.29018C94.3345 3.70201 93.8443 3.40792 93.1831 3.40792C92.6603 3.40792 92.2528 3.60975 91.9607 4.01339C91.6685 4.41704 91.5224 5.01482 91.5224 5.80673Z"
                 fill="black"
                 fill-opacity="0.3"
                 id="path72" />
              <path
                 d="M99.009 7.29446L100.462 2.61793H101.604L99.0955 9.82013C98.7072 10.8581 98.0902 11.377 97.2445 11.377L97.0427 11.3597L96.6448 11.2848V10.4198L96.9331 10.4429C97.2945 10.4429 97.5751 10.3699 97.775 10.2238C97.9788 10.0777 98.146 9.81052 98.2767 9.42225L98.5131 8.78795L96.2873 2.61793H97.4521L99.009 7.29446Z"
                 fill="black"
                 fill-opacity="0.3"
                 id="path74" />
            </g>
            <g
               id="Melanoma study"
               transform="translate(80.0896 172.015)">
              <path
                 d="M1.43006 0.461309L4.17485 7.31176L6.91964 0.461309H8.35547V8.85714H7.24833V5.58761L7.35212 2.05859L4.5958 8.85714H3.74814L0.997582 2.07589L1.10714 5.58761V8.85714H0V0.461309H1.43006Z"
                 fill="black"
                 fill-opacity="0.3"
                 id="path77" />
              <path
                 d="M12.3188 8.97247C11.4731 8.97247 10.785 8.69568 10.2544 8.14211C9.72394 7.5847 9.45869 6.84084 9.45869 5.91053V5.71447C9.45869 5.09555 9.57594 4.5439 9.81044 4.05952C10.0488 3.5713 10.3794 3.19072 10.8023 2.91778C11.229 2.641 11.6903 2.5026 12.1862 2.5026C12.9973 2.5026 13.6278 2.76978 14.0776 3.30413C14.5273 3.83848 14.7522 4.60348 14.7522 5.59914V6.04315H10.5255C10.5408 6.65823 10.7196 7.15606 11.0617 7.53664C11.4077 7.91338 11.846 8.10175 12.3765 8.10175C12.7532 8.10175 13.0723 8.02486 13.3337 7.87109C13.5951 7.71732 13.8238 7.51358 14.0199 7.25986L14.6715 7.7673C14.1487 8.57075 13.3644 8.97247 12.3188 8.97247ZM12.1862 3.37909C11.7556 3.37909 11.3943 3.53671 11.1021 3.85193C10.8099 4.16332 10.6293 4.60156 10.5601 5.16667H13.6854V5.08594C13.6547 4.5439 13.5086 4.12488 13.2472 3.82887C12.9858 3.52902 12.6321 3.37909 12.1862 3.37909Z"
                 fill="black"
                 fill-opacity="0.3"
                 id="path79" />
              <path
                 d="M16.7377 8.85714H15.6709V0H16.7377V8.85714Z"
                 fill="black"
                 fill-opacity="0.3"
                 id="path81" />
              <path
                 d="M21.8889 8.85714C21.8274 8.73413 21.7774 8.515 21.739 8.19978C21.2431 8.71491 20.6511 8.97247 19.9629 8.97247C19.3479 8.97247 18.8423 8.79948 18.4464 8.4535C18.0543 8.10367 17.8582 7.66158 17.8582 7.12723C17.8582 6.47755 18.1042 5.97396 18.5963 5.61644C19.0922 5.25508 19.788 5.0744 20.6837 5.0744H21.7217V4.58426C21.7217 4.21137 21.6102 3.91536 21.3872 3.69624C21.1643 3.47328 20.8356 3.36179 20.4012 3.36179C20.0206 3.36179 19.7015 3.4579 19.444 3.65011C19.1864 3.84232 19.0576 4.0749 19.0576 4.34784H17.9851C17.9851 4.03646 18.0946 3.73661 18.3138 3.44829C18.5367 3.15613 18.8366 2.92547 19.2133 2.75632C19.5939 2.58718 20.011 2.5026 20.4646 2.5026C21.1835 2.5026 21.7467 2.68328 22.1542 3.04464C22.5617 3.40216 22.7731 3.89614 22.7885 4.5266V7.39825C22.7885 7.97104 22.8615 8.42659 23.0076 8.76488V8.85714H21.8889ZM20.1186 8.04408C20.4531 8.04408 20.7702 7.95759 21.0701 7.7846C21.3699 7.61161 21.5871 7.38672 21.7217 7.10993V5.8298H20.8856C19.5785 5.8298 18.925 6.2123 18.925 6.97731C18.925 7.31176 19.0365 7.57316 19.2594 7.76153C19.4824 7.9499 19.7688 8.04408 20.1186 8.04408Z"
                 fill="black"
                 fill-opacity="0.3"
                 id="path83" />
              <path
                 d="M25.0565 2.61793L25.0911 3.40216C25.5678 2.80246 26.1905 2.5026 26.9594 2.5026C28.278 2.5026 28.943 3.24647 28.9546 4.73419V8.85714H27.8878V4.72842C27.8839 4.27865 27.7801 3.94612 27.5764 3.73084C27.3765 3.51556 27.0632 3.40792 26.6365 3.40792C26.2905 3.40792 25.9868 3.50019 25.7254 3.68471C25.464 3.86923 25.2602 4.11142 25.1142 4.41127V8.85714H24.0474V2.61793H25.0565Z"
                 fill="black"
                 fill-opacity="0.3"
                 id="path85" />
              <path
                 d="M29.8675 5.67987C29.8675 5.06864 29.9867 4.51891 30.225 4.03069C30.4672 3.54247 30.8016 3.16574 31.2283 2.90048C31.6589 2.63523 32.149 2.5026 32.6988 2.5026C33.5484 2.5026 34.2345 2.79669 34.7574 3.38486C35.284 3.97303 35.5474 4.75533 35.5474 5.73177V5.80673C35.5474 6.41412 35.4301 6.96001 35.1956 7.44438C34.965 7.92491 34.6324 8.29973 34.198 8.56882C33.7675 8.83792 33.2716 8.97247 32.7103 8.97247C31.8646 8.97247 31.1784 8.67838 30.6517 8.09022C30.1289 7.50205 29.8675 6.72359 29.8675 5.75484V5.67987ZM30.94 5.80673C30.94 6.4987 31.0996 7.05419 31.4186 7.47321C31.7416 7.89224 32.1721 8.10175 32.7103 8.10175C33.2523 8.10175 33.6829 7.89031 34.002 7.46745C34.321 7.04074 34.4806 6.44488 34.4806 5.67987C34.4806 4.9956 34.3172 4.44203 33.9904 4.01916C33.6675 3.59245 33.237 3.37909 32.6988 3.37909C32.1721 3.37909 31.7473 3.5886 31.4244 4.00763C31.1015 4.42665 30.94 5.02635 30.94 5.80673Z"
                 fill="black"
                 fill-opacity="0.3"
                 id="path87" />
              <path
                 d="M37.4752 2.61793L37.504 3.3099C37.9615 2.7717 38.5785 2.5026 39.355 2.5026C40.2277 2.5026 40.8216 2.83705 41.1368 3.50595C41.3444 3.2061 41.6135 2.96391 41.9441 2.77939C42.2786 2.59487 42.6726 2.5026 43.1262 2.5026C44.4948 2.5026 45.1906 3.22724 45.2136 4.67653V8.85714H44.1469V4.73995C44.1469 4.29402 44.045 3.9615 43.8412 3.74237C43.6375 3.51941 43.2954 3.40792 42.8148 3.40792C42.4189 3.40792 42.0902 3.5271 41.8288 3.76544C41.5674 3.99994 41.4155 4.31709 41.3732 4.71689V8.85714H40.3007V4.76879C40.3007 3.86155 39.8567 3.40792 38.9687 3.40792C38.269 3.40792 37.7904 3.70585 37.5328 4.30171V8.85714H36.4661V2.61793H37.4752Z"
                 fill="black"
                 fill-opacity="0.3"
                 id="path89" />
              <path
                 d="M50.2668 8.85714C50.2053 8.73413 50.1553 8.515 50.1169 8.19978C49.621 8.71491 49.029 8.97247 48.3409 8.97247C47.7258 8.97247 47.2203 8.79948 46.8243 8.4535C46.4322 8.10367 46.2361 7.66158 46.2361 7.12723C46.2361 6.47755 46.4822 5.97396 46.9742 5.61644C47.4701 5.25508 48.1659 5.0744 49.0617 5.0744H50.0996V4.58426C50.0996 4.21137 49.9881 3.91536 49.7652 3.69624C49.5422 3.47328 49.2135 3.36179 48.7791 3.36179C48.3985 3.36179 48.0794 3.4579 47.8219 3.65011C47.5643 3.84232 47.4355 4.0749 47.4355 4.34784H46.363C46.363 4.03646 46.4726 3.73661 46.6917 3.44829C46.9146 3.15613 47.2145 2.92547 47.5912 2.75632C47.9718 2.58718 48.3889 2.5026 48.8425 2.5026C49.5614 2.5026 50.1246 2.68328 50.5321 3.04464C50.9396 3.40216 51.151 3.89614 51.1664 4.5266V7.39825C51.1664 7.97104 51.2394 8.42659 51.3855 8.76488V8.85714H50.2668ZM48.4966 8.04408C48.831 8.04408 49.1482 7.95759 49.448 7.7846C49.7479 7.61161 49.9651 7.38672 50.0996 7.10993V5.8298H49.2635C47.9564 5.8298 47.3029 6.2123 47.3029 6.97731C47.3029 7.31176 47.4144 7.57316 47.6374 7.76153C47.8603 7.9499 48.1467 8.04408 48.4966 8.04408Z"
                 fill="black"
                 fill-opacity="0.3"
                 id="path91" />
              <path
                 d="M58.5741 7.20219C58.5741 6.91388 58.4645 6.69091 58.2454 6.5333C58.0301 6.37184 57.6515 6.23344 57.1094 6.11812C56.5712 6.00279 56.1426 5.8644 55.8235 5.70294C55.5083 5.54148 55.2738 5.34927 55.12 5.1263C54.9701 4.90334 54.8951 4.63808 54.8951 4.33054C54.8951 3.81926 55.1104 3.38678 55.541 3.03311C55.9754 2.67944 56.5289 2.5026 57.2017 2.5026C57.909 2.5026 58.4818 2.68521 58.9201 3.05041C59.3622 3.41561 59.5832 3.88269 59.5832 4.45164H58.5107C58.5107 4.15947 58.3857 3.90768 58.1358 3.69624C57.8898 3.48481 57.5784 3.37909 57.2017 3.37909C56.8134 3.37909 56.5097 3.46367 56.2906 3.63281C56.0715 3.80196 55.9619 4.023 55.9619 4.29594C55.9619 4.55351 56.0638 4.74764 56.2675 4.87835C56.4713 5.00905 56.8384 5.13399 57.3689 5.25316C57.9033 5.37233 58.3357 5.51457 58.6663 5.67987C58.997 5.84518 59.2411 6.04508 59.3987 6.27958C59.5601 6.51023 59.6409 6.79278 59.6409 7.12723C59.6409 7.68465 59.4179 8.1325 58.972 8.4708C58.526 8.80525 57.9475 8.97247 57.2363 8.97247C56.7365 8.97247 56.2944 8.88405 55.91 8.70722C55.5256 8.53038 55.2238 8.28435 55.0047 7.96912C54.7894 7.65005 54.6818 7.30599 54.6818 6.93694H55.7486C55.7678 7.29446 55.91 7.57893 56.1753 7.79036C56.4444 7.99795 56.798 8.10175 57.2363 8.10175C57.6399 8.10175 57.9628 8.02102 58.205 7.85956C58.4511 7.69426 58.5741 7.47514 58.5741 7.20219Z"
                 fill="black"
                 fill-opacity="0.3"
                 id="path93" />
              <path
                 d="M62.0646 1.10714V2.61793H63.2294V3.44252H62.0646V7.31176C62.0646 7.56163 62.1165 7.75 62.2203 7.87686C62.3241 7.99988 62.5009 8.06138 62.7508 8.06138C62.8738 8.06138 63.0429 8.03832 63.2582 7.99219V8.85714C62.9776 8.93403 62.7047 8.97247 62.4394 8.97247C61.9627 8.97247 61.6033 8.82831 61.3611 8.53999C61.1189 8.25167 60.9978 7.84226 60.9978 7.31176V3.44252H59.8618V2.61793H60.9978V1.10714H62.0646Z"
                 fill="black"
                 fill-opacity="0.3"
                 id="path95" />
              <path
                 d="M67.9193 8.24014C67.5041 8.72836 66.8948 8.97247 66.0914 8.97247C65.4263 8.97247 64.9189 8.78026 64.569 8.39583C64.2231 8.00756 64.0481 7.43477 64.0443 6.67745V2.61793H65.1111V6.64862C65.1111 7.59431 65.4955 8.06715 66.2644 8.06715C67.0793 8.06715 67.6214 7.76345 67.8905 7.15606V2.61793H68.9572V8.85714H67.9424L67.9193 8.24014Z"
                 fill="black"
                 fill-opacity="0.3"
                 id="path97" />
              <path
                 d="M69.9105 5.68564C69.9105 4.72842 70.1373 3.95957 70.591 3.37909C71.0446 2.79477 71.6385 2.5026 72.3728 2.5026C73.1032 2.5026 73.6817 2.75248 74.1085 3.25223V0H75.1752V8.85714H74.1949L74.1431 8.18824C73.7163 8.71106 73.1224 8.97247 72.3612 8.97247C71.6385 8.97247 71.0484 8.67646 70.591 8.08445C70.1373 7.49243 69.9105 6.71974 69.9105 5.76637V5.68564ZM70.9773 5.80673C70.9773 6.51407 71.1234 7.06765 71.4156 7.46745C71.7077 7.86725 72.1114 8.06715 72.6265 8.06715C73.3031 8.06715 73.7971 7.76345 74.1085 7.15606V4.29018C73.7894 3.70201 73.2992 3.40792 72.638 3.40792C72.1152 3.40792 71.7077 3.60975 71.4156 4.01339C71.1234 4.41704 70.9773 5.01482 70.9773 5.80673Z"
                 fill="black"
                 fill-opacity="0.3"
                 id="path99" />
              <path
                 d="M78.4639 7.29446L79.917 2.61793H81.0588L78.5504 9.82013C78.1621 10.8581 77.5451 11.377 76.6994 11.377L76.4976 11.3597L76.0997 11.2848V10.4198L76.388 10.4429C76.7494 10.4429 77.03 10.3699 77.2299 10.2238C77.4336 10.0777 77.6009 9.81052 77.7316 9.42225L77.968 8.78795L75.7422 2.61793H76.907L78.4639 7.29446Z"
                 fill="black"
                 fill-opacity="0.3"
                 id="path101" />
            </g>
            <g
               id="Not selected"
               transform="translate(92.9561 103.036)">
              <path
                 d="M5.86597 8.05195H4.85423L1.01174 2.17025V8.05195H0V0.419372H1.01174L4.86472 6.32728V0.419372H5.86597V8.05195Z"
                 fill="black"
                 fill-opacity="0.15"
                 id="path104" />
              <path
                 d="M6.8689 5.16352C6.8689 4.60785 6.97724 4.1081 7.19391 3.66427C7.41408 3.22043 7.71813 2.87794 8.10605 2.6368C8.49746 2.39566 8.94305 2.27509 9.4428 2.27509C10.2151 2.27509 10.839 2.54244 11.3142 3.07714C11.793 3.61184 12.0324 4.32303 12.0324 5.2107V5.27885C12.0324 5.83102 11.9258 6.32728 11.7127 6.76762C11.503 7.20447 11.2007 7.54521 10.8058 7.78984C10.4143 8.03447 9.96352 8.15679 9.45328 8.15679C8.68443 8.15679 8.06062 7.88944 7.58183 7.35474C7.10654 6.82004 6.8689 6.11235 6.8689 5.23167V5.16352ZM7.84394 5.27885C7.84394 5.90791 7.98897 6.4129 8.27904 6.79383C8.5726 7.17476 8.96401 7.36523 9.45328 7.36523C9.94604 7.36523 10.3375 7.17301 10.6275 6.78859C10.9176 6.40067 11.0626 5.85898 11.0626 5.16352C11.0626 4.54145 10.9141 4.03821 10.617 3.65378C10.3235 3.26586 9.93207 3.0719 9.4428 3.0719C8.96401 3.0719 8.57784 3.26237 8.28428 3.6433C7.99072 4.02423 7.84394 4.56941 7.84394 5.27885Z"
                 fill="black"
                 fill-opacity="0.15"
                 id="path106" />
              <path
                 d="M14.1886 1.00649V2.37994H15.2475V3.12957H14.1886V6.64705C14.1886 6.87421 14.2358 7.04545 14.3302 7.16078C14.4245 7.27261 14.5853 7.32853 14.8124 7.32853C14.9243 7.32853 15.078 7.30756 15.2737 7.26562V8.05195C15.0186 8.12184 14.7705 8.15679 14.5294 8.15679C14.096 8.15679 13.7692 8.02574 13.5491 7.76363C13.3289 7.50152 13.2188 7.12933 13.2188 6.64705V3.12957H12.1861V2.37994H13.2188V1.00649H14.1886Z"
                 fill="black"
                 fill-opacity="0.15"
                 id="path108" />
              <path
                 d="M21.5991 6.54745C21.5991 6.28534 21.4995 6.08265 21.3003 5.93936C21.1046 5.79258 20.7604 5.66677 20.2676 5.56192C19.7784 5.45708 19.3887 5.33127 19.0986 5.18449C18.8121 5.03771 18.5989 4.86297 18.4591 4.66027C18.3228 4.45758 18.2546 4.21644 18.2546 3.93686C18.2546 3.47205 18.4504 3.07889 18.8418 2.75737C19.2367 2.43585 19.7399 2.27509 20.3515 2.27509C20.9945 2.27509 21.5153 2.4411 21.9137 2.7731C22.3156 3.1051 22.5165 3.52972 22.5165 4.04694H21.5415C21.5415 3.78134 21.4279 3.55243 21.2007 3.36022C20.9771 3.16801 20.694 3.0719 20.3515 3.0719C19.9985 3.0719 19.7224 3.14879 19.5232 3.30256C19.324 3.45633 19.2244 3.65728 19.2244 3.9054C19.2244 4.13955 19.3171 4.31604 19.5023 4.43486C19.6875 4.55368 20.0212 4.66726 20.5035 4.7756C20.9893 4.88394 21.3825 5.01325 21.683 5.16352C21.9836 5.3138 22.2055 5.49552 22.3488 5.7087C22.4955 5.91839 22.5689 6.17526 22.5689 6.4793C22.5689 6.98604 22.3662 7.39318 21.9608 7.70072C21.5555 8.00477 21.0295 8.15679 20.383 8.15679C19.9286 8.15679 19.5267 8.07641 19.1773 7.91565C18.8278 7.75489 18.5534 7.53123 18.3542 7.24466C18.1585 6.95459 18.0607 6.64181 18.0607 6.30631H19.0305C19.048 6.63132 19.1773 6.88994 19.4184 7.08215C19.663 7.27087 19.9846 7.36523 20.383 7.36523C20.7499 7.36523 21.0435 7.29184 21.2636 7.14506C21.4873 6.99478 21.5991 6.79558 21.5991 6.54745Z"
                 fill="black"
                 fill-opacity="0.15"
                 id="path110" />
              <path
                 d="M25.8103 8.15679C25.0414 8.15679 24.4159 7.90517 23.9336 7.40192C23.4513 6.89518 23.2102 6.21894 23.2102 5.37321V5.19497C23.2102 4.63232 23.3167 4.13082 23.5299 3.69048C23.7466 3.24664 24.0472 2.90066 24.4316 2.65253C24.8195 2.40091 25.2389 2.27509 25.6897 2.27509C26.4271 2.27509 27.0002 2.51798 27.4091 3.00375C27.818 3.48953 28.0225 4.18499 28.0225 5.09013V5.49378H24.18C24.1939 6.05294 24.3564 6.50551 24.6675 6.85149C24.982 7.19398 25.3804 7.36523 25.8627 7.36523C26.2052 7.36523 26.4952 7.29533 26.7329 7.15554C26.9705 7.01575 27.1785 6.83053 27.3567 6.59987L27.9491 7.06118C27.4738 7.79159 26.7608 8.15679 25.8103 8.15679ZM25.6897 3.0719C25.2983 3.0719 24.9698 3.21519 24.7042 3.50176C24.4386 3.78483 24.2743 4.18324 24.2114 4.69697H27.0527V4.62358C27.0247 4.13082 26.8919 3.74989 26.6543 3.48079C26.4166 3.2082 26.0951 3.0719 25.6897 3.0719Z"
                 fill="black"
                 fill-opacity="0.15"
                 id="path112" />
              <path
                 d="M29.8274 8.05195H28.8576V0H29.8274V8.05195Z"
                 fill="black"
                 fill-opacity="0.15"
                 id="path114" />
              <path
                 d="M33.3623 8.15679C32.5935 8.15679 31.9679 7.90517 31.4856 7.40192C31.0034 6.89518 30.7622 6.21894 30.7622 5.37321V5.19497C30.7622 4.63232 30.8688 4.13082 31.082 3.69048C31.2987 3.24664 31.5992 2.90066 31.9836 2.65253C32.3716 2.40091 32.7909 2.27509 33.2418 2.27509C33.9792 2.27509 34.5523 2.51798 34.9612 3.00375C35.3701 3.48953 35.5745 4.18499 35.5745 5.09013V5.49378H31.732C31.746 6.05294 31.9085 6.50551 32.2195 6.85149C32.5341 7.19398 32.9325 7.36523 33.4147 7.36523C33.7572 7.36523 34.0473 7.29533 34.2849 7.15554C34.5226 7.01575 34.7305 6.83053 34.9088 6.59987L35.5011 7.06118C35.0258 7.79159 34.3129 8.15679 33.3623 8.15679ZM33.2418 3.0719C32.8503 3.0719 32.5218 3.21519 32.2562 3.50176C31.9906 3.78483 31.8264 4.18324 31.7635 4.69697H34.6047V4.62358C34.5768 4.13082 34.444 3.74989 34.2063 3.48079C33.9687 3.2082 33.6471 3.0719 33.2418 3.0719Z"
                 fill="black"
                 fill-opacity="0.15"
                 id="path116" />
              <path
                 d="M38.6009 7.36523C38.9469 7.36523 39.2492 7.26038 39.5078 7.0507C39.7664 6.84101 39.9097 6.5789 39.9377 6.26437H40.855C40.8376 6.58939 40.7257 6.89867 40.5195 7.19223C40.3134 7.4858 40.0373 7.71994 39.6913 7.89468C39.3488 8.06942 38.9853 8.15679 38.6009 8.15679C37.8286 8.15679 37.2135 7.89993 36.7557 7.38619C36.3014 6.86897 36.0742 6.16302 36.0742 5.26836V5.10586C36.0742 4.55368 36.1755 4.06267 36.3782 3.63281C36.5809 3.20296 36.871 2.86921 37.2484 2.63156C37.6294 2.39392 38.0784 2.27509 38.5957 2.27509C39.2317 2.27509 39.7594 2.46556 40.1788 2.84649C40.6017 3.22742 40.8271 3.72193 40.855 4.33002H39.9377C39.9097 3.96307 39.7699 3.66252 39.5183 3.42837C39.2702 3.19072 38.9626 3.0719 38.5957 3.0719C38.1029 3.0719 37.7202 3.25014 37.4476 3.6066C37.1785 3.95957 37.044 4.47156 37.044 5.14255V5.32603C37.044 5.97955 37.1785 6.4828 37.4476 6.83577C37.7167 7.18874 38.1012 7.36523 38.6009 7.36523Z"
                 fill="black"
                 fill-opacity="0.15"
                 id="path118" />
              <path
                 d="M42.8854 1.00649V2.37994H43.9443V3.12957H42.8854V6.64705C42.8854 6.87421 42.9326 7.04545 43.027 7.16078C43.1213 7.27261 43.2821 7.32853 43.5092 7.32853C43.6211 7.32853 43.7748 7.30756 43.9706 7.26562V8.05195C43.7154 8.12184 43.4673 8.15679 43.2262 8.15679C42.7928 8.15679 42.4661 8.02574 42.2459 7.76363C42.0257 7.50152 41.9156 7.12933 41.9156 6.64705V3.12957H40.8829V2.37994H41.9156V1.00649H42.8854Z"
                 fill="black"
                 fill-opacity="0.15"
                 id="path120" />
              <path
                 d="M47.0599 8.15679C46.291 8.15679 45.6654 7.90517 45.1832 7.40192C44.7009 6.89518 44.4598 6.21894 44.4598 5.37321V5.19497C44.4598 4.63232 44.5663 4.13082 44.7795 3.69048C44.9962 3.24664 45.2967 2.90066 45.6812 2.65253C46.0691 2.40091 46.4885 2.27509 46.9393 2.27509C47.6767 2.27509 48.2498 2.51798 48.6587 3.00375C49.0676 3.48953 49.272 4.18499 49.272 5.09013V5.49378H45.4296C45.4435 6.05294 45.606 6.50551 45.9171 6.85149C46.2316 7.19398 46.63 7.36523 47.1123 7.36523C47.4548 7.36523 47.7448 7.29533 47.9825 7.15554C48.2201 7.01575 48.4281 6.83053 48.6063 6.59987L49.1987 7.06118C48.7234 7.79159 48.0104 8.15679 47.0599 8.15679ZM46.9393 3.0719C46.5479 3.0719 46.2194 3.21519 45.9538 3.50176C45.6882 3.78483 45.5239 4.18324 45.461 4.69697H48.3022V4.62358C48.2743 4.13082 48.1415 3.74989 47.9038 3.48079C47.6662 3.2082 47.3447 3.0719 46.9393 3.0719Z"
                 fill="black"
                 fill-opacity="0.15"
                 id="path122" />
              <path
                 d="M49.7875 5.16876C49.7875 4.29857 49.9936 3.59961 50.406 3.0719C50.8184 2.5407 51.3584 2.27509 52.0259 2.27509C52.6899 2.27509 53.2158 2.50225 53.6037 2.95657V0H54.5735V8.05195H53.6824L53.6352 7.44386C53.2473 7.91915 52.7073 8.15679 52.0154 8.15679C51.3584 8.15679 50.8219 7.88769 50.406 7.3495C49.9936 6.8113 49.7875 6.10886 49.7875 5.24215V5.16876ZM50.7573 5.27885C50.7573 5.92189 50.8901 6.42513 51.1557 6.78859C51.4213 7.15204 51.7882 7.33377 52.2565 7.33377C52.8716 7.33377 53.3207 7.05769 53.6037 6.50551V3.90016C53.3137 3.36546 52.8681 3.09811 52.267 3.09811C51.7917 3.09811 51.4213 3.28159 51.1557 3.64854C50.8901 4.01549 50.7573 4.55893 50.7573 5.27885Z"
                 fill="black"
                 fill-opacity="0.15"
                 id="path124" />
            </g>
            <g
               id="UCSF study"
               transform="translate(95.0914 194.292)">
              <path
                 d="M5.52523 0.419372V5.6091C5.52173 6.32903 5.29457 6.9179 4.84375 7.37571C4.39642 7.83352 3.78833 8.09039 3.01948 8.14631L2.75213 8.15679C1.91688 8.15679 1.25113 7.93138 0.75487 7.48055C0.258613 7.02973 0.00698954 6.40941 0 5.61959V0.419372H0.996009V5.58814C0.996009 6.14031 1.14803 6.57017 1.45208 6.87771C1.75612 7.18175 2.18947 7.33377 2.75213 7.33377C3.32178 7.33377 3.75688 7.18175 4.05743 6.87771C4.36147 6.57366 4.51349 6.14555 4.51349 5.59338V0.419372H5.52523Z"
                 fill="black"
                 fill-opacity="0.15"
                 id="path127" />
              <path
                 d="M12.3522 5.63007C12.2578 6.43736 11.959 7.06118 11.4558 7.50152C10.956 7.93837 10.2903 8.15679 9.45852 8.15679C8.55687 8.15679 7.83346 7.83352 7.28827 7.18699C6.74658 6.54046 6.47574 5.6755 6.47574 4.59213V3.85822C6.47574 3.14879 6.60155 2.52497 6.85317 1.98678C7.10829 1.44858 7.46825 1.0362 7.93306 0.749628C8.39786 0.459562 8.93606 0.314529 9.54764 0.314529C10.3584 0.314529 11.0085 0.541689 11.4977 0.996009C11.987 1.44683 12.2718 2.0724 12.3522 2.8727H11.3405C11.2531 2.26461 11.0626 1.82427 10.7691 1.55168C10.479 1.27909 10.0719 1.14279 9.54764 1.14279C8.9046 1.14279 8.39961 1.38043 8.03266 1.85572C7.6692 2.33101 7.48747 3.00725 7.48747 3.88444V4.62358C7.48747 5.45184 7.66047 6.1106 8.00645 6.59987C8.35243 7.08914 8.83646 7.33377 9.45852 7.33377C10.0177 7.33377 10.4458 7.20796 10.7429 6.95634C11.0434 6.70122 11.2426 6.25913 11.3405 5.63007H12.3522Z"
                 fill="black"
                 fill-opacity="0.15"
                 id="path129" />
              <path
                 d="M15.604 4.64979C14.7408 4.40166 14.1117 4.09762 13.7168 3.73766C13.3254 3.3742 13.1297 2.92687 13.1297 2.39566C13.1297 1.79456 13.3691 1.29831 13.8479 0.906893C14.3302 0.511984 14.9557 0.314529 15.7246 0.314529C16.2488 0.314529 16.7153 0.415878 17.1242 0.618574C17.5366 0.821271 17.8546 1.10085 18.0783 1.45732C18.3055 1.81379 18.419 2.20345 18.419 2.62632H17.4073C17.4073 2.16501 17.2605 1.8033 16.967 1.54119C16.6734 1.27559 16.2593 1.14279 15.7246 1.14279C15.2283 1.14279 14.8404 1.25287 14.5608 1.47305C14.2847 1.68972 14.1467 1.99202 14.1467 2.37994C14.1467 2.69097 14.2777 2.95483 14.5398 3.1715C14.8054 3.38468 15.2545 3.58039 15.8871 3.75862C16.5231 3.93686 17.0194 4.13431 17.3759 4.35099C17.7358 4.56417 18.0014 4.81404 18.1727 5.10062C18.3474 5.38719 18.4348 5.72443 18.4348 6.11235C18.4348 6.73093 18.1936 7.22718 17.7113 7.60112C17.2291 7.97157 16.5843 8.15679 15.777 8.15679C15.2528 8.15679 14.7635 8.05719 14.3092 7.85799C13.8549 7.65529 13.5036 7.3792 13.2555 7.02973C13.0109 6.68025 12.8886 6.28359 12.8886 5.83976H13.9003C13.9003 6.30107 14.0698 6.66627 14.4088 6.93537C14.7513 7.20097 15.2073 7.33377 15.777 7.33377C16.3082 7.33377 16.7153 7.22543 16.9984 7.00876C17.2815 6.79208 17.423 6.49678 17.423 6.12284C17.423 5.74889 17.292 5.46058 17.0299 5.25788C16.7678 5.05169 16.2925 4.84899 15.604 4.64979Z"
                 fill="black"
                 fill-opacity="0.15"
                 id="path131" />
              <path
                 d="M23.5633 4.68124H20.3603V8.05195H19.3538V0.419372H24.0822V1.24763H20.3603V3.85822H23.5633V4.68124Z"
                 fill="black"
                 fill-opacity="0.15"
                 id="path133" />
              <path
                 d="M30.35 6.54745C30.35 6.28534 30.2504 6.08265 30.0512 5.93936C29.8555 5.79258 29.5112 5.66677 29.0185 5.56192C28.5292 5.45708 28.1395 5.33127 27.8495 5.18449C27.5629 5.03771 27.3497 4.86297 27.2099 4.66027C27.0736 4.45758 27.0055 4.21644 27.0055 3.93686C27.0055 3.47205 27.2012 3.07889 27.5926 2.75737C27.9875 2.43585 28.4908 2.27509 29.1023 2.27509C29.7454 2.27509 30.2661 2.4411 30.6645 2.7731C31.0664 3.1051 31.2673 3.52972 31.2673 4.04694H30.2923C30.2923 3.78134 30.1787 3.55243 29.9516 3.36022C29.7279 3.16801 29.4448 3.0719 29.1023 3.0719C28.7494 3.0719 28.4733 3.14879 28.2741 3.30256C28.0749 3.45633 27.9753 3.65728 27.9753 3.9054C27.9753 4.13955 28.0679 4.31604 28.2531 4.43486C28.4383 4.55368 28.7721 4.66726 29.2544 4.7756C29.7401 4.88394 30.1333 5.01325 30.4338 5.16352C30.7344 5.3138 30.9563 5.49552 31.0996 5.7087C31.2464 5.91839 31.3198 6.17526 31.3198 6.4793C31.3198 6.98604 31.1171 7.39318 30.7117 7.70072C30.3063 8.00477 29.7803 8.15679 29.1338 8.15679C28.6795 8.15679 28.2776 8.07641 27.9281 7.91565C27.5786 7.75489 27.3043 7.53123 27.1051 7.24466C26.9094 6.95459 26.8115 6.64181 26.8115 6.30631H27.7813C27.7988 6.63132 27.9281 6.88994 28.1692 7.08215C28.4139 7.27087 28.7354 7.36523 29.1338 7.36523C29.5007 7.36523 29.7943 7.29184 30.0145 7.14506C30.2381 6.99478 30.35 6.79558 30.35 6.54745Z"
                 fill="black"
                 fill-opacity="0.15"
                 id="path135" />
              <path
                 d="M33.5232 1.00649V2.37994H34.5821V3.12957H33.5232V6.64705C33.5232 6.87421 33.5703 7.04545 33.6647 7.16078C33.759 7.27261 33.9198 7.32853 34.147 7.32853C34.2588 7.32853 34.4126 7.30756 34.6083 7.26562V8.05195C34.3532 8.12184 34.105 8.15679 33.8639 8.15679C33.4305 8.15679 33.1038 8.02574 32.8836 7.76363C32.6634 7.50152 32.5534 7.12933 32.5534 6.64705V3.12957H31.5207V2.37994H32.5534V1.00649H33.5232Z"
                 fill="black"
                 fill-opacity="0.15"
                 id="path137" />
              <path
                 d="M38.8456 7.49104C38.4682 7.93487 37.9143 8.15679 37.1839 8.15679C36.5793 8.15679 36.118 7.98205 35.7999 7.63258C35.4854 7.2796 35.3264 6.75888 35.3229 6.07041V2.37994H36.2927V6.0442C36.2927 6.90392 36.6422 7.33377 37.3411 7.33377C38.082 7.33377 38.5748 7.05769 38.8194 6.50551V2.37994H39.7892V8.05195H38.8666L38.8456 7.49104Z"
                 fill="black"
                 fill-opacity="0.15"
                 id="path139" />
              <path
                 d="M40.6558 5.16876C40.6558 4.29857 40.862 3.59961 41.2744 3.0719C41.6868 2.5407 42.2267 2.27509 42.8942 2.27509C43.5582 2.27509 44.0842 2.50225 44.4721 2.95657V0H45.4419V8.05195H44.5508L44.5036 7.44386C44.1157 7.91915 43.5757 8.15679 42.8837 8.15679C42.2267 8.15679 41.6903 7.88769 41.2744 7.3495C40.862 6.8113 40.6558 6.10886 40.6558 5.24215V5.16876ZM41.6256 5.27885C41.6256 5.92189 41.7584 6.42513 42.024 6.78859C42.2896 7.15204 42.6566 7.33377 43.1249 7.33377C43.74 7.33377 44.189 7.05769 44.4721 6.50551V3.90016C44.1821 3.36546 43.7365 3.09811 43.1354 3.09811C42.6601 3.09811 42.2896 3.28159 42.024 3.64854C41.7584 4.01549 41.6256 4.55893 41.6256 5.27885Z"
                 fill="black"
                 fill-opacity="0.15"
                 id="path141" />
              <path
                 d="M48.4316 6.63132L49.7527 2.37994H50.7906L48.5103 8.92739C48.1573 9.87097 47.5964 10.3428 46.8275 10.3428L46.6441 10.327L46.2823 10.2589V9.47257L46.5445 9.49354C46.873 9.49354 47.1281 9.42714 47.3098 9.29434C47.495 9.16154 47.6471 8.91865 47.7659 8.56568L47.9808 7.98904L45.9573 2.37994H47.0163L48.4316 6.63132Z"
                 fill="black"
                 fill-opacity="0.15"
                 id="path143" />
            </g>
          </g>
          <g
             id="study">
            <rect
               id="dark"
               width="248"
               height="32.2078"
               transform="translate(-4 50.1342)"
               fill="#F1F1F1" />
            <rect
               id="cover_2"
               width="248"
               height="30.0606"
               transform="translate(-4 51.2078)"
               fill="white" />
            <g
               id="Study"
               transform="translate(36.6791 61.4069)">
              <path
                 d="M2.71544 4.64979C1.85223 4.40166 1.22317 4.09762 0.82826 3.73766C0.436846 3.3742 0.241139 2.92687 0.241139 2.39566C0.241139 1.79456 0.480531 1.29831 0.959314 0.906893C1.44159 0.511984 2.06716 0.314529 2.83601 0.314529C3.36022 0.314529 3.82677 0.415878 4.23566 0.618574C4.64804 0.821271 4.96607 1.10085 5.18973 1.45732C5.41689 1.81379 5.53047 2.20345 5.53047 2.62632H4.51874C4.51874 2.16501 4.37196 1.8033 4.0784 1.54119C3.78484 1.27559 3.37071 1.14279 2.83601 1.14279C2.33975 1.14279 1.95183 1.25287 1.67225 1.47305C1.39616 1.68972 1.25812 1.99202 1.25812 2.37994C1.25812 2.69097 1.38917 2.95483 1.65128 3.1715C1.91688 3.38468 2.36596 3.58039 2.99851 3.75862C3.63456 3.93686 4.13082 4.13431 4.48728 4.35099C4.84725 4.56417 5.11285 4.81404 5.28409 5.10062C5.45883 5.38719 5.5462 5.72443 5.5462 6.11235C5.5462 6.73093 5.30506 7.22718 4.82278 7.60112C4.3405 7.97157 3.69572 8.15679 2.88843 8.15679C2.36421 8.15679 1.87494 8.05719 1.42062 7.85799C0.966304 7.65529 0.615079 7.3792 0.366951 7.02973C0.122317 6.68025 0 6.28359 0 5.83976H1.01174C1.01174 6.30107 1.18123 6.66627 1.52022 6.93537C1.86271 7.20097 2.31878 7.33377 2.88843 7.33377C3.41963 7.33377 3.82677 7.22543 4.10985 7.00876C4.39293 6.79208 4.53446 6.49678 4.53446 6.12284C4.53446 5.74889 4.40341 5.46058 4.1413 5.25788C3.87919 5.05169 3.40391 4.84899 2.71544 4.64979Z"
                 fill="black"
                 id="path149" />
              <path
                 d="M8.00477 1.00649V2.37994H9.06368V3.12957H8.00477V6.64705C8.00477 6.87421 8.05195 7.04545 8.14631 7.16078C8.24067 7.27261 8.40143 7.32853 8.62859 7.32853C8.74042 7.32853 8.89419 7.30756 9.0899 7.26562V8.05195C8.83478 8.12184 8.58665 8.15679 8.34551 8.15679C7.91216 8.15679 7.5854 8.02574 7.36523 7.76363C7.14506 7.50152 7.03497 7.12933 7.03497 6.64705V3.12957H6.00227V2.37994H7.03497V1.00649H8.00477Z"
                 fill="black"
                 id="path151" />
              <path
                 d="M13.703 7.49104C13.3256 7.93487 12.7716 8.15679 12.0412 8.15679C11.4366 8.15679 10.9753 7.98205 10.6573 7.63258C10.3428 7.2796 10.1838 6.75888 10.1803 6.07041V2.37994H11.1501V6.0442C11.1501 6.90392 11.4995 7.33377 12.1985 7.33377C12.9394 7.33377 13.4321 7.05769 13.6768 6.50551V2.37994H14.6466V8.05195H13.724L13.703 7.49104Z"
                 fill="black"
                 id="path153" />
              <path
                 d="M15.889 5.16876C15.889 4.29857 16.0952 3.59961 16.5075 3.0719C16.9199 2.5407 17.4599 2.27509 18.1274 2.27509C18.7914 2.27509 19.3173 2.50225 19.7053 2.95657V0H20.6751V8.05195H19.7839L19.7367 7.44386C19.3488 7.91915 18.8088 8.15679 18.1169 8.15679C17.4599 8.15679 16.9234 7.88769 16.5075 7.3495C16.0952 6.8113 15.889 6.10886 15.889 5.24215V5.16876ZM16.8588 5.27885C16.8588 5.92189 16.9916 6.42513 17.2572 6.78859C17.5228 7.15204 17.8897 7.33377 18.358 7.33377C18.9731 7.33377 19.4222 7.05769 19.7053 6.50551V3.90016C19.4152 3.36546 18.9696 3.09811 18.3685 3.09811C17.8932 3.09811 17.5228 3.28159 17.2572 3.64854C16.9916 4.01549 16.8588 4.55893 16.8588 5.27885Z"
                 fill="black"
                 id="path155" />
              <path
                 d="M24.0405 6.63132L25.3615 2.37994H26.3995L24.1192 8.92739C23.7662 9.87097 23.2053 10.3428 22.4364 10.3428L22.2529 10.327L21.8912 10.2589V9.47257L22.1533 9.49354C22.4819 9.49354 22.737 9.42714 22.9187 9.29434C23.1039 9.16154 23.2559 8.91865 23.3748 8.56568L23.5897 7.98904L21.5662 2.37994H22.6251L24.0405 6.63132Z"
                 fill="black"
                 id="path157" />
            </g>
            <g
               id="Done"
               transform="translate(177.694 62.5)">
              <path
                 d="M0 7.63258V0H2.15453C2.81853 0 3.40565 0.14678 3.91589 0.440341C4.42613 0.733902 4.81929 1.15153 5.09537 1.69322C5.37496 2.23491 5.51649 2.85697 5.51999 3.55942V4.04694C5.51999 4.76687 5.3802 5.39767 5.10062 5.93936C4.82453 6.48105 4.42787 6.89693 3.91065 7.18699C3.39692 7.47706 2.79756 7.62559 2.11259 7.63258H0ZM1.00649 0.82826V6.80956H2.06541C2.84125 6.80956 3.4441 6.56842 3.87395 6.08614C4.3073 5.60386 4.52398 4.91714 4.52398 4.02597V3.58039C4.52398 2.71369 4.31953 2.04095 3.91065 1.56216C3.50525 1.07988 2.92862 0.83525 2.18074 0.82826H1.00649Z"
                 fill="#F20F6F"
                 id="path160" />
              <path
                 d="M6.63657 4.74415C6.63657 4.18848 6.7449 3.68873 6.96158 3.24489C7.18175 2.80106 7.4858 2.45857 7.87372 2.21743C8.26513 1.97629 8.71071 1.85572 9.21046 1.85572C9.98281 1.85572 10.6066 2.12307 11.0819 2.65777C11.5607 3.19247 11.8001 3.90366 11.8001 4.79133V4.85948C11.8001 5.41165 11.6935 5.90791 11.4803 6.34825C11.2706 6.78509 10.9683 7.12583 10.5734 7.37047C10.182 7.6151 9.73118 7.73742 9.22095 7.73742C8.4521 7.73742 7.82828 7.47007 7.3495 6.93537C6.87421 6.40067 6.63657 5.69298 6.63657 4.8123V4.74415ZM7.61161 4.85948C7.61161 5.48854 7.75664 5.99353 8.04671 6.37446C8.34027 6.75539 8.73168 6.94585 9.22095 6.94585C9.71371 6.94585 10.1051 6.75364 10.3952 6.36922C10.6853 5.9813 10.8303 5.43961 10.8303 4.74415C10.8303 4.12208 10.6818 3.61883 10.3847 3.23441C10.0911 2.84649 9.69973 2.65253 9.21046 2.65253C8.73168 2.65253 8.34551 2.84299 8.05195 3.22392C7.75839 3.60485 7.61161 4.15004 7.61161 4.85948Z"
                 fill="#F20F6F"
                 id="path162" />
              <path
                 d="M13.9336 1.96057L13.9651 2.6735C14.3984 2.12831 14.9646 1.85572 15.6636 1.85572C16.8623 1.85572 17.4669 2.53196 17.4773 3.88444V7.63258H16.5075V3.87919C16.504 3.47031 16.4097 3.16801 16.2245 2.9723C16.0427 2.77659 15.7579 2.67874 15.37 2.67874C15.0555 2.67874 14.7794 2.76262 14.5417 2.93036C14.3041 3.09811 14.1189 3.31828 13.9861 3.59088V7.63258H13.0163V1.96057H13.9336Z"
                 fill="#F20F6F"
                 id="path164" />
              <path
                 d="M21.2936 7.73742C20.5248 7.73742 19.8992 7.4858 19.4169 6.98255C18.9347 6.47581 18.6935 5.79957 18.6935 4.95384V4.7756C18.6935 4.21294 18.8001 3.71145 19.0133 3.2711C19.23 2.82727 19.5305 2.48129 19.9149 2.23316C20.3029 1.98153 20.7222 1.85572 21.1731 1.85572C21.9105 1.85572 22.4836 2.09861 22.8925 2.58438C23.3014 3.07015 23.5058 3.76561 23.5058 4.67076V5.07441H19.6633C19.6773 5.63357 19.8398 6.08614 20.1508 6.43212C20.4654 6.77461 20.8638 6.94585 21.3461 6.94585C21.6885 6.94585 21.9786 6.87596 22.2162 6.73617C22.4539 6.59638 22.6618 6.41115 22.8401 6.1805L23.4324 6.64181C22.9571 7.37222 22.2442 7.73742 21.2936 7.73742ZM21.1731 2.65253C20.7816 2.65253 20.4531 2.79582 20.1875 3.08239C19.9219 3.36546 19.7577 3.76387 19.6948 4.2776H22.536V4.20421C22.5081 3.71145 22.3753 3.33052 22.1376 3.06142C21.9 2.78883 21.5785 2.65253 21.1731 2.65253Z"
                 fill="#F20F6F"
                 id="path166" />
            </g>
          </g>
        </g>
      </g>
      <circle
         id="stroke"
         opacity="0.2"
         cx="110"
         cy="110"
         r="115"
         transform="translate(10 10)"
         stroke="url(#paint1_linear)"
         stroke-width="10" />
    </g>
    <defs
       id="defs185">
      <linearGradient
         id="paint0_linear"
         x2="1"
         gradientUnits="userSpaceOnUse"
         gradientTransform="translate(110 -110) scale(311.127) rotate(45)">
        <stop
           stop-color="#FFD7E9"
           id="stop175" />
        <stop
           offset="1"
           stop-color="#EFB7D1"
           id="stop177" />
      </linearGradient>
      <linearGradient
         id="paint1_linear"
         x2="1"
         gradientUnits="userSpaceOnUse"
         gradientTransform="translate(110 -110) scale(311.127) rotate(45)">
        <stop
           stop-color="#FFEDF5"
           id="stop180" />
        <stop
           offset="1"
           stop-color="#FF5FA8"
           id="stop182" />
      </linearGradient>
    </defs>
  </g>
</svg>
