<?xml version="1.0" encoding="UTF-8" standalone="no"?>
<svg
   xmlns:dc="http://purl.org/dc/elements/1.1/"
   xmlns:cc="http://creativecommons.org/ns#"
   xmlns:rdf="http://www.w3.org/1999/02/22-rdf-syntax-ns#"
   xmlns:svg="http://www.w3.org/2000/svg"
   xmlns="http://www.w3.org/2000/svg"
   xmlns:sodipodi="http://sodipodi.sourceforge.net/DTD/sodipodi-0.dtd"
   xmlns:inkscape="http://www.inkscape.org/namespaces/inkscape"
   width="240"
   height="240"
   viewBox="0 0 240 240"
   fill="none"
   version="1.1"
   id="svg151"
   sodipodi:docname="doc3_1.svg"
   inkscape:version="0.92.3 (3ce5693, 2018-03-11)">
  <metadata
     id="metadata157">
    <rdf:RDF>
      <cc:Work
         rdf:about="">
        <dc:format>image/svg+xml</dc:format>
        <dc:type
           rdf:resource="http://purl.org/dc/dcmitype/StillImage" />
        <dc:title></dc:title>
      </cc:Work>
    </rdf:RDF>
  </metadata>
  <defs
     id="defs155" />
  <sodipodi:namedview
     pagecolor="#ffffff"
     bordercolor="#666666"
     borderopacity="1"
     objecttolerance="10"
     gridtolerance="10"
     guidetolerance="10"
     inkscape:pageopacity="0"
     inkscape:pageshadow="2"
     inkscape:window-width="640"
     inkscape:window-height="480"
     id="namedview153"
     showgrid="false"
     inkscape:zoom="0.98333333"
     inkscape:cx="120"
     inkscape:cy="120"
     inkscape:window-x="63"
     inkscape:window-y="27"
     inkscape:window-maximized="0"
     inkscape:current-layer="svg151" />
  <g
     id="image">
    <g
       id="images">
      <mask
         id="mask0"
         mask-type="alpha"
         maskUnits="userSpaceOnUse"
         x="0"
         y="0"
         width="240"
         height="240">
        <circle
           id="mask"
           cx="110"
           cy="110"
           r="110"
           transform="translate(10 10)"
           fill="url(#paint0_linear)" />
      </mask>
      <g
         mask="url(#mask0)"
         id="g134">
        <g
           id="2 Doc">
          <rect
             id="cover"
             width="220"
             height="220"
             transform="translate(10 53)"
             fill="white" />
          <g
             id="continue">
            <g
               id="Rectangle"
               transform="translate(47 143)">
              <mask
                 id="path-3-outside-1"
                 maskUnits="userSpaceOnUse"
                 x="-1"
                 y="-1"
                 width="148"
                 height="26"
                 fill="black">
                <rect
                   fill="white"
                   x="-1"
                   y="-1"
                   width="148"
                   height="26"
                   id="rect5" />
                <path
                   d="M0 2.88C0 1.28942 0.903683 0 2.01843 0H143.982C145.096 0 146 1.28942 146 2.88V21.12C146 22.7106 145.096 24 143.982 24H2.01843C0.903683 24 0 22.7106 0 21.12V2.88Z"
                   id="path7" />
              </mask>
              <path
                 d="M0 2.88C0 1.28942 0.903683 0 2.01843 0H143.982C145.096 0 146 1.28942 146 2.88V21.12C146 22.7106 145.096 24 143.982 24H2.01843C0.903683 24 0 22.7106 0 21.12V2.88Z"
                 stroke="#F20F6F"
                 stroke-width="2"
                 mask="url(#path-3-outside-1)"
                 id="path10" />
            </g>
            <g
               id="Continue"
               transform="translate(102.565 150.898)">
              <path
                 d="M5.21298 4.7154C5.12928 5.43155 4.86421 5.98493 4.41778 6.37556C3.97445 6.76308 3.38387 6.95685 2.64602 6.95685C1.84617 6.95685 1.20443 6.67008 0.720796 6.09654C0.240265 5.523 0 4.7557 0 3.79464V3.1436C0 2.51426 0.111607 1.96088 0.334821 1.48344C0.561136 1.00601 0.880456 0.640191 1.29278 0.385975C1.70511 0.128658 2.18254 0 2.72507 0C3.44432 0 4.02096 0.201513 4.45499 0.604539C4.88901 1.00446 5.14168 1.5594 5.21298 2.26935H4.31548C4.23797 1.72991 4.06901 1.33929 3.80859 1.09747C3.55128 0.855655 3.1901 0.734747 2.72507 0.734747C2.15464 0.734747 1.70666 0.945561 1.38114 1.36719C1.05872 1.78881 0.897507 2.3887 0.897507 3.16685V3.82254C0.897507 4.55729 1.05097 5.14168 1.35789 5.57571C1.66481 6.00973 2.09418 6.22675 2.64602 6.22675C3.14205 6.22675 3.52183 6.11514 3.78534 5.89193C4.05196 5.66561 4.22867 5.27344 4.31548 4.7154H5.21298Z"
                 fill="#F20F6F"
                 id="path13" />
              <path
                 d="M6.07329 4.30153C6.07329 3.80859 6.1694 3.36527 6.36161 2.97154C6.55692 2.57782 6.82664 2.274 7.17076 2.06008C7.51798 1.84617 7.91326 1.73921 8.35659 1.73921C9.04173 1.73921 9.59511 1.97638 10.0167 2.45071C10.4415 2.92504 10.6538 3.55593 10.6538 4.34338V4.40383C10.6538 4.89366 10.5593 5.33389 10.3702 5.72452C10.1842 6.11204 9.91599 6.41431 9.56566 6.63132C9.21844 6.84834 8.81851 6.95685 8.36589 6.95685C7.68384 6.95685 7.13046 6.71968 6.70573 6.24535C6.2841 5.77102 6.07329 5.14323 6.07329 4.36198V4.30153ZM6.93824 4.40383C6.93824 4.96187 7.0669 5.40985 7.32422 5.74777C7.58464 6.08569 7.93186 6.25465 8.36589 6.25465C8.80301 6.25465 9.15024 6.08414 9.40755 5.74312C9.66487 5.399 9.79353 4.91846 9.79353 4.30153C9.79353 3.74969 9.66177 3.30326 9.39825 2.96224C9.13784 2.61812 8.79061 2.44606 8.35659 2.44606C7.93186 2.44606 7.58929 2.61502 7.32887 2.95294C7.06845 3.29086 6.93824 3.77449 6.93824 4.40383Z"
                 fill="#F20F6F"
                 id="path15" />
              <path
                 d="M12.5465 1.83222L12.5744 2.46466C12.9588 1.98103 13.4611 1.73921 14.0811 1.73921C15.1445 1.73921 15.6808 2.3391 15.6901 3.53888V6.86384H14.8298V3.53423C14.8267 3.1715 14.743 2.90334 14.5787 2.72972C14.4175 2.55611 14.1648 2.46931 13.8207 2.46931C13.5417 2.46931 13.2968 2.54371 13.0859 2.69252C12.8751 2.84133 12.7108 3.03664 12.593 3.27846V6.86384H11.7327V1.83222H12.5465Z"
                 fill="#F20F6F"
                 id="path17" />
              <path
                 d="M18.1548 0.613839V1.83222H19.0941V2.49721H18.1548V5.61756C18.1548 5.81907 18.1966 5.97098 18.2803 6.07329C18.364 6.17249 18.5066 6.2221 18.7081 6.2221C18.8074 6.2221 18.9438 6.2035 19.1174 6.16629V6.86384C18.8911 6.92584 18.6709 6.95685 18.457 6.95685C18.0726 6.95685 17.7827 6.84059 17.5874 6.60807C17.3921 6.37556 17.2945 6.04539 17.2945 5.61756V2.49721H16.3783V1.83222H17.2945V0.613839H18.1548Z"
                 fill="#F20F6F"
                 id="path19" />
              <path
                 d="M21.0379 6.86384H20.1776V1.83222H21.0379V6.86384ZM20.1079 0.497582C20.1079 0.358073 20.1497 0.240265 20.2334 0.144159C20.3203 0.0480531 20.4474 0 20.6148 0C20.7822 0 20.9093 0.0480531 20.9961 0.144159C21.0829 0.240265 21.1263 0.358073 21.1263 0.497582C21.1263 0.637091 21.0829 0.753348 20.9961 0.846354C20.9093 0.93936 20.7822 0.985863 20.6148 0.985863C20.4474 0.985863 20.3203 0.93936 20.2334 0.846354C20.1497 0.753348 20.1079 0.637091 20.1079 0.497582Z"
                 fill="#F20F6F"
                 id="path21" />
              <path
                 d="M23.2329 1.83222L23.2608 2.46466C23.6452 1.98103 24.1474 1.73921 24.7675 1.73921C25.8309 1.73921 26.3672 2.3391 26.3765 3.53888V6.86384H25.5162V3.53423C25.5131 3.1715 25.4294 2.90334 25.2651 2.72972C25.1039 2.55611 24.8512 2.46931 24.5071 2.46931C24.2281 2.46931 23.9831 2.54371 23.7723 2.69252C23.5615 2.84133 23.3972 3.03664 23.2794 3.27846V6.86384H22.4191V1.83222H23.2329Z"
                 fill="#F20F6F"
                 id="path23" />
              <path
                 d="M30.7803 6.36626C30.4455 6.75998 29.9541 6.95685 29.3062 6.95685C28.7698 6.95685 28.3606 6.80184 28.0785 6.49182C27.7995 6.1787 27.6584 5.71677 27.6553 5.10603V1.83222H28.5156V5.08278C28.5156 5.84542 28.8256 6.22675 29.4457 6.22675C30.1029 6.22675 30.5401 5.98183 30.7571 5.492V1.83222H31.6174V6.86384H30.7989L30.7803 6.36626Z"
                 fill="#F20F6F"
                 id="path25" />
              <path
                 d="M35.0167 6.95685C34.3347 6.95685 33.7798 6.73363 33.3519 6.2872C32.9241 5.83767 32.7102 5.23779 32.7102 4.48754V4.32943C32.7102 3.8303 32.8048 3.38542 32.9939 2.99479C33.1861 2.60107 33.4527 2.29415 33.7937 2.07403C34.1378 1.85082 34.5099 1.73921 34.9098 1.73921C35.5639 1.73921 36.0724 1.95468 36.4351 2.3856C36.7978 2.81653 36.9792 3.43347 36.9792 4.23642V4.59449H33.5705C33.5829 5.09053 33.7271 5.492 34.003 5.79892C34.282 6.10274 34.6354 6.25465 35.0632 6.25465C35.3671 6.25465 35.6244 6.19265 35.8352 6.06864C36.046 5.94463 36.2305 5.78032 36.3886 5.57571L36.9141 5.98493C36.4924 6.63287 35.86 6.95685 35.0167 6.95685ZM34.9098 2.44606C34.5626 2.44606 34.2711 2.57316 34.0355 2.82738C33.7999 3.0785 33.6542 3.43192 33.5984 3.88765H36.1189V3.82254C36.0941 3.38542 35.9763 3.0475 35.7654 2.80878C35.5546 2.56696 35.2694 2.44606 34.9098 2.44606Z"
                 fill="#F20F6F"
                 id="path27" />
            </g>
          </g>
          <g
             id="study">
            <rect
               id="dark"
               width="220"
               height="28.5714"
               transform="translate(10 108.238)"
               fill="#F1F1F1" />
            <rect
               id="cover_2"
               width="220"
               height="26.6667"
               transform="translate(10 109.19)"
               fill="white" />
            <g
               id="Study"
               transform="translate(47.0387 118.238)">
              <path
                 d="M2.40885 4.12481C1.64311 3.9047 1.08507 3.63498 0.734747 3.31566C0.387525 2.99324 0.213914 2.59642 0.213914 2.12519C0.213914 1.59195 0.426277 1.15172 0.851004 0.804501C1.27883 0.454179 1.83377 0.279018 2.51581 0.279018C2.98084 0.279018 3.39472 0.368924 3.75744 0.548735C4.12326 0.728547 4.40538 0.976562 4.60379 1.29278C4.80531 1.609 4.90606 1.95468 4.90606 2.3298H4.00856C4.00856 1.92057 3.87835 1.5997 3.61793 1.36719C3.35751 1.13157 2.99014 1.01376 2.51581 1.01376C2.07558 1.01376 1.73146 1.11142 1.48344 1.30673C1.23853 1.49895 1.11607 1.76711 1.11607 2.11124C1.11607 2.38715 1.23233 2.62122 1.46484 2.81343C1.70046 3.00254 2.09883 3.17615 2.65997 3.33426C3.22421 3.49237 3.66443 3.66753 3.98065 3.85975C4.29998 4.04886 4.53559 4.27052 4.6875 4.52474C4.84251 4.77896 4.92001 5.07812 4.92001 5.42225C4.92001 5.97098 4.7061 6.41121 4.27827 6.74293C3.85045 7.07155 3.27846 7.23586 2.56231 7.23586C2.09728 7.23586 1.66326 7.14751 1.26023 6.9708C0.857205 6.79098 0.545635 6.54607 0.325521 6.23605C0.108507 5.92603 0 5.57416 0 5.18043H0.897507C0.897507 5.58966 1.04787 5.91363 1.34859 6.15234C1.65241 6.38796 2.05698 6.50577 2.56231 6.50577C3.03354 6.50577 3.39472 6.40966 3.64583 6.21745C3.89695 6.02524 4.02251 5.76327 4.02251 5.43155C4.02251 5.09983 3.90625 4.84406 3.67374 4.66425C3.44122 4.48134 3.01959 4.30153 2.40885 4.12481Z"
                 fill="black"
                 id="path33" />
              <path
                 d="M7.101 0.892857V2.11124H8.04036V2.77623H7.101V5.89658C7.101 6.09809 7.14286 6.25 7.22656 6.35231C7.31027 6.45151 7.45288 6.50112 7.65439 6.50112C7.7536 6.50112 7.89001 6.48251 8.06362 6.44531V7.14286C7.8373 7.20486 7.61719 7.23586 7.40327 7.23586C7.01885 7.23586 6.72898 7.11961 6.53367 6.88709C6.33836 6.65458 6.2407 6.3244 6.2407 5.89658V2.77623H5.32459V2.11124H6.2407V0.892857H7.101Z"
                 fill="black"
                 id="path35" />
              <path
                 d="M12.1559 6.64528C11.8211 7.039 11.3297 7.23586 10.6817 7.23586C10.1454 7.23586 9.73617 7.08085 9.45405 6.77083C9.17504 6.45771 9.03398 5.99578 9.03088 5.38504V2.11124H9.89118V5.36179C9.89118 6.12444 10.2012 6.50577 10.8212 6.50577C11.4785 6.50577 11.9156 6.26085 12.1326 5.77102V2.11124H12.9929V7.14286H12.1745L12.1559 6.64528Z"
                 fill="black"
                 id="path37" />
              <path
                 d="M14.0951 4.58519C14.0951 3.81324 14.278 3.1932 14.6438 2.72507C15.0096 2.25384 15.4886 2.01823 16.0807 2.01823C16.6698 2.01823 17.1363 2.21974 17.4805 2.62277V0H18.3408V7.14286H17.5502L17.5084 6.60342C17.1642 7.02505 16.6853 7.23586 16.0714 7.23586C15.4886 7.23586 15.0127 6.99715 14.6438 6.51972C14.278 6.04229 14.0951 5.41915 14.0951 4.6503V4.58519ZM14.9554 4.68285C14.9554 5.25329 15.0732 5.69971 15.3088 6.02214C15.5444 6.34456 15.8699 6.50577 16.2853 6.50577C16.831 6.50577 17.2294 6.26085 17.4805 5.77102V3.45982C17.2232 2.98549 16.8279 2.74833 16.2946 2.74833C15.873 2.74833 15.5444 2.91109 15.3088 3.23661C15.0732 3.56213 14.9554 4.04421 14.9554 4.68285Z"
                 fill="black"
                 id="path39" />
              <path
                 d="M21.3263 5.88263L22.4981 2.11124H23.4189L21.396 7.91946C21.0829 8.75651 20.5853 9.17504 19.9033 9.17504L19.7405 9.16109L19.4196 9.10063V8.40309L19.6522 8.42169C19.9436 8.42169 20.1699 8.36279 20.3311 8.24498C20.4954 8.12717 20.6303 7.91171 20.7357 7.59859L20.9263 7.08705L19.1313 2.11124H20.0707L21.3263 5.88263Z"
                 fill="black"
                 id="path41" />
            </g>
            <g
               id="Pediatrican study"
               transform="translate(129.279 118.952)">
              <path
                 d="M0.803571 4.04297V6.42857H0V0.334821H2.24749C2.91434 0.334821 3.43611 0.505022 3.81278 0.845424C4.19224 1.18583 4.38198 1.63644 4.38198 2.19727C4.38198 2.78878 4.19643 3.24498 3.82534 3.56585C3.45703 3.88393 2.92829 4.04297 2.23912 4.04297H0.803571ZM0.803571 3.38588H2.24749C2.67718 3.38588 3.00642 3.28543 3.23521 3.08454C3.46401 2.88086 3.5784 2.58789 3.5784 2.20564C3.5784 1.84291 3.46401 1.55273 3.23521 1.3351C3.00642 1.11747 2.69252 1.00446 2.29353 0.996094H0.803571V3.38588Z"
                 fill="#ADB5BD"
                 id="path44" />
              <path
                 d="M7.02087 6.51228C6.40703 6.51228 5.90759 6.31138 5.52254 5.9096C5.1375 5.50502 4.94498 4.96512 4.94498 4.2899V4.1476C4.94498 3.69838 5.03008 3.29799 5.20028 2.94643C5.37327 2.59208 5.61323 2.31585 5.92015 2.11775C6.22986 1.91685 6.56468 1.81641 6.92461 1.81641C7.51334 1.81641 7.97093 2.01032 8.29738 2.39816C8.62383 2.78599 8.78705 3.34124 8.78705 4.06389V4.38616H5.71925C5.73041 4.83259 5.86016 5.19392 6.10848 5.47014C6.3596 5.74358 6.67768 5.8803 7.06272 5.8803C7.33616 5.8803 7.56775 5.8245 7.75748 5.71289C7.94721 5.60128 8.11323 5.4534 8.25552 5.26925L8.72846 5.63756C8.349 6.2207 7.7798 6.51228 7.02087 6.51228ZM6.92461 2.45257C6.61211 2.45257 6.34983 2.56696 6.13778 2.79576C5.92573 3.02176 5.79459 3.33984 5.74436 3.75H8.01278V3.69141C7.99046 3.29799 7.88443 2.99386 7.6947 2.77902C7.50497 2.56138 7.24827 2.45257 6.92461 2.45257Z"
                 fill="#ADB5BD"
                 id="path46" />
              <path
                 d="M9.41284 4.12667C9.41284 3.43192 9.57746 2.87388 9.9067 2.45257C10.2359 2.02846 10.667 1.81641 11.1999 1.81641C11.7301 1.81641 12.15 1.99777 12.4597 2.36049V0H13.234V6.42857H12.5225L12.4848 5.94308C12.1751 6.32254 11.744 6.51228 11.1916 6.51228C10.667 6.51228 10.2387 6.29743 9.9067 5.86775C9.57746 5.43806 9.41284 4.87723 9.41284 4.18527V4.12667ZM10.1871 4.21456C10.1871 4.72796 10.2931 5.12974 10.5052 5.41992C10.7172 5.7101 11.0102 5.85519 11.3841 5.85519C11.8752 5.85519 12.2337 5.63477 12.4597 5.19392V3.11384C12.2281 2.68694 11.8724 2.47349 11.3925 2.47349C11.013 2.47349 10.7172 2.61998 10.5052 2.91295C10.2931 3.20591 10.1871 3.63979 10.1871 4.21456Z"
                 fill="#ADB5BD"
                 id="path48" />
              <path
                 d="M15.1949 6.42857H14.4206V1.90011H15.1949V6.42857ZM14.3578 0.69894C14.3578 0.573382 14.3955 0.467355 14.4708 0.380859C14.5489 0.294364 14.6633 0.251116 14.814 0.251116C14.9647 0.251116 15.0791 0.294364 15.1572 0.380859C15.2353 0.467355 15.2744 0.573382 15.2744 0.69894C15.2744 0.824498 15.2353 0.929129 15.1572 1.01283C15.0791 1.09654 14.9647 1.13839 14.814 1.13839C14.6633 1.13839 14.5489 1.09654 14.4708 1.01283C14.3955 0.929129 14.3578 0.824498 14.3578 0.69894Z"
                 fill="#ADB5BD"
                 id="path50" />
              <path
                 d="M19.1479 6.42857C19.1033 6.33929 19.067 6.18025 19.0391 5.95145C18.6792 6.32533 18.2495 6.51228 17.7501 6.51228C17.3036 6.51228 16.9367 6.38672 16.6493 6.1356C16.3647 5.8817 16.2224 5.56083 16.2224 5.17299C16.2224 4.70145 16.401 4.33594 16.7581 4.07645C17.1181 3.81417 17.6231 3.68304 18.2732 3.68304H19.0266V3.32729C19.0266 3.05664 18.9456 2.8418 18.7838 2.68276C18.622 2.52093 18.3834 2.44001 18.0681 2.44001C17.7919 2.44001 17.5603 2.50977 17.3734 2.64927C17.1864 2.78878 17.093 2.95759 17.093 3.15569H16.3145C16.3145 2.92969 16.394 2.71205 16.5531 2.50279C16.7149 2.29074 16.9325 2.12333 17.206 2.00056C17.4822 1.87779 17.7849 1.81641 18.1142 1.81641C18.6359 1.81641 19.0447 1.94754 19.3405 2.20982C19.6362 2.46931 19.7897 2.82785 19.8008 3.28543V5.3697C19.8008 5.78543 19.8539 6.11607 19.9599 6.36161V6.42857H19.1479ZM17.8631 5.83845C18.1058 5.83845 18.336 5.77567 18.5536 5.65011C18.7713 5.52455 18.9289 5.36133 19.0266 5.16043V4.23131H18.4197C17.471 4.23131 16.9967 4.50893 16.9967 5.06417C16.9967 5.30692 17.0776 5.49665 17.2395 5.63337C17.4013 5.77009 17.6092 5.83845 17.8631 5.83845Z"
                 fill="#ADB5BD"
                 id="path52" />
              <path
                 d="M21.9794 0.803571V1.90011H22.8248V2.4986H21.9794V5.30692C21.9794 5.48828 22.017 5.625 22.0924 5.71708C22.1677 5.80636 22.296 5.851 22.4774 5.851C22.5667 5.851 22.6895 5.83426 22.8457 5.80078V6.42857C22.642 6.48437 22.4439 6.51228 22.2514 6.51228C21.9054 6.51228 21.6445 6.40764 21.4688 6.19838C21.293 5.98912 21.2051 5.69196 21.2051 5.30692V2.4986H20.3806V1.90011H21.2051V0.803571H21.9794Z"
                 fill="#ADB5BD"
                 id="path54" />
              <path
                 d="M25.8362 2.59487C25.719 2.57533 25.592 2.56557 25.4553 2.56557C24.9475 2.56557 24.6029 2.78181 24.4215 3.21429V6.42857H23.6473V1.90011H24.4006L24.4132 2.42327C24.6671 2.01869 25.027 1.81641 25.493 1.81641C25.6436 1.81641 25.758 1.83594 25.8362 1.875V2.59487Z"
                 fill="#ADB5BD"
                 id="path56" />
              <path
                 d="M27.3074 6.42857H26.5331V1.90011H27.3074V6.42857ZM26.4703 0.69894C26.4703 0.573382 26.508 0.467355 26.5833 0.380859C26.6614 0.294364 26.7758 0.251116 26.9265 0.251116C27.0772 0.251116 27.1916 0.294364 27.2697 0.380859C27.3478 0.467355 27.3869 0.573382 27.3869 0.69894C27.3869 0.824498 27.3478 0.929129 27.2697 1.01283C27.1916 1.09654 27.0772 1.13839 26.9265 1.13839C26.7758 1.13839 26.6614 1.09654 26.5833 1.01283C26.508 0.929129 26.4703 0.824498 26.4703 0.69894Z"
                 fill="#ADB5BD"
                 id="path58" />
              <path
                 d="M30.2811 5.8803C30.5573 5.8803 30.7987 5.7966 31.0051 5.62918C31.2116 5.46177 31.326 5.25251 31.3483 5.00139H32.0807C32.0668 5.26088 31.9775 5.50781 31.8129 5.74219C31.6483 5.97656 31.4278 6.1635 31.1516 6.30301C30.8782 6.44252 30.588 6.51228 30.2811 6.51228C29.6645 6.51228 29.1734 6.3072 28.8079 5.89704C28.4451 5.4841 28.2638 4.92048 28.2638 4.20619V4.07645C28.2638 3.6356 28.3447 3.24358 28.5065 2.90039C28.6684 2.5572 28.8999 2.29074 29.2013 2.101C29.5054 1.91127 29.864 1.81641 30.2769 1.81641C30.7847 1.81641 31.206 1.96847 31.5408 2.2726C31.8785 2.57673 32.0584 2.97154 32.0807 3.45703H31.3483C31.326 3.16406 31.2144 2.92411 31.0135 2.73716C30.8154 2.54743 30.5699 2.45257 30.2769 2.45257C29.8835 2.45257 29.578 2.59487 29.3603 2.87946C29.1455 3.16127 29.0381 3.57003 29.0381 4.10575V4.25223C29.0381 4.774 29.1455 5.17578 29.3603 5.45759C29.5752 5.7394 29.8821 5.8803 30.2811 5.8803Z"
                 fill="#ADB5BD"
                 id="path60" />
              <path
                 d="M35.6613 6.42857C35.6167 6.33929 35.5804 6.18025 35.5525 5.95145C35.1926 6.32533 34.7629 6.51228 34.2635 6.51228C33.817 6.51228 33.4501 6.38672 33.1627 6.1356C32.8781 5.8817 32.7358 5.56083 32.7358 5.17299C32.7358 4.70145 32.9144 4.33594 33.2715 4.07645C33.6315 3.81417 34.1365 3.68304 34.7866 3.68304H35.54V3.32729C35.54 3.05664 35.459 2.8418 35.2972 2.68276C35.1354 2.52093 34.8968 2.44001 34.5815 2.44001C34.3053 2.44001 34.0737 2.50977 33.8868 2.64927C33.6998 2.78878 33.6064 2.95759 33.6064 3.15569H32.8279C32.8279 2.92969 32.9074 2.71205 33.0665 2.50279C33.2283 2.29074 33.4459 2.12333 33.7194 2.00056C33.9956 1.87779 34.2983 1.81641 34.6276 1.81641C35.1493 1.81641 35.5581 1.94754 35.8539 2.20982C36.1496 2.46931 36.3031 2.82785 36.3142 3.28543V5.3697C36.3142 5.78543 36.3672 6.11607 36.4733 6.36161V6.42857H35.6613ZM34.3765 5.83845C34.6192 5.83845 34.8494 5.77567 35.067 5.65011C35.2847 5.52455 35.4423 5.36133 35.54 5.16043V4.23131H34.9331C33.9844 4.23131 33.5101 4.50893 33.5101 5.06417C33.5101 5.30692 33.591 5.49665 33.7528 5.63337C33.9147 5.77009 34.1225 5.83845 34.3765 5.83845Z"
                 fill="#ADB5BD"
                 id="path62" />
              <path
                 d="M38.1747 1.90011L38.1998 2.46931C38.5458 2.03404 38.9978 1.81641 39.5558 1.81641C40.5128 1.81641 40.9955 2.35631 41.0039 3.4361V6.42857H40.2296V3.43192C40.2268 3.10547 40.1515 2.86412 40.0036 2.70787C39.8585 2.55162 39.6311 2.47349 39.3214 2.47349C39.0703 2.47349 38.8499 2.54046 38.6602 2.67439C38.4704 2.80831 38.3225 2.9841 38.2165 3.20173V6.42857H37.4422V1.90011H38.1747Z"
                 fill="#ADB5BD"
                 id="path64" />
              <path
                 d="M46.763 5.2274C46.763 5.01814 46.6835 4.85631 46.5244 4.74191C46.3682 4.62472 46.0934 4.52427 45.6999 4.44057C45.3093 4.35686 44.9982 4.25642 44.7666 4.13923C44.5378 4.02204 44.3676 3.88253 44.256 3.7207C44.1472 3.55887 44.0928 3.36635 44.0928 3.14314C44.0928 2.77204 44.2491 2.45815 44.5616 2.20145C44.8768 1.94475 45.2786 1.81641 45.7669 1.81641C46.2803 1.81641 46.696 1.94894 47.0141 2.21401C47.335 2.47907 47.4954 2.81808 47.4954 3.23103H46.717C46.717 3.01897 46.6263 2.83622 46.4449 2.68276C46.2664 2.5293 46.0403 2.45257 45.7669 2.45257C45.4851 2.45257 45.2647 2.51395 45.1056 2.63672C44.9466 2.75949 44.8671 2.91992 44.8671 3.11802C44.8671 3.30497 44.941 3.44587 45.0889 3.54074C45.2368 3.6356 45.5032 3.72628 45.8883 3.81278C46.2761 3.89927 46.59 4.00251 46.83 4.12249C47.0699 4.24247 47.2471 4.38756 47.3615 4.55776C47.4787 4.72517 47.5373 4.93025 47.5373 5.17299C47.5373 5.57757 47.3754 5.90262 47.0518 6.14816C46.7281 6.3909 46.3082 6.51228 45.792 6.51228C45.4293 6.51228 45.1084 6.4481 44.8294 6.31975C44.5504 6.19141 44.3314 6.01283 44.1723 5.78404C44.0161 5.55245 43.9379 5.30273 43.9379 5.03488H44.7122C44.7262 5.29436 44.8294 5.50084 45.0219 5.6543C45.2172 5.80497 45.4739 5.8803 45.792 5.8803C46.085 5.8803 46.3194 5.82171 46.4951 5.70452C46.6737 5.58454 46.763 5.4255 46.763 5.2274Z"
                 fill="#ADB5BD"
                 id="path66" />
              <path
                 d="M49.5107 0.803571V1.90011H50.3561V2.4986H49.5107V5.30692C49.5107 5.48828 49.5484 5.625 49.6237 5.71708C49.6991 5.80636 49.8274 5.851 50.0088 5.851C50.098 5.851 50.2208 5.83426 50.3771 5.80078V6.42857C50.1734 6.48437 49.9753 6.51228 49.7828 6.51228C49.4368 6.51228 49.1759 6.40764 49.0001 6.19838C48.8243 5.98912 48.7364 5.69196 48.7364 5.30692V2.4986H47.9119V1.90011H48.7364V0.803571H49.5107Z"
                 fill="#ADB5BD"
                 id="path68" />
              <path
                 d="M53.9744 5.98075C53.673 6.3351 53.2308 6.51228 52.6477 6.51228C52.165 6.51228 51.7967 6.37277 51.5427 6.09375C51.2916 5.81194 51.1647 5.3962 51.1619 4.84654V1.90011H51.9362V4.82561C51.9362 5.512 52.2152 5.85519 52.7732 5.85519C53.3647 5.85519 53.7581 5.63477 53.9535 5.19392V1.90011H54.7277V6.42857H53.9911L53.9744 5.98075Z"
                 fill="#ADB5BD"
                 id="path70" />
              <path
                 d="M55.6339 4.12667C55.6339 3.43192 55.7985 2.87388 56.1278 2.45257C56.457 2.02846 56.8881 1.81641 57.421 1.81641C57.9512 1.81641 58.3711 1.99777 58.6808 2.36049V0H59.4551V6.42857H58.7436L58.7059 5.94308C58.3962 6.32254 57.9651 6.51228 57.4127 6.51228C56.8881 6.51228 56.4598 6.29743 56.1278 5.86775C55.7985 5.43806 55.6339 4.87723 55.6339 4.18527V4.12667ZM56.4082 4.21456C56.4082 4.72796 56.5142 5.12974 56.7263 5.41992C56.9383 5.7101 57.2313 5.85519 57.6052 5.85519C58.0963 5.85519 58.4548 5.63477 58.6808 5.19392V3.11384C58.4492 2.68694 58.0935 2.47349 57.6136 2.47349C57.2341 2.47349 56.9383 2.61998 56.7263 2.91295C56.5142 3.20591 56.4082 3.63979 56.4082 4.21456Z"
                 fill="#ADB5BD"
                 id="path72" />
              <path
                 d="M62.0563 5.29436L63.111 1.90011H63.9397L62.1191 7.12751C61.8373 7.88086 61.3895 8.25753 60.7756 8.25753L60.6291 8.24498L60.3403 8.19057V7.56278L60.5496 7.57952C60.8119 7.57952 61.0156 7.52651 61.1607 7.42048C61.3085 7.31445 61.4299 7.12054 61.5248 6.83873L61.6964 6.37835L60.0809 1.90011H60.9263L62.0563 5.29436Z"
                 fill="#ADB5BD"
                 id="path74" />
            </g>
          </g>
          <g
             id="email">
            <rect
               id="dark_2"
               width="220"
               height="28.5714"
               transform="translate(10 80.6191)"
               fill="#F1F1F1" />
            <rect
               id="cover_3"
               width="220"
               height="26.6667"
               transform="translate(10 81.5714)"
               fill="white" />
            <g
               id="Email"
               transform="translate(47.4526 90.619)">
              <path
                 d="M3.82719 4.01321H0.892857V6.41276H4.30153V7.14286H0V0.372024H4.25502V1.10677H0.892857V3.28311H3.82719V4.01321Z"
                 fill="black"
                 id="path80" />
              <path
                 d="M6.08724 2.11123L6.11049 2.66927C6.47941 2.23524 6.977 2.01823 7.60324 2.01823C8.30698 2.01823 8.78596 2.28795 9.04018 2.82738C9.20759 2.58557 9.4246 2.39025 9.69122 2.24144C9.96094 2.09263 10.2787 2.01823 10.6445 2.01823C11.7482 2.01823 12.3093 2.60262 12.3279 3.77139V7.14286H11.4676V3.82254C11.4676 3.46292 11.3855 3.19475 11.2212 3.01804C11.0569 2.83823 10.7809 2.74833 10.3934 2.74833C10.0741 2.74833 9.80903 2.84443 9.59821 3.03664C9.3874 3.22576 9.26494 3.48152 9.23084 3.80394V7.14286H8.36589V3.8458C8.36589 3.11415 8.00781 2.74833 7.29167 2.74833C6.72743 2.74833 6.34146 2.98859 6.13374 3.46912V7.14286H5.27344V2.11123H6.08724Z"
                 fill="black"
                 id="path82" />
              <path
                 d="M16.7364 7.14286C16.6868 7.04365 16.6465 6.86694 16.6155 6.61272C16.2156 7.02815 15.7382 7.23586 15.1832 7.23586C14.6872 7.23586 14.2795 7.09635 13.9602 6.81734C13.644 6.53522 13.4859 6.1787 13.4859 5.74777C13.4859 5.22383 13.6843 4.81771 14.0811 4.52939C14.481 4.23797 15.0422 4.09226 15.7645 4.09226H16.6016V3.69699C16.6016 3.39627 16.5117 3.15755 16.3318 2.98084C16.152 2.80103 15.887 2.71112 15.5366 2.71112C15.2297 2.71112 14.9724 2.78863 14.7647 2.94364C14.557 3.09865 14.4531 3.28621 14.4531 3.50632H13.5882C13.5882 3.25521 13.6765 3.01339 13.8532 2.78088C14.033 2.54526 14.2749 2.35925 14.5787 2.22284C14.8856 2.08643 15.222 2.01823 15.5878 2.01823C16.1675 2.01823 16.6217 2.16394 16.9503 2.45536C17.279 2.74368 17.4495 3.14205 17.4619 3.65048V5.96633C17.4619 6.42826 17.5208 6.79563 17.6386 7.06845V7.14286H16.7364ZM15.3088 6.48716C15.5785 6.48716 15.8343 6.41741 16.0761 6.2779C16.3179 6.13839 16.4931 5.95703 16.6016 5.73382V4.70145H15.9273C14.8732 4.70145 14.3462 5.00992 14.3462 5.62686C14.3462 5.89658 14.4361 6.10739 14.6159 6.2593C14.7957 6.41121 15.0267 6.48716 15.3088 6.48716Z"
                 fill="black"
                 id="path84" />
              <path
                 d="M19.7452 7.14286H18.8849V2.11123H19.7452V7.14286ZM18.8151 0.7766C18.8151 0.637091 18.857 0.519283 18.9407 0.423177C19.0275 0.327071 19.1546 0.279018 19.322 0.279018C19.4894 0.279018 19.6165 0.327071 19.7033 0.423177C19.7901 0.519283 19.8335 0.637091 19.8335 0.7766C19.8335 0.916109 19.7901 1.03237 19.7033 1.12537C19.6165 1.21838 19.4894 1.26488 19.322 1.26488C19.1546 1.26488 19.0275 1.21838 18.9407 1.12537C18.857 1.03237 18.8151 0.916109 18.8151 0.7766Z"
                 fill="black"
                 id="path86" />
              <path
                 d="M22.061 7.14286H21.2007V0H22.061V7.14286Z"
                 fill="black"
                 id="path88" />
            </g>
            <g
               id="new_patient@test.com"
               transform="translate(106.3 91.5845)">
              <path
                 d="M0.732422 1.649L0.757534 2.21819C1.10352 1.78292 1.55552 1.56529 2.11356 1.56529C3.07059 1.56529 3.55329 2.10519 3.56166 3.18499V6.17745H2.78739V3.1808C2.7846 2.85435 2.70926 2.613 2.56138 2.45675C2.41629 2.3005 2.1889 2.22238 1.87919 2.22238C1.62807 2.22238 1.40765 2.28934 1.21791 2.42327C1.02818 2.5572 0.880301 2.73298 0.774275 2.95061V6.17745H0V1.649H0.732422Z"
                 fill="#ADB5BD"
                 id="path91" />
              <path
                 d="M6.52282 6.26116C5.90898 6.26116 5.40954 6.06027 5.0245 5.65848C4.63945 5.25391 4.44693 4.71401 4.44693 4.03878V3.89648C4.44693 3.44727 4.53203 3.04687 4.70223 2.69531C4.87522 2.34096 5.11518 2.06473 5.4221 1.86663C5.73181 1.66574 6.06663 1.56529 6.42656 1.56529C7.01529 1.56529 7.47288 1.75921 7.79933 2.14704C8.12578 2.53488 8.28901 3.09012 8.28901 3.81278V4.13504H5.22121C5.23237 4.58147 5.36211 4.9428 5.61044 5.21903C5.86155 5.49247 6.17963 5.62918 6.56468 5.62918C6.83811 5.62918 7.0697 5.57338 7.25943 5.46177C7.44916 5.35017 7.61518 5.20229 7.75748 5.01814L8.23041 5.38644C7.85095 5.96959 7.28175 6.26116 6.52282 6.26116ZM6.42656 2.20145C6.11406 2.20145 5.85179 2.31585 5.63973 2.54464C5.42768 2.77065 5.29654 3.08873 5.24632 3.49888H7.51473V3.44029C7.49241 3.04687 7.38638 2.74275 7.19665 2.5279C7.00692 2.31027 6.75022 2.20145 6.42656 2.20145Z"
                 fill="#ADB5BD"
                 id="path93" />
              <path
                 d="M13.1126 5.11021L13.9831 1.649H14.7574L13.4391 6.17745H12.8113L11.7105 2.74554L10.6391 6.17745H10.0113L8.69715 1.649H9.46724L10.3587 5.03906L11.4134 1.649H12.037L13.1126 5.11021Z"
                 fill="#ADB5BD"
                 id="path95" />
              <path
                 d="M18.7272 6.80943H14.8935V6.17745H18.7272V6.80943Z"
                 fill="#ADB5BD"
                 id="path97" />
              <path
                 d="M23.0695 3.96345C23.0695 4.65262 22.9119 5.20787 22.5966 5.62918C22.2813 6.0505 21.8544 6.26116 21.3159 6.26116C20.7662 6.26116 20.3338 6.08677 20.0185 5.738V7.91853H19.2442V1.649H19.9515L19.9892 2.15123C20.3045 1.7606 20.7425 1.56529 21.3033 1.56529C21.8474 1.56529 22.2771 1.77037 22.5924 2.18052C22.9105 2.59068 23.0695 3.16127 23.0695 3.8923V3.96345ZM22.2953 3.87556C22.2953 3.36496 22.1864 2.96177 21.9688 2.66602C21.7512 2.37026 21.4526 2.22238 21.0732 2.22238C20.6044 2.22238 20.2528 2.43025 20.0185 2.84598V5.00977C20.2501 5.42271 20.6044 5.62918 21.0815 5.62918C21.4526 5.62918 21.747 5.4827 21.9646 5.18973C22.185 4.89397 22.2953 4.45591 22.2953 3.87556Z"
                 fill="#ADB5BD"
                 id="path99" />
              <path
                 d="M26.7673 6.17745C26.7227 6.08817 26.6864 5.92913 26.6585 5.70033C26.2985 6.07422 25.8689 6.26116 25.3694 6.26116C24.923 6.26116 24.5561 6.1356 24.2687 5.88449C23.9841 5.63058 23.8418 5.30971 23.8418 4.92187C23.8418 4.45033 24.0204 4.08482 24.3775 3.82533C24.7374 3.56306 25.2425 3.43192 25.8926 3.43192H26.6459V3.07617C26.6459 2.80552 26.565 2.59068 26.4032 2.43164C26.2414 2.26981 26.0028 2.18889 25.6875 2.18889C25.4113 2.18889 25.1797 2.25865 24.9927 2.39816C24.8058 2.53767 24.7123 2.70647 24.7123 2.90458H23.9339C23.9339 2.67857 24.0134 2.46094 24.1724 2.25167C24.3343 2.03962 24.5519 1.87221 24.8253 1.74944C25.1016 1.62667 25.4043 1.56529 25.7335 1.56529C26.2553 1.56529 26.6641 1.69643 26.9598 1.95871C27.2556 2.21819 27.409 2.57673 27.4202 3.03432V5.11858C27.4202 5.53432 27.4732 5.86495 27.5792 6.11049V6.17745H26.7673ZM25.4824 5.58733C25.7252 5.58733 25.9554 5.52455 26.173 5.399C26.3906 5.27344 26.5483 5.11021 26.6459 4.90932V3.98019H26.0391C25.0904 3.98019 24.6161 4.25781 24.6161 4.81306C24.6161 5.0558 24.697 5.24554 24.8588 5.38225C25.0206 5.51897 25.2285 5.58733 25.4824 5.58733Z"
                 fill="#ADB5BD"
                 id="path101" />
              <path
                 d="M29.5987 0.552455V1.649H30.4441V2.24749H29.5987V5.0558C29.5987 5.23716 29.6364 5.37388 29.7117 5.46596C29.7871 5.55525 29.9154 5.59989 30.0968 5.59989C30.1861 5.59989 30.3088 5.58315 30.4651 5.54966V6.17745C30.2614 6.23326 30.0633 6.26116 29.8708 6.26116C29.5248 6.26116 29.2639 6.15653 29.0881 5.94727C28.9123 5.738 28.8244 5.44085 28.8244 5.0558V2.24749H27.9999V1.649H28.8244V0.552455H29.5987Z"
                 fill="#ADB5BD"
                 id="path103" />
              <path
                 d="M32.1079 6.17745H31.3336V1.649H32.1079V6.17745ZM31.2708 0.447824C31.2708 0.322266 31.3085 0.216239 31.3838 0.129743C31.4619 0.0432478 31.5763 0 31.727 0C31.8777 0 31.9921 0.0432478 32.0702 0.129743C32.1483 0.216239 32.1874 0.322266 32.1874 0.447824C32.1874 0.573382 32.1483 0.678013 32.0702 0.761719C31.9921 0.845424 31.8777 0.887277 31.727 0.887277C31.5763 0.887277 31.4619 0.845424 31.3838 0.761719C31.3085 0.678013 31.2708 0.573382 31.2708 0.447824Z"
                 fill="#ADB5BD"
                 id="path105" />
              <path
                 d="M35.1444 6.26116C34.5305 6.26116 34.0311 6.06027 33.646 5.65848C33.261 5.25391 33.0685 4.71401 33.0685 4.03878V3.89648C33.0685 3.44727 33.1536 3.04687 33.3238 2.69531C33.4968 2.34096 33.7367 2.06473 34.0436 1.86663C34.3533 1.66574 34.6882 1.56529 35.0481 1.56529C35.6368 1.56529 36.0944 1.75921 36.4209 2.14704C36.7473 2.53488 36.9105 3.09012 36.9105 3.81278V4.13504H33.8427C33.8539 4.58147 33.9837 4.9428 34.232 5.21903C34.4831 5.49247 34.8012 5.62918 35.1862 5.62918C35.4597 5.62918 35.6912 5.57338 35.881 5.46177C36.0707 5.35017 36.2367 5.20229 36.379 5.01814L36.852 5.38644C36.4725 5.96959 35.9033 6.26116 35.1444 6.26116ZM35.0481 2.20145C34.7356 2.20145 34.4733 2.31585 34.2613 2.54464C34.0492 2.77065 33.9181 3.08873 33.8679 3.49888H36.1363V3.44029C36.114 3.04687 36.0079 2.74275 35.8182 2.5279C35.6285 2.31027 35.3718 2.20145 35.0481 2.20145Z"
                 fill="#ADB5BD"
                 id="path107" />
              <path
                 d="M38.4571 1.649L38.4822 2.21819C38.8282 1.78292 39.2802 1.56529 39.8382 1.56529C40.7953 1.56529 41.278 2.10519 41.2863 3.18499V6.17745H40.5121V3.1808C40.5093 2.85435 40.4339 2.613 40.286 2.45675C40.141 2.3005 39.9136 2.22238 39.6039 2.22238C39.3527 2.22238 39.1323 2.28934 38.9426 2.42327C38.7528 2.5572 38.605 2.73298 38.4989 2.95061V6.17745H37.7247V1.649H38.4571Z"
                 fill="#ADB5BD"
                 id="path109" />
              <path
                 d="M43.4188 0.552455V1.649H44.2642V2.24749H43.4188V5.0558C43.4188 5.23716 43.4565 5.37388 43.5318 5.46596C43.6071 5.55525 43.7355 5.59989 43.9169 5.59989C44.0061 5.59989 44.1289 5.58315 44.2852 5.54966V6.17745C44.0815 6.23326 43.8834 6.26116 43.6908 6.26116C43.3449 6.26116 43.084 6.15653 42.9082 5.94727C42.7324 5.738 42.6445 5.44085 42.6445 5.0558V2.24749H41.82V1.649H42.6445V0.552455H43.4188Z"
                 fill="#ADB5BD"
                 id="path111" />
              <path
                 d="M51.7748 4.07645C51.7413 4.75167 51.5739 5.2846 51.2725 5.67522C50.9712 6.06585 50.568 6.26116 50.063 6.26116C49.5412 6.26116 49.2064 6.02679 49.0585 5.55804C48.9079 5.7952 48.7349 5.97238 48.5396 6.08956C48.347 6.20396 48.1475 6.26116 47.9411 6.26116C47.5449 6.26116 47.2449 6.09933 47.0412 5.77567C46.8376 5.45201 46.7622 5.00419 46.8152 4.4322C46.8571 3.97182 46.9617 3.56166 47.1291 3.20173C47.2993 2.83901 47.517 2.55441 47.782 2.34794C48.0499 2.14146 48.3303 2.03823 48.6233 2.03823C48.8493 2.03823 49.0516 2.06892 49.2301 2.1303C49.4087 2.18889 49.6096 2.30608 49.8328 2.48186L49.6152 4.8005C49.5622 5.44503 49.7407 5.7673 50.1509 5.7673C50.4662 5.7673 50.7215 5.61105 50.9168 5.29855C51.1121 4.98605 51.2181 4.57868 51.2349 4.07645C51.2879 2.99107 51.0856 2.16378 50.628 1.59459C50.1732 1.02539 49.4799 0.740792 48.5479 0.740792C47.9871 0.740792 47.4891 0.880301 47.0538 1.15932C46.6185 1.43555 46.2753 1.83594 46.0242 2.36049C45.7731 2.88504 45.6322 3.49051 45.6015 4.1769C45.568 4.86886 45.6517 5.47014 45.8526 5.98075C46.0535 6.48856 46.359 6.87639 46.7692 7.14425C47.1821 7.4149 47.6802 7.55022 48.2633 7.55022C48.5145 7.55022 48.7656 7.51953 49.0167 7.45815C49.2706 7.39676 49.4813 7.31724 49.6487 7.21959L49.8035 7.70089C49.6305 7.80971 49.4003 7.89899 49.1129 7.96875C48.8284 8.0385 48.5396 8.07338 48.2466 8.07338C47.5491 8.07338 46.9492 7.91574 46.4469 7.60045C45.9447 7.28795 45.568 6.83594 45.3169 6.24442C45.0686 5.65569 44.9612 4.96652 44.9946 4.1769C45.0281 3.4096 45.1997 2.72042 45.5094 2.10937C45.8191 1.49554 46.2391 1.0226 46.7692 0.690569C47.2993 0.355748 47.8978 0.188337 48.5647 0.188337C49.2594 0.188337 49.8551 0.344587 50.3518 0.657087C50.8484 0.969587 51.2181 1.4202 51.4609 2.00893C51.7036 2.59766 51.8083 3.28683 51.7748 4.07645ZM47.4807 4.4322C47.4416 4.8284 47.4779 5.13253 47.5895 5.34459C47.7039 5.55664 47.8839 5.66267 48.1294 5.66267C48.2968 5.66267 48.4573 5.59152 48.6107 5.44922C48.767 5.30692 48.8953 5.10324 48.9958 4.83817L48.9999 4.8005L49.1925 2.69531C49.0362 2.6144 48.8688 2.57394 48.6902 2.57394C48.3638 2.57394 48.0931 2.73996 47.8783 3.07199C47.6662 3.40402 47.5337 3.85742 47.4807 4.4322Z"
                 fill="#ADB5BD"
                 id="path113" />
              <path
                 d="M53.7524 0.552455V1.649H54.5978V2.24749H53.7524V5.0558C53.7524 5.23716 53.7901 5.37388 53.8654 5.46596C53.9407 5.55525 54.0691 5.59989 54.2505 5.59989C54.3397 5.59989 54.4625 5.58315 54.6188 5.54966V6.17745C54.4151 6.23326 54.217 6.26116 54.0244 6.26116C53.6785 6.26116 53.4176 6.15653 53.2418 5.94727C53.066 5.738 52.9781 5.44085 52.9781 5.0558V2.24749H52.1536V1.649H52.9781V0.552455H53.7524Z"
                 fill="#ADB5BD"
                 id="path115" />
              <path
                 d="M57.2995 6.26116C56.6857 6.26116 56.1862 6.06027 55.8012 5.65848C55.4161 5.25391 55.2236 4.71401 55.2236 4.03878V3.89648C55.2236 3.44727 55.3087 3.04687 55.4789 2.69531C55.6519 2.34096 55.8919 2.06473 56.1988 1.86663C56.5085 1.66574 56.8433 1.56529 57.2032 1.56529C57.792 1.56529 58.2496 1.75921 58.576 2.14704C58.9025 2.53488 59.0657 3.09012 59.0657 3.81278V4.13504H55.9979C56.009 4.58147 56.1388 4.9428 56.3871 5.21903C56.6382 5.49247 56.9563 5.62918 57.3414 5.62918C57.6148 5.62918 57.8464 5.57338 58.0361 5.46177C58.2258 5.35017 58.3919 5.20229 58.5342 5.01814L59.0071 5.38644C58.6276 5.96959 58.0584 6.26116 57.2995 6.26116ZM57.2032 2.20145C56.8907 2.20145 56.6285 2.31585 56.4164 2.54464C56.2044 2.77065 56.0732 3.08873 56.023 3.49888H58.2914V3.44029C58.2691 3.04687 58.1631 2.74275 57.9733 2.5279C57.7836 2.31027 57.5269 2.20145 57.2032 2.20145Z"
                 fill="#ADB5BD"
                 id="path117" />
              <path
                 d="M62.5165 4.97628C62.5165 4.76702 62.437 4.60519 62.278 4.49079C62.1217 4.3736 61.8469 4.27316 61.4535 4.18945C61.0628 4.10575 60.7517 4.0053 60.5201 3.88811C60.2914 3.77093 60.1212 3.63142 60.0095 3.46959C59.9007 3.30776 59.8463 3.11523 59.8463 2.89202C59.8463 2.52093 60.0026 2.20703 60.3151 1.95033C60.6304 1.69364 61.0321 1.56529 61.5204 1.56529C62.0338 1.56529 62.4496 1.69782 62.7676 1.96289C63.0885 2.22796 63.2489 2.56696 63.2489 2.97991H62.4705C62.4705 2.76786 62.3798 2.5851 62.1984 2.43164C62.0199 2.27818 61.7939 2.20145 61.5204 2.20145C61.2386 2.20145 61.0182 2.26283 60.8592 2.3856C60.7001 2.50837 60.6206 2.66881 60.6206 2.86691C60.6206 3.05385 60.6945 3.19475 60.8424 3.28962C60.9903 3.38449 61.2568 3.47517 61.6418 3.56166C62.0296 3.64816 62.3435 3.75139 62.5835 3.87137C62.8234 3.99135 63.0006 4.13644 63.115 4.30664C63.2322 4.47405 63.2908 4.67913 63.2908 4.92187C63.2908 5.32645 63.129 5.65151 62.8053 5.89704C62.4816 6.13979 62.0617 6.26116 61.5455 6.26116C61.1828 6.26116 60.8619 6.19699 60.5829 6.06864C60.3039 5.94029 60.0849 5.76172 59.9258 5.53292C59.7696 5.30134 59.6915 5.05162 59.6915 4.78376H60.4657C60.4797 5.04325 60.5829 5.24972 60.7754 5.40318C60.9708 5.55385 61.2275 5.62918 61.5455 5.62918C61.8385 5.62918 62.0729 5.57059 62.2487 5.4534C62.4272 5.33343 62.5165 5.17439 62.5165 4.97628Z"
                 fill="#ADB5BD"
                 id="path119" />
              <path
                 d="M65.2642 0.552455V1.649H66.1097V2.24749H65.2642V5.0558C65.2642 5.23716 65.3019 5.37388 65.3772 5.46596C65.4526 5.55525 65.5809 5.59989 65.7623 5.59989C65.8516 5.59989 65.9743 5.58315 66.1306 5.54966V6.17745C65.9269 6.23326 65.7288 6.26116 65.5363 6.26116C65.1903 6.26116 64.9294 6.15653 64.7536 5.94727C64.5779 5.738 64.49 5.44085 64.49 5.0558V2.24749H63.6655V1.649H64.49V0.552455H65.2642Z"
                 fill="#ADB5BD"
                 id="path121" />
              <path
                 d="M66.9489 5.77148C66.9489 5.63756 66.9879 5.52595 67.0661 5.43666C67.147 5.34738 67.267 5.30273 67.426 5.30273C67.585 5.30273 67.705 5.34738 67.7859 5.43666C67.8696 5.52595 67.9115 5.63756 67.9115 5.77148C67.9115 5.89983 67.8696 6.00725 67.7859 6.09375C67.705 6.18025 67.585 6.22349 67.426 6.22349C67.267 6.22349 67.147 6.18025 67.0661 6.09375C66.9879 6.00725 66.9489 5.89983 66.9489 5.77148Z"
                 fill="#ADB5BD"
                 id="path123" />
              <path
                 d="M70.9229 5.62918C71.1991 5.62918 71.4405 5.54548 71.6469 5.37807C71.8534 5.21066 71.9678 5.00139 71.9901 4.75028H72.7225C72.7086 5.00977 72.6193 5.2567 72.4547 5.49107C72.2901 5.72545 72.0696 5.91239 71.7934 6.0519C71.52 6.19141 71.2298 6.26116 70.9229 6.26116C70.3063 6.26116 69.8152 6.05608 69.4497 5.64593C69.0869 5.23298 68.9056 4.66936 68.9056 3.95508V3.82533C68.9056 3.38449 68.9865 2.99247 69.1483 2.64927C69.3102 2.30608 69.5417 2.03962 69.8431 1.84989C70.1472 1.66016 70.5058 1.56529 70.9187 1.56529C71.4265 1.56529 71.8478 1.71735 72.1826 2.02148C72.5203 2.32561 72.7002 2.72042 72.7225 3.20591H71.9901C71.9678 2.91295 71.8562 2.67299 71.6553 2.48605C71.4572 2.29632 71.2117 2.20145 70.9187 2.20145C70.5253 2.20145 70.2198 2.34375 70.0021 2.62835C69.7873 2.91016 69.6799 3.31892 69.6799 3.85463V4.00112C69.6799 4.52288 69.7873 4.92466 70.0021 5.20647C70.217 5.48828 70.5239 5.62918 70.9229 5.62918Z"
                 fill="#ADB5BD"
                 id="path125" />
              <path
                 d="M73.3023 3.87137C73.3023 3.42773 73.3888 3.02874 73.5618 2.67439C73.7376 2.32003 73.9803 2.0466 74.29 1.85407C74.6025 1.66155 74.9583 1.56529 75.3573 1.56529C75.9739 1.56529 76.4719 1.77874 76.8514 2.20564C77.2337 2.63253 77.4248 3.20033 77.4248 3.90904V3.96345C77.4248 4.4043 77.3397 4.8005 77.1695 5.15206C77.0021 5.50084 76.7607 5.77288 76.4454 5.96819C76.1329 6.1635 75.773 6.26116 75.3656 6.26116C74.7518 6.26116 74.2537 6.04771 73.8715 5.62081C73.492 5.19392 73.3023 4.62891 73.3023 3.92578V3.87137ZM74.0807 3.96345C74.0807 4.46568 74.1965 4.86886 74.4281 5.17299C74.6625 5.47712 74.975 5.62918 75.3656 5.62918C75.759 5.62918 76.0715 5.47573 76.3031 5.16881C76.5347 4.8591 76.6505 4.42662 76.6505 3.87137C76.6505 3.37472 76.5319 2.97294 76.2948 2.66602C76.0604 2.35631 75.7479 2.20145 75.3573 2.20145C74.975 2.20145 74.6667 2.35352 74.4323 2.65764C74.1979 2.96177 74.0807 3.39704 74.0807 3.96345Z"
                 fill="#ADB5BD"
                 id="path127" />
              <path
                 d="M79.0383 1.649L79.0592 2.15123C79.3912 1.7606 79.8391 1.56529 80.4027 1.56529C81.0361 1.56529 81.4671 1.80804 81.6959 2.29353C81.8466 2.07589 82.0419 1.90011 82.2819 1.76618C82.5246 1.63225 82.8106 1.56529 83.1398 1.56529C84.1332 1.56529 84.6382 2.09124 84.6549 3.14314V6.17745H83.8806V3.18917C83.8806 2.86551 83.8067 2.62416 83.6588 2.46512C83.5109 2.30329 83.2626 2.22238 82.9138 2.22238C82.6265 2.22238 82.3879 2.30887 82.1982 2.48186C82.0084 2.65206 81.8982 2.88225 81.8675 3.17243V6.17745H81.0891V3.2101C81.0891 2.55162 80.7668 2.22238 80.1223 2.22238C79.6145 2.22238 79.2671 2.43862 79.0801 2.87109V6.17745H78.3059V1.649H79.0383Z"
                 fill="#ADB5BD"
                 id="path129" />
            </g>
          </g>
        </g>
      </g>
      <circle
         id="stroke"
         opacity="0.2"
         cx="110"
         cy="110"
         r="115"
         transform="translate(10 10)"
         stroke="url(#paint1_linear)"
         stroke-width="10" />
    </g>
    <defs
       id="defs148">
      <linearGradient
         id="paint0_linear"
         x2="1"
         gradientUnits="userSpaceOnUse"
         gradientTransform="translate(110 -110) scale(311.127) rotate(45)">
        <stop
           stop-color="#FFD7E9"
           id="stop138" />
        <stop
           offset="1"
           stop-color="#EFB7D1"
           id="stop140" />
      </linearGradient>
      <linearGradient
         id="paint1_linear"
         x2="1"
         gradientUnits="userSpaceOnUse"
         gradientTransform="translate(110 -110) scale(311.127) rotate(45)">
        <stop
           stop-color="#FFEDF5"
           id="stop143" />
        <stop
           offset="1"
           stop-color="#FF5FA8"
           id="stop145" />
      </linearGradient>
    </defs>
  </g>
</svg>
