<?xml version="1.0" encoding="UTF-8" standalone="no"?>
<svg
   xmlns:dc="http://purl.org/dc/elements/1.1/"
   xmlns:cc="http://creativecommons.org/ns#"
   xmlns:rdf="http://www.w3.org/1999/02/22-rdf-syntax-ns#"
   xmlns:svg="http://www.w3.org/2000/svg"
   xmlns="http://www.w3.org/2000/svg"
   xmlns:sodipodi="http://sodipodi.sourceforge.net/DTD/sodipodi-0.dtd"
   xmlns:inkscape="http://www.inkscape.org/namespaces/inkscape"
   width="240"
   height="240"
   viewBox="0 0 240 240"
   fill="none"
   version="1.1"
   id="svg158"
   sodipodi:docname="doc5_1.svg"
   inkscape:version="0.92.3 (3ce5693, 2018-03-11)">
  <metadata
     id="metadata164">
    <rdf:RDF>
      <cc:Work
         rdf:about="">
        <dc:format>image/svg+xml</dc:format>
        <dc:type
           rdf:resource="http://purl.org/dc/dcmitype/StillImage" />
        <dc:title></dc:title>
      </cc:Work>
    </rdf:RDF>
  </metadata>
  <defs
     id="defs162" />
  <sodipodi:namedview
     pagecolor="#ffffff"
     bordercolor="#666666"
     borderopacity="1"
     objecttolerance="10"
     gridtolerance="10"
     guidetolerance="10"
     inkscape:pageopacity="0"
     inkscape:pageshadow="2"
     inkscape:window-width="640"
     inkscape:window-height="480"
     id="namedview160"
     showgrid="false"
     inkscape:zoom="0.98333333"
     inkscape:cx="120"
     inkscape:cy="120"
     inkscape:window-x="63"
     inkscape:window-y="27"
     inkscape:window-maximized="0"
     inkscape:current-layer="svg158" />
  <g
     id="image">
    <g
       id="images">
      <mask
         id="mask0"
         mask-type="alpha"
         maskUnits="userSpaceOnUse"
         x="0"
         y="0"
         width="240"
         height="240">
        <circle
           id="mask"
           cx="110"
           cy="110"
           r="110"
           transform="translate(10 10)"
           fill="url(#paint0_linear)" />
      </mask>
      <g
         mask="url(#mask0)"
         id="g116">
        <g
           id="4 Doc">
          <rect
             id="cover"
             width="195"
             height="195"
             transform="translate(22 26)"
             fill="white" />
          <g
             id="key">
            <rect
               id="dark"
               width="221"
               height="25"
               transform="translate(9 136)"
               fill="#F1F1F1" />
            <rect
               id="cover_2"
               width="221"
               height="23.3333"
               transform="translate(9 136.833)"
               fill="white" />
            <g
               id="Key is exported fo the web app"
               transform="translate(29.4498 144.517)">
              <path
                 d="M1.52509 3.62723L0.791396 4.38977V6.41773H0V0.416307H0.791396V3.38404L3.45824 0.416307H4.41451L2.05268 3.06666L4.59999 6.41773H3.65196L1.52509 3.62723Z"
                 fill="black"
                 id="path7" />
              <path
                 d="M6.91647 6.50016C6.31193 6.50016 5.82006 6.30232 5.44085 5.90662C5.06164 5.50817 4.87203 4.97645 4.87203 4.31146V4.17132C4.87203 3.7289 4.95584 3.33458 5.12347 2.98834C5.29384 2.63936 5.53016 2.36732 5.83242 2.17222C6.13744 1.97437 6.46719 1.87544 6.82167 1.87544C7.40148 1.87544 7.85213 2.06642 8.17364 2.44838C8.49514 2.83034 8.6559 3.37717 8.6559 4.08888V4.40626H5.63458C5.64557 4.84593 5.77334 5.20178 6.01791 5.47382C6.26522 5.74312 6.57848 5.87776 6.95769 5.87776C7.22699 5.87776 7.45506 5.82281 7.64192 5.71289C7.82878 5.60297 7.99228 5.45734 8.13242 5.27597L8.59819 5.6387C8.22447 6.21301 7.6639 6.50016 6.91647 6.50016ZM6.82167 2.50197C6.5139 2.50197 6.2556 2.61463 6.04676 2.83996C5.83792 3.06254 5.70877 3.3758 5.65931 3.77974H7.89335V3.72203C7.87137 3.33458 7.76695 3.03506 7.58009 2.82347C7.39323 2.60913 7.14043 2.50197 6.82167 2.50197Z"
                 fill="black"
                 id="path9" />
              <path
                 d="M10.9435 5.3007L11.9822 1.95788H12.7984L11.0054 7.10608C10.7278 7.84801 10.2868 8.21898 9.68224 8.21898L9.53797 8.20661L9.25356 8.15303V7.53475L9.45966 7.55124C9.71796 7.55124 9.91856 7.49903 10.0614 7.39461C10.2071 7.29019 10.3266 7.09921 10.42 6.82167L10.589 6.36827L8.99801 1.95788H9.83062L10.9435 5.3007Z"
                 fill="black"
                 id="path11" />
              <path
                 d="M16.405 6.41773H15.6424V1.95788H16.405V6.41773ZM15.5806 0.774909C15.5806 0.651253 15.6177 0.546833 15.6919 0.461648C15.7688 0.376463 15.8815 0.33387 16.0299 0.33387C16.1783 0.33387 16.2909 0.376463 16.3679 0.461648C16.4448 0.546833 16.4833 0.651253 16.4833 0.774909C16.4833 0.898564 16.4448 1.00161 16.3679 1.08405C16.2909 1.16648 16.1783 1.2077 16.0299 1.2077C15.8815 1.2077 15.7688 1.16648 15.6919 1.08405C15.6177 1.00161 15.5806 0.898564 15.5806 0.774909Z"
                 fill="black"
                 id="path13" />
              <path
                 d="M20.2259 5.23476C20.2259 5.02866 20.1476 4.86928 19.991 4.75662C19.8371 4.64121 19.5664 4.54228 19.179 4.45985C18.7943 4.37741 18.4879 4.27848 18.2598 4.16307C18.0345 4.04766 17.8669 3.91027 17.757 3.75089C17.6498 3.59151 17.5962 3.4019 17.5962 3.18207C17.5962 2.8166 17.7501 2.50746 18.0578 2.25465C18.3684 2.00185 18.7641 1.87544 19.2449 1.87544C19.7506 1.87544 20.16 2.00597 20.4733 2.26702C20.7893 2.52807 20.9473 2.86194 20.9473 3.26863H20.1806C20.1806 3.05979 20.0913 2.8798 19.9127 2.72867C19.7368 2.57753 19.5142 2.50197 19.2449 2.50197C18.9674 2.50197 18.7503 2.56242 18.5937 2.68333C18.4371 2.80423 18.3587 2.96224 18.3587 3.15734C18.3587 3.34145 18.4316 3.48022 18.5772 3.57365C18.7228 3.66708 18.9853 3.75638 19.3645 3.84157C19.7464 3.92675 20.0556 4.02843 20.2919 4.14659C20.5282 4.26475 20.7027 4.40764 20.8154 4.57526C20.9308 4.74013 20.9885 4.9421 20.9885 5.18117C20.9885 5.57962 20.8291 5.89975 20.5103 6.14156C20.1916 6.38063 19.778 6.50016 19.2697 6.50016C18.9124 6.50016 18.5964 6.43696 18.3216 6.31056C18.0469 6.18416 17.8311 6.00829 17.6745 5.78296C17.5206 5.55489 17.4437 5.30895 17.4437 5.04515H18.2062C18.22 5.3007 18.3216 5.50405 18.5112 5.65518C18.7036 5.80357 18.9564 5.87776 19.2697 5.87776C19.5582 5.87776 19.789 5.82006 19.9621 5.70465C20.138 5.58649 20.2259 5.42986 20.2259 5.23476Z"
                 fill="black"
                 id="path15" />
              <path
                 d="M25.9265 6.50016C25.3219 6.50016 24.8301 6.30232 24.4508 5.90662C24.0716 5.50817 23.882 4.97645 23.882 4.31146V4.17132C23.882 3.7289 23.9658 3.33458 24.1335 2.98834C24.3038 2.63936 24.5401 2.36732 24.8424 2.17222C25.1474 1.97437 25.4772 1.87544 25.8317 1.87544C26.4115 1.87544 26.8621 2.06642 27.1836 2.44838C27.5051 2.83034 27.6659 3.37717 27.6659 4.08888V4.40626H24.6446C24.6556 4.84593 24.7833 5.20178 25.0279 5.47382C25.2752 5.74312 25.5885 5.87776 25.9677 5.87776C26.237 5.87776 26.4651 5.82281 26.6519 5.71289C26.8388 5.60297 27.0023 5.45734 27.1424 5.27597L27.6082 5.6387C27.2345 6.21301 26.6739 6.50016 25.9265 6.50016ZM25.8317 2.50197C25.5239 2.50197 25.2656 2.61463 25.0568 2.83996C24.8479 3.06254 24.7188 3.3758 24.6693 3.77974H26.9033V3.72203C26.8814 3.33458 26.7769 3.03506 26.5901 2.82347C26.4032 2.60913 26.1504 2.50197 25.8317 2.50197Z"
                 fill="black"
                 id="path17" />
              <path
                 d="M30.0483 3.58601L31.0376 1.95788H31.9279L30.4688 4.16307L31.9732 6.41773H31.0912L30.0607 4.74838L29.0302 6.41773H28.144L29.6485 4.16307L28.1894 1.95788H29.0714L30.0483 3.58601Z"
                 fill="black"
                 id="path19" />
              <path
                 d="M36.5073 4.23727C36.5073 4.916 36.352 5.46283 36.0415 5.87776C35.731 6.2927 35.3106 6.50016 34.7802 6.50016C34.2389 6.50016 33.813 6.32842 33.5024 5.98493V8.13242H32.7399V1.95788H33.4365L33.4736 2.4525C33.7841 2.0678 34.2155 1.87544 34.7678 1.87544C35.3037 1.87544 35.7269 2.07741 36.0374 2.48136C36.3506 2.8853 36.5073 3.44724 36.5073 4.16719V4.23727ZM35.7447 4.15071C35.7447 3.64784 35.6376 3.25077 35.4232 2.95949C35.2089 2.66821 34.9149 2.52257 34.5411 2.52257C34.0795 2.52257 33.7333 2.72729 33.5024 3.13673V5.26773C33.7305 5.67442 34.0795 5.87776 34.5494 5.87776C34.9149 5.87776 35.2048 5.7335 35.4191 5.44497C35.6362 5.15369 35.7447 4.72227 35.7447 4.15071Z"
                 fill="black"
                 id="path21" />
              <path
                 d="M37.2781 4.14659C37.2781 3.70967 37.3632 3.31672 37.5336 2.96774C37.7067 2.61875 37.9458 2.34946 38.2508 2.15985C38.5586 1.97025 38.9089 1.87544 39.3019 1.87544C39.9092 1.87544 40.3997 2.08566 40.7734 2.50609C41.1498 2.92652 41.3381 3.48571 41.3381 4.18368V4.23727C41.3381 4.67143 41.2543 5.06164 41.0866 5.40787C40.9218 5.75136 40.6841 6.01928 40.3736 6.21163C40.0658 6.40399 39.7113 6.50016 39.3101 6.50016C38.7056 6.50016 38.2151 6.28995 37.8386 5.86952C37.4649 5.44909 37.2781 4.89264 37.2781 4.20017V4.14659ZM38.0447 4.23727C38.0447 4.73189 38.1588 5.12896 38.3868 5.42848C38.6177 5.728 38.9254 5.87776 39.3101 5.87776C39.6976 5.87776 40.0053 5.72663 40.2334 5.42436C40.4615 5.11934 40.5755 4.69342 40.5755 4.14659C40.5755 3.65746 40.4588 3.26176 40.2252 2.95949C39.9944 2.65447 39.6866 2.50197 39.3019 2.50197C38.9254 2.50197 38.6218 2.65173 38.391 2.95125C38.1601 3.25077 38.0447 3.67944 38.0447 4.23727Z"
                 fill="black"
                 id="path23" />
              <path
                 d="M44.4501 2.64211C44.3347 2.62287 44.2096 2.61326 44.075 2.61326C43.5749 2.61326 43.2355 2.82622 43.0569 3.25214V6.41773H42.2943V1.95788H43.0363L43.0487 2.47311C43.2987 2.07467 43.6532 1.87544 44.1121 1.87544C44.2605 1.87544 44.3731 1.89468 44.4501 1.93315V2.64211Z"
                 fill="black"
                 id="path25" />
              <path
                 d="M46.3956 0.877955V1.95788H47.2282V2.54731H46.3956V5.31307C46.3956 5.49168 46.4327 5.62633 46.5069 5.71701C46.5811 5.80494 46.7075 5.84891 46.8861 5.84891C46.974 5.84891 47.0949 5.83242 47.2488 5.79945V6.41773C47.0482 6.47269 46.8531 6.50016 46.6635 6.50016C46.3228 6.50016 46.0658 6.39712 45.8927 6.19103C45.7196 5.98493 45.6331 5.69228 45.6331 5.31307V2.54731H44.821V1.95788H45.6331V0.877955H46.3956Z"
                 fill="black"
                 id="path27" />
              <path
                 d="M49.9734 6.50016C49.3688 6.50016 48.877 6.30232 48.4977 5.90662C48.1185 5.50817 47.9289 4.97645 47.9289 4.31146V4.17132C47.9289 3.7289 48.0127 3.33458 48.1804 2.98834C48.3507 2.63936 48.5871 2.36732 48.8893 2.17222C49.1943 1.97437 49.5241 1.87544 49.8786 1.87544C50.4584 1.87544 50.909 2.06642 51.2305 2.44838C51.552 2.83034 51.7128 3.37717 51.7128 4.08888V4.40626H48.6915C48.7025 4.84593 48.8302 5.20178 49.0748 5.47382C49.3221 5.74312 49.6354 5.87776 50.0146 5.87776C50.2839 5.87776 50.512 5.82281 50.6988 5.71289C50.8857 5.60297 51.0492 5.45734 51.1893 5.27597L51.6551 5.6387C51.2814 6.21301 50.7208 6.50016 49.9734 6.50016ZM49.8786 2.50197C49.5708 2.50197 49.3125 2.61463 49.1037 2.83996C48.8948 3.06254 48.7657 3.3758 48.7162 3.77974H50.9502V3.72203C50.9283 3.33458 50.8238 3.03506 50.637 2.82347C50.4501 2.60913 50.1973 2.50197 49.8786 2.50197Z"
                 fill="black"
                 id="path29" />
              <path
                 d="M52.4135 4.15071C52.4135 3.46648 52.5756 2.9169 52.8999 2.50197C53.2241 2.08428 53.6487 1.87544 54.1735 1.87544C54.6956 1.87544 55.1092 2.05406 55.4142 2.41128V0.0865589H56.1768V6.41773H55.476L55.4389 5.93959C55.1339 6.31331 54.7094 6.50016 54.1653 6.50016C53.6487 6.50016 53.2269 6.28858 52.8999 5.8654C52.5756 5.44222 52.4135 4.88989 52.4135 4.20841V4.15071ZM53.176 4.23727C53.176 4.74288 53.2805 5.13858 53.4893 5.42436C53.6982 5.71014 53.9867 5.85303 54.3549 5.85303C54.8385 5.85303 55.1916 5.63595 55.4142 5.20178V3.15322C55.1861 2.73279 54.8358 2.52257 54.3631 2.52257C53.9894 2.52257 53.6982 2.66684 53.4893 2.95537C53.2805 3.2439 53.176 3.6712 53.176 4.23727Z"
                 fill="black"
                 id="path31" />
              <path
                 d="M59.8328 6.41773V2.54731H59.128V1.95788H59.8328V1.50036C59.8328 1.02222 59.9606 0.652627 60.2162 0.391576C60.4717 0.130525 60.8331 0 61.3002 0C61.4761 0 61.6506 0.0233572 61.8237 0.0700715L61.7825 0.68835C61.6533 0.663619 61.5159 0.651253 61.3703 0.651253C61.123 0.651253 60.932 0.724072 60.7974 0.869711C60.6627 1.0126 60.5954 1.21869 60.5954 1.48799V1.95788H61.5475V2.54731H60.5954V6.41773H59.8328Z"
                 fill="black"
                 id="path33" />
              <path
                 d="M62.1905 4.14659C62.1905 3.70967 62.2757 3.31672 62.4461 2.96774C62.6192 2.61875 62.8583 2.34946 63.1633 2.15985C63.4711 1.97025 63.8214 1.87544 64.2144 1.87544C64.8217 1.87544 65.3122 2.08566 65.6859 2.50609C66.0623 2.92652 66.2506 3.48571 66.2506 4.18368V4.23727C66.2506 4.67143 66.1668 5.06164 65.9991 5.40787C65.8343 5.75136 65.5966 6.01928 65.2861 6.21163C64.9783 6.40399 64.6238 6.50016 64.2226 6.50016C63.6181 6.50016 63.1276 6.28995 62.7511 5.86952C62.3774 5.44909 62.1905 4.89264 62.1905 4.20017V4.14659ZM62.9572 4.23727C62.9572 4.73189 63.0712 5.12896 63.2993 5.42848C63.5301 5.728 63.8379 5.87776 64.2226 5.87776C64.6101 5.87776 64.9178 5.72663 65.1459 5.42436C65.374 5.11934 65.488 4.69342 65.488 4.14659C65.488 3.65746 65.3712 3.26176 65.1377 2.95949C64.9068 2.65447 64.5991 2.50197 64.2144 2.50197C63.8379 2.50197 63.5343 2.65173 63.3034 2.95125C63.0726 3.25077 62.9572 3.67944 62.9572 4.23727Z"
                 fill="black"
                 id="path35" />
              <path
                 d="M70.3353 0.877955V1.95788H71.1679V2.54731H70.3353V5.31307C70.3353 5.49168 70.3724 5.62633 70.4466 5.71701C70.5208 5.80494 70.6472 5.84891 70.8258 5.84891C70.9138 5.84891 71.0347 5.83242 71.1886 5.79945V6.41773C70.988 6.47269 70.7929 6.50016 70.6032 6.50016C70.2625 6.50016 70.0056 6.39712 69.8325 6.19103C69.6593 5.98493 69.5728 5.69228 69.5728 5.31307V2.54731H68.7608V1.95788H69.5728V0.877955H70.3353Z"
                 fill="black"
                 id="path37" />
              <path
                 d="M72.8249 2.49784C73.1629 2.08291 73.6026 1.87544 74.1439 1.87544C75.0865 1.87544 75.5618 2.40716 75.5701 3.4706V6.41773H74.8075V3.46648C74.8048 3.14497 74.7306 2.90728 74.585 2.7534C74.4421 2.59952 74.2181 2.52257 73.9131 2.52257C73.6658 2.52257 73.4487 2.58852 73.2618 2.72042C73.075 2.85232 72.9294 3.02544 72.8249 3.23978V6.41773H72.0624V0.0865589H72.8249V2.49784Z"
                 fill="black"
                 id="path39" />
              <path
                 d="M78.5626 6.50016C77.958 6.50016 77.4661 6.30232 77.0869 5.90662C76.7077 5.50817 76.5181 4.97645 76.5181 4.31146V4.17132C76.5181 3.7289 76.6019 3.33458 76.7695 2.98834C76.9399 2.63936 77.1762 2.36732 77.4785 2.17222C77.7835 1.97437 78.1133 1.87544 78.4678 1.87544C79.0476 1.87544 79.4982 2.06642 79.8197 2.44838C80.1412 2.83034 80.302 3.37717 80.302 4.08888V4.40626H77.2807C77.2916 4.84593 77.4194 5.20178 77.664 5.47382C77.9113 5.74312 78.2246 5.87776 78.6038 5.87776C78.8731 5.87776 79.1011 5.82281 79.288 5.71289C79.4749 5.60297 79.6384 5.45734 79.7785 5.27597L80.2443 5.6387C79.8706 6.21301 79.31 6.50016 78.5626 6.50016ZM78.4678 2.50197C78.16 2.50197 77.9017 2.61463 77.6928 2.83996C77.484 3.06254 77.3549 3.3758 77.3054 3.77974H79.5394V3.72203C79.5174 3.33458 79.413 3.03506 79.2262 2.82347C79.0393 2.60913 78.7865 2.50197 78.4678 2.50197Z"
                 fill="black"
                 id="path41" />
              <path
                 d="M87.2308 5.36665L88.0882 1.95788H88.8507L87.5523 6.41773H86.934L85.85 3.03781L84.7948 6.41773H84.1765L82.8823 1.95788H83.6407L84.5186 5.29658L85.5573 1.95788H86.1715L87.2308 5.36665Z"
                 fill="black"
                 id="path43" />
              <path
                 d="M91.4804 6.50016C90.8759 6.50016 90.384 6.30232 90.0048 5.90662C89.6256 5.50817 89.436 4.97645 89.436 4.31146V4.17132C89.436 3.7289 89.5198 3.33458 89.6874 2.98834C89.8578 2.63936 90.0941 2.36732 90.3964 2.17222C90.7014 1.97437 91.0312 1.87544 91.3856 1.87544C91.9654 1.87544 92.4161 2.06642 92.7376 2.44838C93.0591 2.83034 93.2199 3.37717 93.2199 4.08888V4.40626H90.1985C90.2095 4.84593 90.3373 5.20178 90.5819 5.47382C90.8292 5.74312 91.1424 5.87776 91.5217 5.87776C91.791 5.87776 92.019 5.82281 92.2059 5.71289C92.3927 5.60297 92.5563 5.45734 92.6964 5.27597L93.1622 5.6387C92.7884 6.21301 92.2279 6.50016 91.4804 6.50016ZM91.3856 2.50197C91.0779 2.50197 90.8196 2.61463 90.6107 2.83996C90.4019 3.06254 90.2727 3.3758 90.2233 3.77974H92.4573V3.72203C92.4353 3.33458 92.3309 3.03506 92.1441 2.82347C91.9572 2.60913 91.7044 2.50197 91.3856 2.50197Z"
                 fill="black"
                 id="path45" />
              <path
                 d="M97.8817 4.23727C97.8817 4.91875 97.7251 5.46695 97.4118 5.88189C97.0985 6.29407 96.6781 6.50016 96.1505 6.50016C95.5872 6.50016 95.1516 6.30094 94.8439 5.9025L94.8068 6.41773H94.1061V0.0865589H94.8686V2.44838C95.1764 2.06642 95.6009 1.87544 96.1423 1.87544C96.6836 1.87544 97.1081 2.08016 97.4159 2.4896C97.7264 2.89904 97.8817 3.45961 97.8817 4.17132V4.23727ZM97.1191 4.15071C97.1191 3.63135 97.0188 3.23016 96.8182 2.94713C96.6176 2.66409 96.3291 2.52257 95.9527 2.52257C95.4498 2.52257 95.0884 2.75615 94.8686 3.22329V5.15232C95.1022 5.61946 95.4663 5.85303 95.9609 5.85303C96.3264 5.85303 96.6108 5.71152 96.8141 5.42848C97.0175 5.14545 97.1191 4.71952 97.1191 4.15071Z"
                 fill="black"
                 id="path47" />
              <path
                 d="M103.693 6.41773C103.65 6.32979 103.614 6.17316 103.586 5.94784C103.232 6.31605 102.809 6.50016 102.317 6.50016C101.877 6.50016 101.516 6.37651 101.233 6.1292C100.952 5.87914 100.812 5.56313 100.812 5.18117C100.812 4.71678 100.988 4.3568 101.34 4.10124C101.694 3.84294 102.192 3.71379 102.832 3.71379H103.574V3.36343C103.574 3.09689 103.494 2.8853 103.335 2.72867C103.176 2.56929 102.941 2.4896 102.63 2.4896C102.358 2.4896 102.13 2.5583 101.946 2.69569C101.762 2.83309 101.67 2.99934 101.67 3.19444H100.903C100.903 2.97186 100.981 2.75752 101.138 2.55143C101.297 2.34259 101.512 2.17771 101.781 2.05681C102.053 1.9359 102.351 1.87544 102.675 1.87544C103.189 1.87544 103.592 2.0046 103.883 2.2629C104.174 2.51845 104.326 2.87156 104.337 3.32221V5.3749C104.337 5.78434 104.389 6.10996 104.493 6.35178V6.41773H103.693ZM102.428 5.83655C102.667 5.83655 102.894 5.77472 103.108 5.65106C103.323 5.52741 103.478 5.36665 103.574 5.16881V4.25375H102.976C102.042 4.25375 101.575 4.52717 101.575 5.074C101.575 5.31307 101.655 5.49993 101.814 5.63457C101.973 5.76922 102.178 5.83655 102.428 5.83655Z"
                 fill="black"
                 id="path49" />
              <path
                 d="M109.299 4.23727C109.299 4.916 109.144 5.46283 108.833 5.87776C108.523 6.2927 108.103 6.50016 107.572 6.50016C107.031 6.50016 106.605 6.32842 106.294 5.98493V8.13242H105.532V1.95788H106.228L106.266 2.4525C106.576 2.0678 107.007 1.87544 107.56 1.87544C108.096 1.87544 108.519 2.07741 108.829 2.48136C109.143 2.8853 109.299 3.44724 109.299 4.16719V4.23727ZM108.537 4.15071C108.537 3.64784 108.43 3.25077 108.215 2.95949C108.001 2.66821 107.707 2.52257 107.333 2.52257C106.871 2.52257 106.525 2.72729 106.294 3.13673V5.26773C106.522 5.67442 106.871 5.87776 107.341 5.87776C107.707 5.87776 107.997 5.7335 108.211 5.44497C108.428 5.15369 108.537 4.72227 108.537 4.15071Z"
                 fill="black"
                 id="path51" />
              <path
                 d="M114.039 4.23727C114.039 4.916 113.884 5.46283 113.574 5.87776C113.263 6.2927 112.843 6.50016 112.312 6.50016C111.771 6.50016 111.345 6.32842 111.035 5.98493V8.13242H110.272V1.95788H110.969L111.006 2.4525C111.316 2.0678 111.748 1.87544 112.3 1.87544C112.836 1.87544 113.259 2.07741 113.569 2.48136C113.883 2.8853 114.039 3.44724 114.039 4.16719V4.23727ZM113.277 4.15071C113.277 3.64784 113.17 3.25077 112.955 2.95949C112.741 2.66821 112.447 2.52257 112.073 2.52257C111.612 2.52257 111.265 2.72729 111.035 3.13673V5.26773C111.263 5.67442 111.612 5.87776 112.081 5.87776C112.447 5.87776 112.737 5.7335 112.951 5.44497C113.168 5.15369 113.277 4.72227 113.277 4.15071Z"
                 fill="black"
                 id="path53" />
            </g>
            <g
               id="Group">
              <mask
                 id="mask1"
                 mask-type="alpha"
                 maskUnits="userSpaceOnUse"
                 x="184"
                 y="139"
                 width="28"
                 height="18">
                <rect
                   id="Rectangle"
                   width="27.013"
                   height="16.8831"
                   rx="8.44156"
                   transform="translate(184.078 139.961)"
                   fill="url(#paint1_linear)" />
              </mask>
              <g
                 mask="url(#mask1)"
                 id="g62">
                <rect
                   id="Rectangle_2"
                   width="27.013"
                   height="16.8831"
                   rx="8.44156"
                   transform="translate(184.078 139.961)"
                   fill="url(#paint2_linear)" />
                <g
                   id="Rectangle_3"
                   filter="url(#filter0_d)">
                  <rect
                     width="14.301"
                     height="14.7047"
                     rx="7.1505"
                     transform="translate(195.731 141.05)"
                     fill="white"
                     id="rect59" />
                </g>
              </g>
            </g>
          </g>
          <g
             id="Cryptography configuration"
             transform="translate(29.9832 86.7792)">
            <path
               d="M9.53797 8.75482C9.41706 10.0353 8.94442 11.0356 8.12005 11.7555C7.29568 12.47 6.19927 12.8272 4.83081 12.8272C3.87454 12.8272 3.03094 12.6019 2.29999 12.1512C1.57455 11.6951 1.01398 11.0493 0.618278 10.214C0.22258 9.37859 0.0164874 8.40858 0 7.30393V6.18278C0 5.05065 0.200597 4.05316 0.601791 3.19032C1.00298 2.32747 1.5773 1.66248 2.32473 1.19534C3.07765 0.728194 3.94599 0.494623 4.92974 0.494623C6.25423 0.494623 7.32041 0.854598 8.1283 1.57455C8.93618 2.2945 9.40607 3.31122 9.53797 4.62472H7.46056C7.36163 3.76188 7.10883 3.14085 6.70214 2.76164C6.30094 2.37694 5.71014 2.18458 4.92974 2.18458C4.02293 2.18458 3.32496 2.51708 2.83584 3.18207C2.35221 3.84157 2.10489 4.81158 2.0939 6.0921V7.15554C2.0939 8.45255 2.32473 9.44179 2.78637 10.1233C3.25352 10.8048 3.935 11.1455 4.83081 11.1455C5.64969 11.1455 6.26522 10.9614 6.6774 10.5932C7.08959 10.2249 7.35064 9.61216 7.46056 8.75482H9.53797Z"
               fill="black"
               id="path66" />
            <path
               d="M15.8856 5.57275C15.6218 5.52878 15.3498 5.5068 15.0695 5.5068C14.1517 5.5068 13.5334 5.85853 13.2147 6.56199V12.6623H11.2114V3.74264H13.124L13.1734 4.74013C13.6571 3.96522 14.3276 3.57777 15.1849 3.57777C15.4707 3.57777 15.707 3.61624 15.8939 3.69318L15.8856 5.57275Z"
               fill="black"
               id="path68" />
            <path
               d="M20.4197 9.79353L22.2333 3.74264H24.3684L20.8236 14.0143C20.2795 15.5147 19.3562 16.2648 18.0537 16.2648C17.7624 16.2648 17.4409 16.2154 17.0892 16.1165V14.5666L17.4684 14.5914C17.974 14.5914 18.3532 14.4979 18.6061 14.3111C18.8644 14.1297 19.0677 13.822 19.2161 13.3878L19.5046 12.6211L16.372 3.74264H18.5319L20.4197 9.79353Z"
               fill="black"
               id="path70" />
            <path
               d="M33.3376 8.29317C33.3376 9.67262 33.0243 10.7745 32.3978 11.5989C31.7713 12.4178 30.9304 12.8272 29.8752 12.8272C28.8969 12.8272 28.1138 12.5057 27.5257 11.8627V16.0917H25.5225V3.74264H27.3691L27.4516 4.64945C28.0396 3.935 28.8392 3.57777 29.8505 3.57777C30.9386 3.57777 31.7905 3.98446 32.406 4.79784C33.027 5.60572 33.3376 6.72961 33.3376 8.16952V8.29317ZM31.3426 8.12005C31.3426 7.22973 31.164 6.52352 30.8067 6.00142C30.455 5.47932 29.9494 5.21827 29.2899 5.21827C28.471 5.21827 27.883 5.55626 27.5257 6.23224V10.1892C27.8885 10.8817 28.482 11.2279 29.3064 11.2279C29.9439 11.2279 30.4413 10.9724 30.7985 10.4613C31.1612 9.94466 31.3426 9.16426 31.3426 8.12005Z"
               fill="black"
               id="path72" />
            <path
               d="M37.5501 1.57455V3.74264H39.1246V5.22651H37.5501V10.2057C37.5501 10.5465 37.616 10.7938 37.7479 10.9476C37.8853 11.096 38.1272 11.1702 38.4734 11.1702C38.7042 11.1702 38.9378 11.1427 39.1741 11.0878V12.6376C38.718 12.764 38.2783 12.8272 37.8551 12.8272C36.3163 12.8272 35.5469 11.9781 35.5469 10.2799V5.22651H34.0795V3.74264H35.5469V1.57455H37.5501Z"
               fill="black"
               id="path74" />
            <path
               d="M40.0397 8.12005C40.0397 7.24622 40.2128 6.46032 40.5591 5.76235C40.9053 5.05889 41.3917 4.5203 42.0182 4.14659C42.6447 3.76737 43.3647 3.57777 44.178 3.57777C45.3816 3.57777 46.3571 3.96522 47.1046 4.74013C47.8575 5.51504 48.2642 6.54276 48.3246 7.82328L48.3329 8.29317C48.3329 9.1725 48.1625 9.9584 47.8218 10.6509C47.4865 11.3433 47.0029 11.8792 46.3709 12.2584C45.7443 12.6376 45.0189 12.8272 44.1945 12.8272C42.936 12.8272 41.9275 12.4095 41.1691 11.5742C40.4162 10.7333 40.0397 9.61491 40.0397 8.21898V8.12005ZM42.0429 8.29317C42.0429 9.21097 42.2325 9.93092 42.6117 10.453C42.9909 10.9696 43.5185 11.2279 44.1945 11.2279C44.8705 11.2279 45.3954 10.9641 45.7691 10.4365C46.1483 9.90894 46.3379 9.13678 46.3379 8.12005C46.3379 7.21874 46.1428 6.50429 45.7526 5.97669C45.3679 5.44909 44.843 5.18529 44.178 5.18529C43.524 5.18529 43.0047 5.44634 42.62 5.96845C42.2353 6.48505 42.0429 7.25996 42.0429 8.29317Z"
               fill="black"
               id="path76" />
            <path
               d="M49.6766 8.13654C49.6766 6.7516 50.0008 5.64694 50.6493 4.82257C51.3034 3.9927 52.1689 3.57777 53.2461 3.57777C54.2628 3.57777 55.0625 3.93225 55.645 4.64121L55.7357 3.74264H57.5411V12.3903C57.5411 13.5609 57.1756 14.4842 56.4447 15.1602C55.7192 15.8362 54.7382 16.1742 53.5017 16.1742C52.8477 16.1742 52.2074 16.0368 51.5809 15.762C50.9599 15.4927 50.4872 15.1382 50.163 14.6985L51.111 13.495C51.7265 14.2259 52.485 14.5914 53.3863 14.5914C54.0513 14.5914 54.5761 14.41 54.9608 14.0473C55.3455 13.6901 55.5379 13.1625 55.5379 12.4645V11.8627C54.9608 12.5057 54.1914 12.8272 53.2296 12.8272C52.1854 12.8272 51.3308 12.4123 50.6658 11.5824C50.0063 10.7525 49.6766 9.60392 49.6766 8.13654ZM51.6716 8.30966C51.6716 9.20547 51.8529 9.91169 52.2157 10.4283C52.5839 10.9394 53.0922 11.195 53.7407 11.195C54.5486 11.195 55.1477 10.8487 55.5379 10.1562V6.23224C55.1587 5.55626 54.5651 5.21827 53.7572 5.21827C53.0977 5.21827 52.5839 5.47932 52.2157 6.00142C51.8529 6.52352 51.6716 7.29293 51.6716 8.30966Z"
               fill="black"
               id="path78" />
            <path
               d="M64.2762 5.57275C64.0124 5.52878 63.7404 5.5068 63.4601 5.5068C62.5423 5.5068 61.924 5.85853 61.6052 6.56199V12.6623H59.602V3.74264H61.5146L61.564 4.74013C62.0477 3.96522 62.7181 3.57777 63.5755 3.57777C63.8613 3.57777 64.0976 3.61624 64.2844 3.69318L64.2762 5.57275Z"
               fill="black"
               id="path80" />
            <path
               d="M70.6239 12.6623C70.5359 12.492 70.459 12.2144 70.393 11.8297C69.7555 12.4947 68.9751 12.8272 68.0518 12.8272C67.156 12.8272 66.4251 12.5717 65.859 12.0605C65.2929 11.5494 65.0099 10.9174 65.0099 10.1645C65.0099 9.21372 65.3616 8.48552 66.0651 7.97991C66.774 7.4688 67.7853 7.21325 69.0988 7.21325H70.3271V6.62794C70.3271 6.16629 70.1979 5.79808 69.9396 5.52328C69.6813 5.243 69.2884 5.10286 68.7608 5.10286C68.3046 5.10286 67.9309 5.21827 67.6396 5.44909C67.3484 5.67442 67.2027 5.96295 67.2027 6.31468H65.1995C65.1995 5.82555 65.3616 5.3694 65.6859 4.94623C66.0101 4.51755 66.4498 4.18231 67.0049 3.94049C67.5654 3.69868 68.1892 3.57777 68.8762 3.57777C69.9204 3.57777 70.753 3.84157 71.374 4.36917C71.9951 4.89127 72.3138 5.62771 72.3303 6.57848V10.6014C72.3303 11.4038 72.443 12.0441 72.6683 12.5222V12.6623H70.6239ZM68.4228 11.2197C68.8185 11.2197 69.1895 11.1235 69.5357 10.9312C69.8874 10.7388 70.1512 10.4805 70.3271 10.1562V8.47453H69.2472C68.5052 8.47453 67.9474 8.60368 67.5737 8.86199C67.2 9.12029 67.0131 9.48576 67.0131 9.9584C67.0131 10.3431 67.1395 10.6509 67.3923 10.8817C67.6506 11.107 67.9941 11.2197 68.4228 11.2197Z"
               fill="black"
               id="path82" />
            <path
               d="M82.2392 8.29317C82.2392 9.67262 81.926 10.7745 81.2995 11.5989C80.6729 12.4178 79.8321 12.8272 78.7769 12.8272C77.7986 12.8272 77.0155 12.5057 76.4274 11.8627V16.0917H74.4242V3.74264H76.2708L76.3532 4.64945C76.9413 3.935 77.7409 3.57777 78.7522 3.57777C79.8403 3.57777 80.6922 3.98446 81.3077 4.79784C81.9287 5.60572 82.2392 6.72961 82.2392 8.16952V8.29317ZM80.2443 8.12005C80.2443 7.22973 80.0657 6.52352 79.7084 6.00142C79.3567 5.47932 78.8511 5.21827 78.1916 5.21827C77.3727 5.21827 76.7847 5.55626 76.4274 6.23224V10.1892C76.7902 10.8817 77.3837 11.2279 78.2081 11.2279C78.8456 11.2279 79.343 10.9724 79.7002 10.4613C80.0629 9.94466 80.2443 9.16426 80.2443 8.12005Z"
               fill="black"
               id="path84" />
            <path
               d="M85.9159 4.7154C86.5699 3.95698 87.3971 3.57777 88.3973 3.57777C90.2988 3.57777 91.2634 4.66319 91.2908 6.83403V12.6623H89.2876V6.90823C89.2876 6.2927 89.153 5.85853 88.8837 5.60572C88.6199 5.34742 88.2297 5.21827 87.7131 5.21827C86.9107 5.21827 86.3116 5.5755 85.9159 6.28995V12.6623H83.9127V0H85.9159V4.7154Z"
               fill="black"
               id="path86" />
            <path
               d="M96.4432 9.79353L98.2568 3.74264H100.392L96.8471 14.0143C96.303 15.5147 95.3797 16.2648 94.0772 16.2648C93.7859 16.2648 93.4644 16.2154 93.1127 16.1165V14.5666L93.4919 14.5914C93.9975 14.5914 94.3767 14.4979 94.6295 14.3111C94.8878 14.1297 95.0912 13.822 95.2396 13.3878L95.5281 12.6211L92.3955 3.74264H94.5553L96.4432 9.79353Z"
               fill="black"
               id="path88" />
            <path
               d="M4.32795 34.8643C4.82807 34.8643 5.243 34.7187 5.57275 34.4274C5.9025 34.1361 6.07836 33.7761 6.10035 33.3475H7.98815C7.96617 33.9025 7.79305 34.4219 7.4688 34.9055C7.14455 35.3836 6.70488 35.7629 6.14981 36.0431C5.59473 36.3234 4.99569 36.4636 4.35268 36.4636C3.10513 36.4636 2.11589 36.0596 1.38494 35.2517C0.654001 34.4439 0.28853 33.3282 0.28853 31.9048V31.6987C0.28853 30.3412 0.651253 29.2558 1.3767 28.4424C2.10215 27.6236 3.09139 27.2141 4.34443 27.2141C5.40513 27.2141 6.26797 27.5246 6.93296 28.1457C7.60345 28.7612 7.95518 29.5718 7.98815 30.5776H6.10035C6.07836 30.0665 5.9025 29.646 5.57275 29.3163C5.2485 28.9865 4.83356 28.8217 4.32795 28.8217C3.67944 28.8217 3.17932 29.058 2.82759 29.5306C2.47586 29.9978 2.29725 30.7095 2.29175 31.6657V31.9872C2.29175 32.9545 2.46487 33.6772 2.81111 34.1553C3.16284 34.628 3.66845 34.8643 4.32795 34.8643Z"
               fill="black"
               id="path90" />
            <path
               d="M9.12579 31.7564C9.12579 30.8826 9.2989 30.0967 9.64514 29.3987C9.99138 28.6953 10.4778 28.1567 11.1043 27.7829C11.7308 27.4037 12.4507 27.2141 13.2641 27.2141C14.4677 27.2141 15.4432 27.6016 16.1906 28.3765C16.9436 29.1514 17.3503 30.1791 17.4107 31.4596L17.419 31.9295C17.419 32.8089 17.2486 33.5948 16.9078 34.2872C16.5726 34.9797 16.089 35.5155 15.457 35.8948C14.8304 36.274 14.105 36.4636 13.2806 36.4636C12.0221 36.4636 11.0136 36.0459 10.2552 35.2105C9.50225 34.3697 9.12579 33.2513 9.12579 31.8553V31.7564ZM11.129 31.9295C11.129 32.8473 11.3186 33.5673 11.6978 34.0894C12.077 34.606 12.6046 34.8643 13.2806 34.8643C13.9566 34.8643 14.4814 34.6005 14.8552 34.0729C15.2344 33.5453 15.424 32.7731 15.424 31.7564C15.424 30.8551 15.2289 30.1406 14.8387 29.6131C14.454 29.0855 13.9291 28.8217 13.2641 28.8217C12.6101 28.8217 12.0908 29.0827 11.7061 29.6048C11.3214 30.1214 11.129 30.8963 11.129 31.9295Z"
               fill="black"
               id="path92" />
            <path
               d="M20.972 27.379L21.0297 28.4095C21.6892 27.6126 22.5548 27.2141 23.6265 27.2141C25.4841 27.2141 26.4293 28.2776 26.4623 30.4044V36.2987H24.4591V30.5199C24.4591 29.9538 24.3354 29.5361 24.0881 29.2668C23.8463 28.992 23.4479 28.8546 22.8928 28.8546C22.0849 28.8546 21.4831 29.2201 21.0874 29.951V36.2987H19.0842V27.379H20.972Z"
               fill="black"
               id="path94" />
            <path
               d="M29.0426 36.2987V28.8629H27.6824V27.379H29.0426V26.769C29.0481 26.071 29.1965 25.472 29.4877 24.9718C29.779 24.4717 30.1912 24.0953 30.7243 23.8425C31.2574 23.5896 31.8977 23.4632 32.6451 23.4632C33.0848 23.4632 33.5052 23.51 33.9064 23.6034C34.3131 23.6968 34.7335 23.815 35.1677 23.9579L34.8626 25.6149C34.1042 25.3511 33.4118 25.2192 32.7852 25.2192C32.1752 25.2192 31.7328 25.3538 31.458 25.6231C31.1832 25.8869 31.0458 26.2853 31.0458 26.8184V27.379H32.8017V28.8629H31.0458V36.2987H29.0426ZM36.1157 36.2987H34.1125V27.379H36.1157V36.2987Z"
               fill="black"
               id="path96" />
            <path
               d="M37.987 31.7729C37.987 30.388 38.3113 29.2833 38.9598 28.4589C39.6138 27.6291 40.4794 27.2141 41.5565 27.2141C42.5733 27.2141 43.3729 27.5686 43.9555 28.2776L44.0461 27.379H45.8515V36.0267C45.8515 37.1973 45.486 38.1206 44.7551 38.7965C44.0297 39.4725 43.0487 39.8105 41.8121 39.8105C41.1581 39.8105 40.5178 39.6731 39.8913 39.3983C39.2703 39.129 38.7976 38.7746 38.4734 38.3349L39.4214 37.1313C40.0369 37.8623 40.7954 38.2277 41.6967 38.2277C42.3617 38.2277 42.8865 38.0464 43.2712 37.6836C43.6559 37.3264 43.8483 36.7988 43.8483 36.1008V35.4991C43.2712 36.1421 42.5018 36.4636 41.5401 36.4636C40.4958 36.4636 39.6413 36.0486 38.9763 35.2188C38.3168 34.3889 37.987 33.2403 37.987 31.7729ZM39.982 31.946C39.982 32.8418 40.1634 33.548 40.5261 34.0647C40.8943 34.5758 41.4027 34.8313 42.0512 34.8313C42.859 34.8313 43.4581 34.4851 43.8483 33.7926V29.8686C43.4691 29.1926 42.8755 28.8546 42.0676 28.8546C41.4082 28.8546 40.8943 29.1157 40.5261 29.6378C40.1634 30.1599 39.982 30.9293 39.982 31.946Z"
               fill="black"
               id="path98" />
            <path
               d="M53.3203 35.4249C52.7323 36.1173 51.8969 36.4636 50.8142 36.4636C49.847 36.4636 49.1133 36.1805 48.6132 35.6145C48.1185 35.0484 47.8712 34.2295 47.8712 33.1578V27.379H49.8744V33.1331C49.8744 34.2653 50.3443 34.8313 51.2841 34.8313C52.2569 34.8313 52.9136 34.4823 53.2544 33.7844V27.379H55.2576V36.2987H53.3698L53.3203 35.4249Z"
               fill="black"
               id="path100" />
            <path
               d="M61.968 29.2091C61.7042 29.1651 61.4321 29.1432 61.1518 29.1432C60.234 29.1432 59.6158 29.4949 59.297 30.1984V36.2987H57.2938V27.379H59.2063L59.2558 28.3765C59.7394 27.6016 60.4099 27.2141 61.2673 27.2141C61.553 27.2141 61.7893 27.2526 61.9762 27.3295L61.968 29.2091Z"
               fill="black"
               id="path102" />
            <path
               d="M68.3156 36.2987C68.2277 36.1283 68.1507 35.8508 68.0848 35.4661C67.4473 36.1311 66.6669 36.4636 65.7436 36.4636C64.8478 36.4636 64.1168 36.208 63.5508 35.6969C62.9847 35.1858 62.7017 34.5538 62.7017 33.8009C62.7017 32.8501 63.0534 32.1219 63.7568 31.6163C64.4658 31.1052 65.477 30.8496 66.7905 30.8496H68.0188V30.2643C68.0188 29.8027 67.8897 29.4344 67.6314 29.1596C67.3731 28.8794 66.9801 28.7392 66.4525 28.7392C65.9964 28.7392 65.6227 28.8546 65.3314 29.0855C65.0401 29.3108 64.8945 29.5993 64.8945 29.951H62.8913C62.8913 29.4619 63.0534 29.0058 63.3776 28.5826C63.7019 28.1539 64.1416 27.8187 64.6966 27.5769C65.2572 27.335 65.881 27.2141 66.568 27.2141C67.6122 27.2141 68.4448 27.4779 69.0658 28.0055C69.6868 28.5276 70.0056 29.2641 70.0221 30.2148V34.2378C70.0221 35.0402 70.1347 35.6804 70.3601 36.1586V36.2987H68.3156ZM66.1145 34.856C66.5102 34.856 66.8812 34.7599 67.2274 34.5675C67.5792 34.3752 67.843 34.1169 68.0188 33.7926V32.1109H66.9389C66.197 32.1109 65.6392 32.24 65.2654 32.4983C64.8917 32.7567 64.7049 33.1221 64.7049 33.5948C64.7049 33.9795 64.8313 34.2872 65.0841 34.5181C65.3424 34.7434 65.6859 34.856 66.1145 34.856Z"
               fill="black"
               id="path104" />
            <path
               d="M74.6303 25.2109V27.379H76.2048V28.8629H74.6303V33.8421C74.6303 34.1828 74.6963 34.4301 74.8281 34.584C74.9655 34.7324 75.2074 34.8066 75.5536 34.8066C75.7844 34.8066 76.018 34.7791 76.2543 34.7242V36.274C75.7982 36.4004 75.3585 36.4636 74.9353 36.4636C73.3965 36.4636 72.6271 35.6145 72.6271 33.9163V28.8629H71.1597V27.379H72.6271V25.2109H74.6303Z"
               fill="black"
               id="path106" />
            <path
               d="M79.8733 36.2987H77.8701V27.379H79.8733V36.2987ZM77.7464 25.0625C77.7464 24.7548 77.8426 24.4992 78.035 24.2959C78.2328 24.0925 78.5131 23.9908 78.8758 23.9908C79.2385 23.9908 79.5188 24.0925 79.7167 24.2959C79.9145 24.4992 80.0134 24.7548 80.0134 25.0625C80.0134 25.3648 79.9145 25.6176 79.7167 25.8209C79.5188 26.0188 79.2385 26.1177 78.8758 26.1177C78.5131 26.1177 78.2328 26.0188 78.035 25.8209C77.8426 25.6176 77.7464 25.3648 77.7464 25.0625Z"
               fill="black"
               id="path108" />
            <path
               d="M81.6869 31.7564C81.6869 30.8826 81.86 30.0967 82.2063 29.3987C82.5525 28.6953 83.0389 28.1567 83.6654 27.7829C84.2919 27.4037 85.0119 27.2141 85.8253 27.2141C87.0288 27.2141 88.0043 27.6016 88.7518 28.3765C89.5047 29.1514 89.9114 30.1791 89.9718 31.4596L89.9801 31.9295C89.9801 32.8089 89.8097 33.5948 89.469 34.2872C89.1337 34.9797 88.6501 35.5155 88.0181 35.8948C87.3916 36.274 86.6661 36.4636 85.8417 36.4636C84.5832 36.4636 83.5747 36.0459 82.8163 35.2105C82.0634 34.3697 81.6869 33.2513 81.6869 31.8553V31.7564ZM83.6901 31.9295C83.6901 32.8473 83.8797 33.5673 84.259 34.0894C84.6382 34.606 85.1658 34.8643 85.8417 34.8643C86.5177 34.8643 87.0426 34.6005 87.4163 34.0729C87.7955 33.5453 87.9851 32.7731 87.9851 31.7564C87.9851 30.8551 87.79 30.1406 87.3998 29.6131C87.0151 29.0855 86.4902 28.8217 85.8253 28.8217C85.1713 28.8217 84.6519 29.0827 84.2672 29.6048C83.8825 30.1214 83.6901 30.8963 83.6901 31.9295Z"
               fill="black"
               id="path110" />
            <path
               d="M93.5331 27.379L93.5908 28.4095C94.2503 27.6126 95.1159 27.2141 96.1876 27.2141C98.0452 27.2141 98.9905 28.2776 99.0234 30.4044V36.2987H97.0202V30.5199C97.0202 29.9538 96.8966 29.5361 96.6492 29.2668C96.4074 28.992 96.009 28.8546 95.4539 28.8546C94.646 28.8546 94.0442 29.2201 93.6485 29.951V36.2987H91.6453V27.379H93.5331Z"
               fill="black"
               id="path112" />
          </g>
        </g>
      </g>
      <circle
         id="stroke"
         opacity="0.2"
         cx="110"
         cy="110"
         r="115"
         transform="translate(10 10)"
         stroke="url(#paint3_linear)"
         stroke-width="10" />
    </g>
    <defs
       id="defs155">
      <filter
         id="filter0_d"
         x="193.731"
         y="140.05"
         width="18.301"
         height="18.7047"
         filterUnits="userSpaceOnUse"
         color-interpolation-filters="sRGB">
        <feFlood
           flood-opacity="0"
           result="BackgroundImageFix"
           id="feFlood120" />
        <feColorMatrix
           in="SourceAlpha"
           type="matrix"
           values="0 0 0 0 0 0 0 0 0 0 0 0 0 0 0 0 0 0 255 0"
           id="feColorMatrix122" />
        <feOffset
           dy="1"
           id="feOffset124" />
        <feGaussianBlur
           stdDeviation="1"
           id="feGaussianBlur126" />
        <feColorMatrix
           type="matrix"
           values="0 0 0 0 0 0 0 0 0 0 0 0 0 0 0 0 0 0 0.2 0"
           id="feColorMatrix128" />
        <feBlend
           mode="normal"
           in2="BackgroundImageFix"
           result="effect1_dropShadow"
           id="feBlend130" />
        <feBlend
           mode="normal"
           in="SourceGraphic"
           in2="effect1_dropShadow"
           result="shape"
           id="feBlend132" />
      </filter>
      <linearGradient
         id="paint0_linear"
         x2="1"
         gradientUnits="userSpaceOnUse"
         gradientTransform="translate(110 -110) scale(311.127) rotate(45)">
        <stop
           stop-color="#FFD7E9"
           id="stop135" />
        <stop
           offset="1"
           stop-color="#EFB7D1"
           id="stop137" />
      </linearGradient>
      <linearGradient
         id="paint1_linear"
         x2="1"
         gradientUnits="userSpaceOnUse"
         gradientTransform="matrix(27.013 16.8831 -27.013 45.6951 13.5065 -22.8475)">
        <stop
           stop-color="#76D571"
           id="stop140" />
        <stop
           offset="1"
           stop-color="#59C753"
           id="stop142" />
      </linearGradient>
      <linearGradient
         id="paint2_linear"
         x2="1"
         gradientUnits="userSpaceOnUse"
         gradientTransform="matrix(27.013 16.8831 -27.013 45.6951 13.5065 -22.8475)">
        <stop
           stop-color="#76D571"
           id="stop145" />
        <stop
           offset="1"
           stop-color="#59C753"
           id="stop147" />
      </linearGradient>
      <linearGradient
         id="paint3_linear"
         x2="1"
         gradientUnits="userSpaceOnUse"
         gradientTransform="translate(110 -110) scale(311.127) rotate(45)">
        <stop
           stop-color="#FFEDF5"
           id="stop150" />
        <stop
           offset="1"
           stop-color="#FF5FA8"
           id="stop152" />
      </linearGradient>
    </defs>
  </g>
</svg>
