<svg width="240" height="240" viewBox="0 0 240 240" fill="none" xmlns="http://www.w3.org/2000/svg">
<mask id="mask0" mask-type="alpha" maskUnits="userSpaceOnUse" x="0" y="0" width="240" height="240">
<circle cx="110" cy="110" r="110" transform="translate(10 10)" fill="url(#paint0_linear)"/>
</mask>
<g mask="url(#mask0)">
<path d="M9.1547 3.80861C10.2066 3.80861 11.059 2.95599 11.059 1.9043C11.059 0.85262 10.2066 0 9.1547 0H1.90427C0.85235 0 0 0.85262 0 1.9043C0 2.95599 0.85235 3.80861 1.90427 3.80861H9.1547Z" transform="translate(131.986 170.219)" fill="#F20F6F" fill-opacity="0.3"/>
<path d="M100.402 81.9973C97.1733 78.3751 96.4535 72.5776 96.257 67.2141C97.835 65.6262 98.8115 63.4403 98.8115 61.0302C98.8115 58.4236 97.6311 55.9993 95.7259 54.3616C94.0036 41.7048 87.3907 30.2955 77.4266 22.7669L77.8869 21.001C78.152 19.9833 77.5421 18.9433 76.5245 18.678C75.5051 18.4132 74.4666 19.0228 74.2013 20.0404L72.2947 27.356C72.021 28.4064 71.109 29.1501 70.0254 29.2067L57.1566 29.8786C53.0715 30.0921 48.9286 30.0921 44.8431 29.8786L31.9748 29.2067C30.8906 29.1501 29.9789 28.4064 29.7052 27.3558L25.272 10.3445C25.0405 9.45607 25.1852 8.54074 25.6796 7.76708C26.1739 6.99343 26.944 6.47749 27.8471 6.31448L32.5428 5.46694C44.79 3.25591 57.2094 3.25617 69.4566 5.46694L74.1523 6.31448C75.0557 6.47749 75.8255 6.99343 76.3198 7.76708C76.8142 8.54074 76.9592 9.45607 76.7274 10.3447L76.4742 11.3165C76.2091 12.3341 76.819 13.3741 77.8369 13.6392C78.8545 13.9038 79.8945 13.2941 80.1596 12.2765L80.4128 11.3048C80.9074 9.40631 80.5851 7.36946 79.5289 5.71627C78.4724 4.06309 76.7594 2.91517 74.8287 2.56681L70.1333 1.71901C57.4371 -0.573005 44.5628 -0.573005 31.8666 1.71901L27.171 2.56656C25.24 2.91517 23.5272 4.06308 22.4707 5.71602C21.4145 7.36921 21.092 9.40605 21.5869 11.3045L24.5738 22.7664C14.6186 30.2886 8.00821 41.6842 6.27863 54.3276C4.37005 55.9434 3.18889 58.353 3.18889 61.0297C3.18889 63.4398 4.16566 65.6257 5.74315 67.2136C5.54663 72.5771 4.82682 78.3746 1.5982 81.9968C0.33554 83.4134 -0.21822 85.3075 0.0783375 87.1946C0.379719 89.1133 1.51238 90.7774 3.1861 91.7608C10.4909 96.0521 18.7435 98.9939 28.297 100.707C21.0438 106.708 16.4109 115.374 15.5689 124.937C15.4552 126.227 15.8934 127.518 16.7719 128.477C17.6583 129.445 18.9192 130 20.2311 130H24.276C25.3279 130 26.1802 129.147 26.1802 128.096C26.1802 127.044 25.3279 126.191 24.276 126.191H20.2311C19.8934 126.191 19.6786 126.012 19.5803 125.905C19.4871 125.803 19.3345 125.585 19.3622 125.271C20.2384 115.321 25.7105 106.456 34.1297 101.18C34.1436 101.171 34.1568 101.162 34.1706 101.153C34.4702 100.966 34.7738 100.784 35.0808 100.606C36.2406 101.122 37.4286 101.581 38.6397 101.985L46.5917 117.375C47.4474 119.031 49.1363 120.06 50.9997 120.06C52.8626 120.06 54.5508 119.032 55.4059 117.377L63.3586 101.985C64.57 101.581 65.758 101.122 66.9178 100.607C67.2238 100.784 67.5267 100.965 67.8253 101.152C67.8403 101.161 67.855 101.171 67.8702 101.18C76.2886 106.457 81.7605 115.321 82.6364 125.271C82.6638 125.585 82.5115 125.803 82.4183 125.905C82.3201 126.012 82.1055 126.191 81.7676 126.191H33.2707C32.2188 126.191 31.3665 127.044 31.3665 128.096C31.3665 129.147 32.2188 130 33.2707 130H81.7686C83.0808 130 84.3416 129.445 85.2278 128.477C86.1063 127.518 86.5445 126.227 86.4307 124.937C85.5888 115.374 80.9558 106.708 73.7026 100.707C83.2559 98.9936 91.509 96.0521 98.8138 91.7608C100.488 90.7777 101.621 89.1131 101.922 87.1946C102.218 85.308 101.664 83.4139 100.402 81.9973ZM91.8549 58.3616C92.3672 58.0554 92.8095 57.6474 93.1503 57.1642C94.2913 58.091 95.0032 59.506 95.0032 61.0297C95.0032 63.1874 93.6187 65.0229 91.6939 65.7084C91.8533 64.171 91.9376 62.6108 91.9376 61.0297C91.9374 60.1496 91.9077 59.2564 91.8549 58.3616ZM25.6224 26.789L26.0203 28.316C26.7145 30.98 29.0278 32.8661 31.7768 33.0095L44.645 33.6813C46.7539 33.7915 48.8771 33.8466 51.0005 33.8466C53.1238 33.8466 55.2472 33.7915 57.3556 33.6813L70.2242 33.0095C72.9729 32.8661 75.2862 30.9795 75.9804 28.316L76.3785 26.7888C84.2538 33.2208 89.652 42.3833 91.5806 52.585C91.3001 52.6477 91.0327 52.7716 90.8022 52.9572C90.3147 53.3492 90.0506 53.9556 90.0961 54.5794L90.1083 54.7234C90.1245 54.9623 89.9204 55.1375 89.7195 55.152C89.7018 55.153 89.6842 55.1548 89.6649 55.1535C85.1165 54.9367 79.6658 52.5357 73.9024 48.2102C69.1001 44.606 65.0293 40.3634 63.0022 37.8256C62.3994 37.0708 61.5011 36.6099 60.5378 36.5609C59.5778 36.5119 58.6432 36.8773 57.9713 37.5626C50.9967 44.6745 33.307 54.9364 13.1665 54.0627C13.1101 54.0602 13.056 54.048 13.0009 54.0257C13.0009 54.0257 13.0007 54.0257 13.0007 54.0254C12.8631 53.9695 12.7564 53.8517 12.7156 53.7108C12.4482 52.7894 11.5362 52.2112 10.5894 52.3603C10.5449 52.3674 10.5015 52.3765 10.4574 52.3841C12.419 42.2629 17.7989 33.1784 25.6224 26.789ZM9.02712 57.0146C9.09593 56.974 9.16169 56.9288 9.22466 56.8801C9.47018 56.7186 9.72992 56.5754 10.0054 56.4586C10.0887 56.5505 10.1791 56.6353 10.27 56.7199C10.1344 58.1483 10.0633 59.5928 10.0633 61.0299C10.0633 62.611 10.1476 64.1713 10.307 65.7087C8.3817 65.0231 6.99768 63.1874 6.99768 61.0299C6.99768 59.3869 7.78325 57.9219 9.02712 57.0146ZM5.11576 88.4775C4.42921 88.0743 3.96457 87.3913 3.84091 86.604C3.72057 85.8372 3.93384 85.1011 4.44165 84.5313C8.00263 80.5361 9.08907 74.8824 9.44504 69.4376C9.91806 69.5798 10.4076 69.6821 10.9103 69.7428C13.134 81.0249 19.5877 90.701 28.4463 96.8618C19.5656 95.2152 11.8922 92.4586 5.11576 88.4775ZM52.0239 115.629C51.7332 116.192 51.2117 116.252 51.001 116.252C50.7897 116.252 50.2672 116.191 49.9762 115.628L43.5977 103.283C45.9996 103.745 48.4734 103.988 51.0005 103.988C53.5278 103.988 56.0013 103.745 58.4032 103.283L52.0239 115.629ZM51.0002 100.18C30.5276 100.18 13.8718 82.6174 13.8718 61.0302C13.8718 59.9882 13.9109 58.9416 13.9891 57.9021C23.1263 58.1443 32.7073 56.2621 41.7495 52.4387C49.1175 49.3235 55.8576 45.0208 60.3364 40.5848C64.5048 45.6498 76.4557 57.4166 88.0702 58.8369C88.1093 59.573 88.1291 60.3066 88.1291 61.0304C88.1291 82.6171 71.4731 100.18 51.0002 100.18ZM98.16 86.604C98.0364 87.3916 97.5717 88.0743 96.8849 88.4775C90.1088 92.4586 82.4356 95.2152 73.5543 96.8616C82.4127 90.7008 88.8667 81.0249 91.0904 69.7425C91.5931 69.6818 92.0826 69.5795 92.5556 69.4373C92.9116 74.8821 93.998 80.5358 97.559 84.5311C98.0668 85.1011 98.2801 85.8372 98.16 86.604Z" transform="translate(69 55)" fill="#F20F6F" fill-opacity="0.3"/>
<path d="M9.12068 23.2292H14.1086C15.6102 23.2292 16.8319 22.0074 16.8319 20.506V16.8323H20.5059C22.0075 16.8323 23.2293 15.6105 23.2293 14.1091V9.1206C23.2293 7.61899 22.0077 6.39719 20.5059 6.39719H16.8319V2.72341C16.8319 1.2218 15.6104 0 14.1086 0H9.12068C7.6191 0 6.39732 1.2218 6.39732 2.72341V6.39719H2.72335C1.22178 6.39719 0 7.61899 0 9.1206V14.1091C0 15.6107 1.22178 16.832 2.72335 16.832H6.39732V20.5058C6.39757 22.0077 7.6191 23.2292 9.12068 23.2292ZM3.80853 13.0237V10.206H7.65135C9.06 10.206 10.2059 9.06017 10.2059 7.65174V3.80886H13.0234V7.65174C13.0234 9.06017 14.1693 10.206 15.5779 10.206H19.4207V13.0242H15.5779C14.1693 13.0242 13.0234 14.17 13.0234 15.5785V19.4214H10.2059V15.578C10.2059 14.1695 9.06 13.0237 7.65135 13.0237H3.80853Z" transform="translate(108.386 60.3118)" fill="#F20F6F" fill-opacity="0.3"/>
<path d="M13.3338 0.468645C12.5403 -0.222236 11.3381 -0.139719 10.647 0.653233C9.72456 1.71177 8.39284 2.31887 6.99333 2.31887C5.59382 2.31887 4.26185 1.71177 3.33967 0.653233C2.6483 -0.139465 1.44557 -0.221982 0.653137 0.468645C-0.139546 1.15978 -0.222319 2.36254 0.468549 3.15549C2.11434 5.04405 4.49264 6.12697 6.99333 6.12697C9.49426 6.12697 11.8723 5.0438 13.5181 3.15549C14.2092 2.36254 14.1265 1.15953 13.3338 0.468645Z" transform="translate(113.007 117.65)" fill="#F20F6F" fill-opacity="0.5"/>
<path d="M1.90427 0C0.85235 0 0 0.85262 0 1.9043V5.10861C0 6.1603 0.85235 7.01292 1.90427 7.01292C2.95618 7.01292 3.80853 6.1603 3.80853 5.10861V1.9043C3.80828 0.85262 2.95593 0 1.90427 0Z" transform="translate(137.399 114.304)" fill="#F20F6F" fill-opacity="0.5"/>
<path d="M1.90427 0C0.85235 0 0 0.85262 0 1.9043V5.10861C0 6.1603 0.85235 7.01292 1.90427 7.01292C2.95618 7.01292 3.80853 6.1603 3.80853 5.10861V1.9043C3.80853 0.85262 2.95618 0 1.90427 0Z" transform="translate(98.7928 114.304)" fill="#F20F6F" fill-opacity="0.5"/>
</g>
<circle opacity="0.2" cx="110" cy="110" r="115" transform="translate(10 10)" stroke="url(#paint1_linear)" stroke-width="10"/>
<defs>
<linearGradient id="paint0_linear" x2="1" gradientUnits="userSpaceOnUse" gradientTransform="translate(110 -110) scale(311.127) rotate(45)">
<stop stop-color="#FFD7E9"/>
<stop offset="1" stop-color="#EFB7D1"/>
</linearGradient>
<linearGradient id="paint1_linear" x2="1" gradientUnits="userSpaceOnUse" gradientTransform="translate(110 -110) scale(311.127) rotate(45)">
<stop stop-color="#FFEDF5"/>
<stop offset="1" stop-color="#FF5FA8"/>
</linearGradient>
</defs>
</svg>
