<?xml version="1.0" encoding="UTF-8" standalone="no"?>
<svg
   xmlns:dc="http://purl.org/dc/elements/1.1/"
   xmlns:cc="http://creativecommons.org/ns#"
   xmlns:rdf="http://www.w3.org/1999/02/22-rdf-syntax-ns#"
   xmlns:svg="http://www.w3.org/2000/svg"
   xmlns="http://www.w3.org/2000/svg"
   xmlns:sodipodi="http://sodipodi.sourceforge.net/DTD/sodipodi-0.dtd"
   xmlns:inkscape="http://www.inkscape.org/namespaces/inkscape"
   width="240"
   height="240"
   viewBox="0 0 240 240"
   fill="none"
   version="1.1"
   id="svg125"
   sodipodi:docname="patient3.svg"
   inkscape:version="0.92.3 (3ce5693, 2018-03-11)">
  <metadata
     id="metadata131">
    <rdf:RDF>
      <cc:Work
         rdf:about="">
        <dc:format>image/svg+xml</dc:format>
        <dc:type
           rdf:resource="http://purl.org/dc/dcmitype/StillImage" />
        <dc:title></dc:title>
      </cc:Work>
    </rdf:RDF>
  </metadata>
  <defs
     id="defs129" />
  <sodipodi:namedview
     pagecolor="#ffffff"
     bordercolor="#666666"
     borderopacity="1"
     objecttolerance="10"
     gridtolerance="10"
     guidetolerance="10"
     inkscape:pageopacity="0"
     inkscape:pageshadow="2"
     inkscape:window-width="640"
     inkscape:window-height="480"
     id="namedview127"
     showgrid="false"
     inkscape:zoom="0.98333333"
     inkscape:cx="120"
     inkscape:cy="120"
     inkscape:window-x="63"
     inkscape:window-y="27"
     inkscape:window-maximized="0"
     inkscape:current-layer="svg125" />
  <g
     id="image">
    <g
       id="images">
      <mask
         id="mask0"
         mask-type="alpha"
         maskUnits="userSpaceOnUse"
         x="10"
         y="10"
         width="220"
         height="220">
        <circle
           id="mask"
           cx="110"
           cy="110"
           r="110"
           transform="translate(10 10)"
           fill="url(#paint0_linear)" />
      </mask>
      <g
         mask="url(#mask0)"
         id="g103">
        <g
           id="3 Pacient">
          <rect
             id="cover"
             width="220"
             height="220"
             transform="translate(10 10)"
             fill="white" />
          <g
             id="images_2">
            <rect
               id="dark"
               width="220"
               height="28.5714"
               transform="translate(10 172.857)"
               fill="#F1F1F1" />
            <rect
               id="cover_2"
               width="220"
               height="26.6667"
               transform="translate(10 173.809)"
               fill="white" />
            <g
               id="Images"
               transform="translate(47.5177 183.229)">
              <path
                 d="M0.892857 6.77083H0V0H0.892857V6.77083Z"
                 fill="black"
                 id="path7" />
              <path
                 d="M3.20406 1.73921L3.22731 2.29725C3.59623 1.86322 4.09381 1.64621 4.72005 1.64621C5.4238 1.64621 5.90278 1.91592 6.15699 2.45536C6.3244 2.21354 6.54142 2.01823 6.80804 1.86942C7.07775 1.72061 7.39552 1.64621 7.76135 1.64621C8.86502 1.64621 9.42615 2.23059 9.44475 3.39937V6.77083H8.58445V3.45052C8.58445 3.0909 8.50229 2.82273 8.33798 2.64602C8.17367 2.46621 7.89776 2.3763 7.51023 2.3763C7.19091 2.3763 6.92584 2.47241 6.71503 2.66462C6.50422 2.85373 6.38176 3.1095 6.34766 3.43192V6.77083H5.4827V3.47377C5.4827 2.74213 5.12463 2.3763 4.40848 2.3763C3.84425 2.3763 3.45827 2.61657 3.25056 3.0971V6.77083H2.39025V1.73921H3.20406Z"
                 fill="black"
                 id="path9" />
              <path
                 d="M13.8532 6.77083C13.8036 6.67163 13.7633 6.49492 13.7323 6.2407C13.3324 6.65613 12.855 6.86384 12.3 6.86384C11.804 6.86384 11.3963 6.72433 11.077 6.44531C10.7608 6.16319 10.6027 5.80667 10.6027 5.37574C10.6027 4.85181 10.8011 4.44568 11.1979 4.15737C11.5978 3.86595 12.159 3.72024 12.8813 3.72024H13.7184V3.32496C13.7184 3.02424 13.6285 2.78553 13.4487 2.60882C13.2688 2.42901 13.0038 2.3391 12.6535 2.3391C12.3465 2.3391 12.0892 2.4166 11.8815 2.57161C11.6738 2.72662 11.5699 2.91419 11.5699 3.1343H10.705C10.705 2.88318 10.7933 2.64137 10.9701 2.40885C11.1499 2.17324 11.3917 1.98723 11.6955 1.85082C12.0024 1.71441 12.3388 1.64621 12.7046 1.64621C13.2844 1.64621 13.7385 1.79191 14.0672 2.08333C14.3958 2.37165 14.5663 2.77003 14.5787 3.27846V5.59431C14.5787 6.05624 14.6376 6.42361 14.7554 6.69643V6.77083H13.8532ZM12.4256 6.11514C12.6953 6.11514 12.9511 6.04539 13.1929 5.90588C13.4347 5.76637 13.6099 5.58501 13.7184 5.36179V4.32943H13.0441C11.99 4.32943 11.463 4.6379 11.463 5.25484C11.463 5.52455 11.5529 5.73537 11.7327 5.88728C11.9125 6.03919 12.1435 6.11514 12.4256 6.11514Z"
                 fill="black"
                 id="path11" />
              <path
                 d="M15.7227 4.21317C15.7227 3.42882 15.904 2.80568 16.2667 2.34375C16.6295 1.87872 17.11 1.64621 17.7083 1.64621C18.3222 1.64621 18.8012 1.86322 19.1453 2.29725L19.1871 1.73921H19.973V6.64993C19.973 7.30097 19.7793 7.81405 19.3917 8.18917C19.0073 8.5643 18.4896 8.75186 17.8385 8.75186C17.4758 8.75186 17.1208 8.67435 16.7736 8.51934C16.4264 8.36434 16.1613 8.15197 15.9784 7.88225L16.4249 7.36607C16.7938 7.8218 17.2449 8.04966 17.7781 8.04966C18.1966 8.04966 18.5221 7.93186 18.7547 7.69624C18.9903 7.46063 19.1081 7.12891 19.1081 6.70108V6.2686C18.764 6.66543 18.2943 6.86384 17.699 6.86384C17.11 6.86384 16.6326 6.62667 16.2667 6.15234C15.904 5.67801 15.7227 5.03162 15.7227 4.21317ZM16.5876 4.31083C16.5876 4.87816 16.7039 5.32459 16.9364 5.65011C17.1689 5.97253 17.4944 6.13374 17.9129 6.13374C18.4555 6.13374 18.8539 5.88728 19.1081 5.39434V3.0971C18.8446 2.61657 18.4493 2.3763 17.9222 2.3763C17.5037 2.3763 17.1766 2.53906 16.941 2.86458C16.7054 3.1901 16.5876 3.67218 16.5876 4.31083Z"
                 fill="black"
                 id="path13" />
              <path
                 d="M23.3631 6.86384C22.6811 6.86384 22.1261 6.64062 21.6983 6.1942C21.2705 5.74467 21.0565 5.14478 21.0565 4.39453V4.23642C21.0565 3.73729 21.1511 3.29241 21.3402 2.90179C21.5324 2.50806 21.799 2.20114 22.1401 1.98103C22.4842 1.75781 22.8562 1.64621 23.2561 1.64621C23.9103 1.64621 24.4187 1.86167 24.7814 2.2926C25.1442 2.72352 25.3255 3.34046 25.3255 4.14341V4.50149H21.9169C21.9293 4.99752 22.0734 5.399 22.3493 5.70591C22.6283 6.00973 22.9818 6.16164 23.4096 6.16164C23.7134 6.16164 23.9707 6.09964 24.1815 5.97563C24.3924 5.85162 24.5768 5.68731 24.7349 5.4827L25.2604 5.89193C24.8388 6.53987 24.2063 6.86384 23.3631 6.86384ZM23.2561 2.35305C22.9089 2.35305 22.6175 2.48016 22.3819 2.73437C22.1463 2.98549 22.0006 3.33891 21.9448 3.79464H24.4652V3.72954C24.4404 3.29241 24.3226 2.95449 24.1118 2.71577C23.901 2.47396 23.6158 2.35305 23.2561 2.35305Z"
                 fill="black"
                 id="path15" />
              <path
                 d="M29.255 5.4362C29.255 5.20368 29.1667 5.02387 28.99 4.89676C28.8163 4.76655 28.511 4.65495 28.0738 4.56194C27.6398 4.46894 27.2941 4.35733 27.0368 4.22712C26.7826 4.09691 26.5935 3.9419 26.4695 3.76209C26.3486 3.58228 26.2881 3.36837 26.2881 3.12035C26.2881 2.70802 26.4617 2.35925 26.809 2.07403C27.1593 1.78881 27.6057 1.64621 28.1483 1.64621C28.7187 1.64621 29.1806 1.79346 29.534 2.08798C29.8906 2.3825 30.0688 2.75918 30.0688 3.21801H29.2039C29.2039 2.98239 29.1031 2.77933 28.9016 2.60882C28.7032 2.43831 28.4521 2.35305 28.1483 2.35305C27.8351 2.35305 27.5902 2.42125 27.4135 2.55766C27.2368 2.69407 27.1484 2.87233 27.1484 3.09245C27.1484 3.30016 27.2306 3.45672 27.3949 3.56213C27.5592 3.66753 27.8553 3.76829 28.2831 3.8644C28.714 3.9605 29.0628 4.07521 29.3294 4.20852C29.596 4.34183 29.7929 4.50304 29.92 4.69215C30.0502 4.87816 30.1153 5.10603 30.1153 5.37574C30.1153 5.82527 29.9355 6.18645 29.5759 6.45926C29.2163 6.72898 28.7497 6.86384 28.1762 6.86384C27.7731 6.86384 27.4166 6.79253 27.1066 6.64993C26.7966 6.50732 26.5532 6.3089 26.3765 6.05469C26.2029 5.79737 26.1161 5.5199 26.1161 5.22228H26.9764C26.9919 5.5106 27.1066 5.74002 27.3205 5.91053C27.5375 6.07794 27.8227 6.16164 28.1762 6.16164C28.5017 6.16164 28.7621 6.09654 28.9574 5.96633C29.1558 5.83302 29.255 5.65631 29.255 5.4362Z"
                 fill="black"
                 id="path17" />
            </g>
          </g>
          <g
             id="study">
            <rect
               id="dark_2"
               width="220"
               height="28.5714"
               transform="translate(10 145.238)"
               fill="#F1F1F1" />
            <rect
               id="cover_3"
               width="220"
               height="26.6667"
               transform="translate(10 146.19)"
               fill="white" />
            <g
               id="Study"
               transform="translate(47.0387 155.238)">
              <path
                 d="M2.40885 4.12481C1.64311 3.9047 1.08507 3.63498 0.734747 3.31566C0.387525 2.99324 0.213914 2.59642 0.213914 2.12519C0.213914 1.59195 0.426277 1.15172 0.851004 0.804501C1.27883 0.454179 1.83377 0.279018 2.51581 0.279018C2.98084 0.279018 3.39472 0.368924 3.75744 0.548735C4.12326 0.728547 4.40538 0.976562 4.60379 1.29278C4.80531 1.609 4.90606 1.95468 4.90606 2.3298H4.00856C4.00856 1.92057 3.87835 1.5997 3.61793 1.36719C3.35751 1.13157 2.99014 1.01376 2.51581 1.01376C2.07558 1.01376 1.73146 1.11142 1.48344 1.30673C1.23853 1.49895 1.11607 1.76711 1.11607 2.11124C1.11607 2.38715 1.23233 2.62122 1.46484 2.81343C1.70046 3.00254 2.09883 3.17615 2.65997 3.33426C3.22421 3.49237 3.66443 3.66753 3.98065 3.85975C4.29998 4.04886 4.53559 4.27052 4.6875 4.52474C4.84251 4.77896 4.92001 5.07812 4.92001 5.42225C4.92001 5.97098 4.7061 6.41121 4.27827 6.74293C3.85045 7.07155 3.27846 7.23586 2.56231 7.23586C2.09728 7.23586 1.66326 7.14751 1.26023 6.9708C0.857205 6.79098 0.545635 6.54607 0.325521 6.23605C0.108507 5.92603 0 5.57416 0 5.18043H0.897507C0.897507 5.58966 1.04787 5.91363 1.34859 6.15234C1.65241 6.38796 2.05698 6.50577 2.56231 6.50577C3.03354 6.50577 3.39472 6.40966 3.64583 6.21745C3.89695 6.02524 4.02251 5.76327 4.02251 5.43155C4.02251 5.09983 3.90625 4.84406 3.67374 4.66425C3.44122 4.48134 3.01959 4.30153 2.40885 4.12481Z"
                 fill="black"
                 id="path23" />
              <path
                 d="M7.101 0.892857V2.11124H8.04036V2.77623H7.101V5.89658C7.101 6.09809 7.14286 6.25 7.22656 6.35231C7.31027 6.45151 7.45288 6.50112 7.65439 6.50112C7.7536 6.50112 7.89001 6.48251 8.06362 6.44531V7.14286C7.8373 7.20486 7.61719 7.23586 7.40327 7.23586C7.01885 7.23586 6.72898 7.11961 6.53367 6.88709C6.33836 6.65458 6.2407 6.3244 6.2407 5.89658V2.77623H5.32459V2.11124H6.2407V0.892857H7.101Z"
                 fill="black"
                 id="path25" />
              <path
                 d="M12.1559 6.64528C11.8211 7.039 11.3297 7.23586 10.6817 7.23586C10.1454 7.23586 9.73617 7.08085 9.45405 6.77083C9.17504 6.45771 9.03398 5.99578 9.03088 5.38504V2.11124H9.89118V5.36179C9.89118 6.12444 10.2012 6.50577 10.8212 6.50577C11.4785 6.50577 11.9156 6.26085 12.1326 5.77102V2.11124H12.9929V7.14286H12.1745L12.1559 6.64528Z"
                 fill="black"
                 id="path27" />
              <path
                 d="M14.0951 4.58519C14.0951 3.81324 14.278 3.1932 14.6438 2.72507C15.0096 2.25384 15.4886 2.01823 16.0807 2.01823C16.6698 2.01823 17.1363 2.21974 17.4805 2.62277V0H18.3408V7.14286H17.5502L17.5084 6.60342C17.1642 7.02505 16.6853 7.23586 16.0714 7.23586C15.4886 7.23586 15.0127 6.99715 14.6438 6.51972C14.278 6.04229 14.0951 5.41915 14.0951 4.6503V4.58519ZM14.9554 4.68285C14.9554 5.25329 15.0732 5.69971 15.3088 6.02214C15.5444 6.34456 15.8699 6.50577 16.2853 6.50577C16.831 6.50577 17.2294 6.26085 17.4805 5.77102V3.45982C17.2232 2.98549 16.8279 2.74833 16.2946 2.74833C15.873 2.74833 15.5444 2.91109 15.3088 3.23661C15.0732 3.56213 14.9554 4.04421 14.9554 4.68285Z"
                 fill="black"
                 id="path29" />
              <path
                 d="M21.3263 5.88263L22.4981 2.11124H23.4189L21.396 7.91946C21.0829 8.75651 20.5853 9.17504 19.9033 9.17504L19.7405 9.16109L19.4196 9.10063V8.40309L19.6522 8.42169C19.9436 8.42169 20.1699 8.36279 20.3311 8.24498C20.4954 8.12717 20.6303 7.91171 20.7357 7.59859L20.9263 7.08705L19.1313 2.11124H20.0707L21.3263 5.88263Z"
                 fill="black"
                 id="path31" />
            </g>
          </g>
          <g
             id="edit">
            <rect
               id="Rectangle"
               x="-0.5"
               y="-0.5"
               width="147"
               height="30"
               rx="3.5"
               transform="translate(47 100)"
               stroke="#F20F6F" />
            <g
               id="Edit profile"
               transform="translate(97.7883 110.379)">
              <path
                 d="M3.82719 4.11086H0.892857V6.51042H4.30153V7.24051H0V0.46968H4.25502V1.20443H0.892857V3.38077H3.82719V4.11086Z"
                 fill="#F20F6F"
                 id="path36" />
              <path
                 d="M4.97582 4.68285C4.97582 3.9109 5.15873 3.29086 5.52455 2.82273C5.89038 2.3515 6.36936 2.11589 6.96149 2.11589C7.55053 2.11589 8.01711 2.3174 8.36123 2.72042V0.0976562H9.22154V7.24051H8.43099L8.38914 6.70108C8.04501 7.12271 7.56603 7.33352 6.95219 7.33352C6.36936 7.33352 5.89348 7.0948 5.52455 6.61737C5.15873 6.13994 4.97582 5.5168 4.97582 4.74795V4.68285ZM5.83612 4.78051C5.83612 5.35094 5.95393 5.79737 6.18955 6.11979C6.42516 6.44221 6.75068 6.60342 7.16611 6.60342C7.71174 6.60342 8.11012 6.35851 8.36123 5.86868V3.55748C8.10392 3.08315 7.70864 2.84598 7.17541 2.84598C6.75378 2.84598 6.42516 3.00874 6.18955 3.33426C5.95393 3.65978 5.83612 4.14187 5.83612 4.78051Z"
                 fill="#F20F6F"
                 id="path38" />
              <path
                 d="M11.4955 7.24051H10.6352V2.20889H11.4955V7.24051ZM10.5655 0.874256C10.5655 0.734747 10.6073 0.616939 10.691 0.520833C10.7778 0.424727 10.9049 0.376674 11.0724 0.376674C11.2398 0.376674 11.3669 0.424727 11.4537 0.520833C11.5405 0.616939 11.5839 0.734747 11.5839 0.874256C11.5839 1.01376 11.5405 1.13002 11.4537 1.22303C11.3669 1.31603 11.2398 1.36254 11.0724 1.36254C10.9049 1.36254 10.7778 1.31603 10.691 1.22303C10.6073 1.13002 10.5655 1.01376 10.5655 0.874256Z"
                 fill="#F20F6F"
                 id="path40" />
              <path
                 d="M14.0439 0.990513V2.20889H14.9833V2.87388H14.0439V5.99423C14.0439 6.19575 14.0858 6.34766 14.1695 6.44996C14.2532 6.54917 14.3958 6.59877 14.5973 6.59877C14.6965 6.59877 14.8329 6.58017 15.0065 6.54297V7.24051C14.7802 7.30252 14.5601 7.33352 14.3462 7.33352C13.9617 7.33352 13.6719 7.21726 13.4766 6.98475C13.2812 6.75223 13.1836 6.42206 13.1836 5.99423V2.87388H12.2675V2.20889H13.1836V0.990513H14.0439Z"
                 fill="#F20F6F"
                 id="path42" />
              <path
                 d="M22.6051 4.78051C22.6051 5.54626 22.4299 6.16319 22.0796 6.63132C21.7293 7.09945 21.255 7.33352 20.6566 7.33352C20.0459 7.33352 19.5654 7.13976 19.215 6.75223V9.17504H18.3547V2.20889H19.1406L19.1825 2.76693C19.5328 2.3329 20.0195 2.11589 20.6427 2.11589C21.2472 2.11589 21.7246 2.34375 22.075 2.79948C22.4284 3.25521 22.6051 3.8892 22.6051 4.70145V4.78051ZM21.7448 4.68285C21.7448 4.11551 21.6239 3.66753 21.3821 3.33891C21.1403 3.01029 20.8085 2.84598 20.3869 2.84598C19.8661 2.84598 19.4754 3.07695 19.215 3.53888V5.94308C19.4723 6.40191 19.8661 6.63132 20.3962 6.63132C20.8085 6.63132 21.1356 6.46856 21.3774 6.14304C21.6223 5.81442 21.7448 5.32769 21.7448 4.68285Z"
                 fill="#F20F6F"
                 id="path44" />
              <path
                 d="M26.1347 2.98084C26.0045 2.95914 25.8634 2.94829 25.7115 2.94829C25.1473 2.94829 24.7644 3.18855 24.5629 3.66908V7.24051H23.7026V2.20889H24.5396L24.5536 2.79018C24.8357 2.34065 25.2356 2.11589 25.7533 2.11589C25.9208 2.11589 26.0479 2.13759 26.1347 2.18099V2.98084Z"
                 fill="#F20F6F"
                 id="path46" />
              <path
                 d="M26.609 4.6782C26.609 4.18527 26.7051 3.74194 26.8973 3.34821C27.0926 2.95449 27.3624 2.65067 27.7065 2.43676C28.0537 2.22284 28.449 2.11589 28.8923 2.11589C29.5774 2.11589 30.1308 2.35305 30.5525 2.82738C30.9772 3.30171 31.1895 3.9326 31.1895 4.72005V4.78051C31.1895 5.27034 31.095 5.71057 30.9059 6.10119C30.7199 6.48872 30.4517 6.79098 30.1014 7.008C29.7542 7.22501 29.3542 7.33352 28.9016 7.33352C28.2196 7.33352 27.6662 7.09635 27.2414 6.62202C26.8198 6.14769 26.609 5.5199 26.609 4.73865V4.6782ZM27.474 4.78051C27.474 5.33854 27.6026 5.78652 27.8599 6.12444C28.1203 6.46236 28.4676 6.63132 28.9016 6.63132C29.3387 6.63132 29.6859 6.46081 29.9433 6.11979C30.2006 5.77567 30.3292 5.29514 30.3292 4.6782C30.3292 4.12636 30.1975 3.67994 29.934 3.33891C29.6735 2.99479 29.3263 2.82273 28.8923 2.82273C28.4676 2.82273 28.125 2.99169 27.8646 3.32961C27.6042 3.66753 27.474 4.15117 27.474 4.78051Z"
                 fill="#F20F6F"
                 id="path48" />
              <path
                 d="M32.5567 7.24051V2.87388H31.7615V2.20889H32.5567V1.78106C32.5567 1.21993 32.7164 0.7828 33.0357 0.46968C33.3581 0.15656 33.8123 0 34.3983 0C34.7455 0 35.1842 0.0945561 35.7143 0.283668L35.5701 1.00911C35.1826 0.854105 34.8137 0.7766 34.4634 0.7766C34.0944 0.7766 33.8278 0.860305 33.6635 1.02772C33.5023 1.19203 33.4217 1.44004 33.4217 1.77176V2.20889H34.4494V2.87388H33.4217V7.24051H32.5567ZM36.1421 7.24051H35.2772V2.20889H36.1421V7.24051Z"
                 fill="#F20F6F"
                 id="path50" />
              <path
                 d="M38.4766 7.24051H37.6163V0.0976562H38.4766V7.24051Z"
                 fill="#F20F6F"
                 id="path52" />
              <path
                 d="M41.9457 7.33352C41.2636 7.33352 40.7087 7.11031 40.2809 6.66388C39.853 6.21435 39.6391 5.61446 39.6391 4.86421V4.7061C39.6391 4.20697 39.7337 3.76209 39.9228 3.37147C40.115 2.97774 40.3816 2.67082 40.7227 2.45071C41.0668 2.22749 41.4388 2.11589 41.8387 2.11589C42.4929 2.11589 43.0013 2.33135 43.364 2.76228C43.7267 3.1932 43.9081 3.81014 43.9081 4.6131V4.97117H40.4994C40.5118 5.4672 40.656 5.86868 40.9319 6.1756C41.2109 6.47941 41.5644 6.63132 41.9922 6.63132C42.296 6.63132 42.5533 6.56932 42.7641 6.44531C42.9749 6.3213 43.1594 6.15699 43.3175 5.95238L43.843 6.36161C43.4214 7.00955 42.7889 7.33352 41.9457 7.33352ZM41.8387 2.82273C41.4915 2.82273 41.2001 2.94984 40.9645 3.20406C40.7289 3.45517 40.5831 3.80859 40.5273 4.26432H43.0478V4.19922C43.023 3.76209 42.9052 3.42417 42.6944 3.18545C42.4836 2.94364 42.1983 2.82273 41.8387 2.82273Z"
                 fill="#F20F6F"
                 id="path54" />
            </g>
          </g>
          <g
             id="profile">
            <rect
               id="cover_4"
               width="220"
               height="74.2857"
               transform="translate(10 10)"
               fill="url(#paint1_linear)" />
            <g
               id="Molly James"
               transform="translate(73 47)">
              <path
                 d="M2.07589 0.669643L6.06027 10.6138L10.0446 0.669643H12.1289V12.8571H10.5218V8.11105L10.6724 2.98828L6.67132 12.8571H5.44085L1.4481 3.01339L1.60714 8.11105V12.8571H0V0.669643H2.07589Z"
                 fill="white"
                 id="path59" />
              <path
                 d="M14.3136 8.24498C14.3136 7.3577 14.4866 6.55971 14.8326 5.851C15.1842 5.1423 15.6696 4.59542 16.2891 4.21038C16.9141 3.82533 17.6256 3.63281 18.4235 3.63281C19.6568 3.63281 20.6529 4.05971 21.4118 4.9135C22.1763 5.7673 22.5586 6.9029 22.5586 8.32031V8.42913C22.5586 9.31083 22.3884 10.1032 22.048 10.8064C21.7132 11.5039 21.2305 12.048 20.5999 12.4386C19.9749 12.8292 19.255 13.0246 18.4403 13.0246C17.2126 13.0246 16.2165 12.5977 15.452 11.7439C14.6931 10.8901 14.3136 9.76004 14.3136 8.35379V8.24498ZM15.8705 8.42913C15.8705 9.43359 16.1021 10.24 16.5653 10.8482C17.034 11.4565 17.659 11.7606 18.4403 11.7606C19.2271 11.7606 19.8521 11.4537 20.3153 10.8398C20.7785 10.2204 21.01 9.35547 21.01 8.24498C21.01 7.25167 20.7729 6.4481 20.2985 5.83426C19.8298 5.21484 19.2048 4.90513 18.4235 4.90513C17.659 4.90513 17.0424 5.20926 16.5737 5.81752C16.1049 6.42578 15.8705 7.29632 15.8705 8.42913Z"
                 fill="white"
                 id="path61" />
              <path
                 d="M26.183 12.8571H24.6345V0H26.183V12.8571Z"
                 fill="white"
                 id="path63" />
              <path
                 d="M30.3516 12.8571H28.803V0H30.3516V12.8571Z"
                 fill="white"
                 id="path65" />
              <path
                 d="M35.8008 10.5887L37.9102 3.80022H39.5675L35.9263 14.255C35.3627 15.7617 34.4671 16.5151 33.2394 16.5151L32.9464 16.49L32.3689 16.3811V15.1256L32.7874 15.159C33.3119 15.159 33.7193 15.053 34.0095 14.841C34.3052 14.6289 34.548 14.2411 34.7377 13.6775L35.0809 12.7567L31.8499 3.80022H33.5407L35.8008 10.5887Z"
                 fill="white"
                 id="path67" />
              <path
                 d="M50.558 0.669643H52.1735V9.29966C52.1735 10.466 51.822 11.3783 51.1189 12.0368C50.4213 12.6953 49.4894 13.0246 48.3231 13.0246C47.1122 13.0246 46.1691 12.7148 45.4939 12.0954C44.8186 11.476 44.481 10.6083 44.481 9.49219H46.0882C46.0882 10.1897 46.2779 10.7338 46.6574 11.1244C47.0424 11.5151 47.5977 11.7104 48.3231 11.7104C48.9872 11.7104 49.5229 11.5011 49.9302 11.0826C50.3432 10.6641 50.5525 10.0781 50.558 9.32478V0.669643Z"
                 fill="white"
                 id="path69" />
              <path
                 d="M60.2595 12.8571C60.1702 12.6786 60.0977 12.3605 60.0419 11.9029C59.322 12.6507 58.4626 13.0246 57.4637 13.0246C56.5709 13.0246 55.8371 12.7734 55.2623 12.2712C54.6931 11.7634 54.4085 11.1217 54.4085 10.346C54.4085 9.4029 54.7656 8.67187 55.4799 8.1529C56.1998 7.62835 57.2098 7.36607 58.51 7.36607H60.0167V6.65458C60.0167 6.11328 59.8549 5.68359 59.5312 5.36551C59.2076 5.04185 58.7305 4.88002 58.0999 4.88002C57.5474 4.88002 57.0843 5.01953 56.7104 5.29855C56.3365 5.57757 56.1496 5.91518 56.1496 6.31138H54.5926C54.5926 5.85937 54.7517 5.42411 55.0698 5.00558C55.3934 4.58147 55.8287 4.24665 56.3756 4.00112C56.928 3.75558 57.5335 3.63281 58.192 3.63281C59.2355 3.63281 60.053 3.89509 60.6445 4.41964C61.236 4.93862 61.543 5.65569 61.5653 6.57087V10.7394C61.5653 11.5709 61.6713 12.2321 61.8834 12.7232V12.8571H60.2595ZM57.6897 11.6769C58.1752 11.6769 58.6356 11.5513 59.0709 11.3002C59.5061 11.0491 59.8214 10.7227 60.0167 10.3209V8.46261H58.803C56.9057 8.46261 55.957 9.01786 55.957 10.1283C55.957 10.6138 56.1189 10.9933 56.4425 11.2667C56.7662 11.5402 57.1819 11.6769 57.6897 11.6769Z"
                 fill="white"
                 id="path71" />
              <path
                 d="M65.4492 3.80022L65.4911 4.80469C66.1551 4.02344 67.0508 3.63281 68.178 3.63281C69.4448 3.63281 70.3069 4.1183 70.7645 5.08929C71.0658 4.65402 71.4565 4.30245 71.9364 4.0346C72.4219 3.76674 72.9939 3.63281 73.6523 3.63281C75.639 3.63281 76.649 4.68471 76.6825 6.7885V12.8571H75.1339V6.88058C75.1339 6.23326 74.986 5.75056 74.6903 5.43248C74.3945 5.10882 73.8979 4.94699 73.2003 4.94699C72.6256 4.94699 72.1484 5.11998 71.769 5.46596C71.3895 5.80636 71.1691 6.26674 71.1077 6.8471V12.8571H69.5508V6.92243C69.5508 5.60547 68.9062 4.94699 67.6172 4.94699C66.6016 4.94699 65.9068 5.37946 65.5329 6.24442V12.8571H63.9844V3.80022H65.4492Z"
                 fill="white"
                 id="path73" />
              <path
                 d="M82.7846 13.0246C81.5569 13.0246 80.558 12.6228 79.7879 11.8192C79.0179 11.01 78.6328 9.93025 78.6328 8.5798V8.2952C78.6328 7.39676 78.803 6.59598 79.1434 5.89286C79.4894 5.18415 79.9693 4.6317 80.5831 4.23549C81.2026 3.83371 81.8722 3.63281 82.5921 3.63281C83.7695 3.63281 84.6847 4.02065 85.3376 4.79632C85.9905 5.57199 86.317 6.68248 86.317 8.12779V8.77232H80.1814C80.2037 9.66518 80.4632 10.3878 80.9598 10.9403C81.4621 11.4872 82.0982 11.7606 82.8683 11.7606C83.4152 11.7606 83.8783 11.649 84.2578 11.4258C84.6373 11.2026 84.9693 10.9068 85.2539 10.5385L86.1998 11.2751C85.4408 12.4414 84.3025 13.0246 82.7846 13.0246ZM82.5921 4.90513C81.9671 4.90513 81.4425 5.13393 81.0184 5.59152C80.5943 6.04353 80.332 6.67969 80.2316 7.5H84.7684V7.38281C84.7238 6.59598 84.5117 5.98772 84.1323 5.55804C83.7528 5.12277 83.2394 4.90513 82.5921 4.90513Z"
                 fill="white"
                 id="path75" />
              <path
                 d="M93.3901 10.4548C93.3901 10.0363 93.231 9.71261 92.9129 9.48382C92.6004 9.24944 92.0508 9.04855 91.264 8.88114C90.4827 8.71373 89.8605 8.51283 89.3973 8.27846C88.9397 8.04408 88.5993 7.76507 88.3761 7.44141C88.1585 7.11774 88.0497 6.7327 88.0497 6.28627C88.0497 5.54408 88.3622 4.91629 88.9872 4.4029C89.6177 3.88951 90.4213 3.63281 91.3979 3.63281C92.4247 3.63281 93.2561 3.89788 93.8923 4.42801C94.534 4.95815 94.8549 5.63616 94.8549 6.46205H93.298C93.298 6.03795 93.1166 5.67243 92.7539 5.36551C92.3968 5.05859 91.9448 4.90513 91.3979 4.90513C90.8343 4.90513 90.3934 5.0279 90.0753 5.27344C89.7573 5.51897 89.5982 5.83984 89.5982 6.23605C89.5982 6.60993 89.7461 6.89174 90.0419 7.08147C90.3376 7.2712 90.8705 7.45257 91.6406 7.62556C92.4163 7.79855 93.0441 8.00502 93.524 8.24498C94.0039 8.48493 94.3583 8.77511 94.5871 9.11551C94.8214 9.45033 94.9386 9.86049 94.9386 10.346C94.9386 11.1551 94.615 11.8052 93.9676 12.2963C93.3203 12.7818 92.4805 13.0246 91.4481 13.0246C90.7227 13.0246 90.0809 12.8962 89.5229 12.6395C88.9648 12.3828 88.5268 12.0257 88.2087 11.5681C87.8962 11.1049 87.74 10.6055 87.74 10.0698H89.2885C89.3164 10.5887 89.5229 11.0017 89.9079 11.3086C90.2985 11.6099 90.8119 11.7606 91.4481 11.7606C92.034 11.7606 92.5028 11.6434 92.8544 11.409C93.2115 11.1691 93.3901 10.851 93.3901 10.4548Z"
                 fill="white"
                 id="path77" />
            </g>
            <g
               id="21 years old"
               transform="translate(95.2044 67.9524)">
              <path
                 d="M4.56659 7.14286H0.130208V6.52437L2.47396 3.9202C2.82118 3.52648 3.0599 3.20716 3.1901 2.96224C3.32341 2.71422 3.39007 2.45846 3.39007 2.19494C3.39007 1.84152 3.28311 1.55165 3.0692 1.32533C2.85528 1.09902 2.57006 0.985863 2.21354 0.985863C1.78571 0.985863 1.45244 1.10832 1.21373 1.35324C0.978113 1.59505 0.860305 1.93297 0.860305 2.367H0C0 1.74386 0.199963 1.24008 0.599888 0.855655C1.00291 0.47123 1.5408 0.279018 2.21354 0.279018C2.84288 0.279018 3.34046 0.444878 3.70629 0.7766C4.07211 1.10522 4.25502 1.5439 4.25502 2.09263C4.25502 2.75918 3.83029 3.55283 2.98084 4.47359L1.16722 6.44066H4.56659V7.14286Z"
                 fill="white"
                 fill-opacity="0.8"
                 id="path80" />
              <path
                 d="M8.30543 7.14286H7.44048V1.40904L5.70591 2.04613V1.26488L8.17057 0.339472H8.30543V7.14286Z"
                 fill="white"
                 fill-opacity="0.8"
                 id="path82" />
              <path
                 d="M14.9228 5.88263L16.0947 2.11124H17.0154L14.9926 7.91946C14.6794 8.75651 14.1819 9.17504 13.4998 9.17504L13.3371 9.16109L13.0162 9.10063V8.40309L13.2487 8.42169C13.5401 8.42169 13.7664 8.36279 13.9276 8.24498C14.092 8.12717 14.2268 7.91171 14.3322 7.59859L14.5229 7.08705L12.7279 2.11124H13.6672L14.9228 5.88263Z"
                 fill="white"
                 fill-opacity="0.8"
                 id="path84" />
              <path
                 d="M19.8103 7.23586C19.1282 7.23586 18.5733 7.01265 18.1455 6.56622C17.7176 6.11669 17.5037 5.5168 17.5037 4.76656V4.60845C17.5037 4.10931 17.5983 3.66443 17.7874 3.27381C17.9796 2.88008 18.2462 2.57316 18.5872 2.35305C18.9314 2.12984 19.3034 2.01823 19.7033 2.01823C20.3575 2.01823 20.8659 2.23369 21.2286 2.66462C21.5913 3.09555 21.7727 3.71249 21.7727 4.51544V4.87351H18.364C18.3764 5.36954 18.5206 5.77102 18.7965 6.07794C19.0755 6.38176 19.4289 6.53367 19.8568 6.53367C20.1606 6.53367 20.4179 6.47166 20.6287 6.34766C20.8395 6.22365 21.024 6.05934 21.1821 5.85472L21.7076 6.26395C21.286 6.91189 20.6535 7.23586 19.8103 7.23586ZM19.7033 2.72507C19.3561 2.72507 19.0647 2.85218 18.8291 3.1064C18.5934 3.35751 18.4477 3.71094 18.3919 4.16667H20.9124V4.10156C20.8876 3.66443 20.7698 3.32651 20.559 3.0878C20.3482 2.84598 20.0629 2.72507 19.7033 2.72507Z"
                 fill="white"
                 fill-opacity="0.8"
                 id="path86" />
              <path
                 d="M25.8789 7.14286C25.8293 7.04365 25.789 6.86694 25.758 6.61272C25.3581 7.02815 24.8806 7.23586 24.3257 7.23586C23.8297 7.23586 23.422 7.09635 23.1027 6.81734C22.7865 6.53522 22.6283 6.1787 22.6283 5.74777C22.6283 5.22383 22.8268 4.81771 23.2236 4.52939C23.6235 4.23797 24.1846 4.09226 24.907 4.09226H25.744V3.69699C25.744 3.39627 25.6541 3.15755 25.4743 2.98084C25.2945 2.80103 25.0294 2.71112 24.6791 2.71112C24.3722 2.71112 24.1149 2.78863 23.9072 2.94364C23.6995 3.09865 23.5956 3.28621 23.5956 3.50632H22.7307C22.7307 3.25521 22.819 3.01339 22.9957 2.78088C23.1755 2.54526 23.4173 2.35925 23.7212 2.22284C24.0281 2.08643 24.3645 2.01823 24.7303 2.01823C25.31 2.01823 25.7642 2.16394 26.0928 2.45536C26.4214 2.74368 26.5919 3.14205 26.6044 3.65048V5.96633C26.6044 6.42826 26.6633 6.79563 26.7811 7.06845V7.14286H25.8789ZM24.4513 6.48716C24.721 6.48716 24.9767 6.41741 25.2186 6.2779C25.4604 6.13839 25.6355 5.95703 25.744 5.73382V4.70145H25.0698C24.0157 4.70145 23.4887 5.00992 23.4887 5.62686C23.4887 5.89658 23.5786 6.10739 23.7584 6.2593C23.9382 6.41121 24.1691 6.48716 24.4513 6.48716Z"
                 fill="white"
                 fill-opacity="0.8"
                 id="path88" />
              <path
                 d="M30.385 2.88318C30.2548 2.86148 30.1138 2.85063 29.9619 2.85063C29.3976 2.85063 29.0148 3.0909 28.8132 3.57143V7.14286H27.9529V2.11124H28.79L28.8039 2.69252C29.0861 2.24299 29.486 2.01823 30.0037 2.01823C30.1711 2.01823 30.2982 2.03993 30.385 2.08333V2.88318Z"
                 fill="white"
                 fill-opacity="0.8"
                 id="path90" />
              <path
                 d="M34.1099 5.80822C34.1099 5.57571 34.0216 5.3959 33.8449 5.26879C33.6713 5.13858 33.3659 5.02697 32.9288 4.93397C32.4947 4.84096 32.1491 4.72935 31.8917 4.59914C31.6375 4.46894 31.4484 4.31393 31.3244 4.13411C31.2035 3.9543 31.143 3.74039 31.143 3.49237C31.143 3.08005 31.3167 2.73127 31.6639 2.44606C32.0142 2.16084 32.4606 2.01823 33.0032 2.01823C33.5736 2.01823 34.0355 2.16549 34.389 2.46001C34.7455 2.75453 34.9237 3.1312 34.9237 3.59003H34.0588C34.0588 3.35441 33.958 3.15135 33.7565 2.98084C33.5581 2.81033 33.307 2.72507 33.0032 2.72507C32.69 2.72507 32.4451 2.79328 32.2684 2.92969C32.0917 3.0661 32.0033 3.24436 32.0033 3.46447C32.0033 3.67218 32.0855 3.82875 32.2498 3.93415C32.4141 4.03956 32.7102 4.14032 33.138 4.23642C33.5689 4.33253 33.9177 4.44723 34.1843 4.58054C34.451 4.71385 34.6478 4.87506 34.7749 5.06417C34.9051 5.25019 34.9702 5.47805 34.9702 5.74777C34.9702 6.1973 34.7904 6.55847 34.4308 6.83129C34.0712 7.101 33.6046 7.23586 33.0311 7.23586C32.628 7.23586 32.2715 7.16456 31.9615 7.02195C31.6515 6.87934 31.4081 6.68093 31.2314 6.42671C31.0578 6.16939 30.971 5.89193 30.971 5.59431H31.8313C31.8468 5.88263 31.9615 6.11204 32.1754 6.28255C32.3924 6.44996 32.6776 6.53367 33.0311 6.53367C33.3566 6.53367 33.617 6.46856 33.8123 6.33836C34.0107 6.20505 34.1099 6.02834 34.1099 5.80822Z"
                 fill="white"
                 fill-opacity="0.8"
                 id="path92" />
              <path
                 d="M38.2254 4.58054C38.2254 4.08761 38.3215 3.64428 38.5138 3.25056C38.7091 2.85683 38.9788 2.55301 39.3229 2.3391C39.6701 2.12519 40.0654 2.01823 40.5087 2.01823C41.1939 2.01823 41.7473 2.25539 42.1689 2.72972C42.5936 3.20406 42.806 3.83495 42.806 4.6224V4.68285C42.806 5.17268 42.7114 5.61291 42.5223 6.00353C42.3363 6.39106 42.0681 6.69333 41.7178 6.91034C41.3706 7.12736 40.9707 7.23586 40.518 7.23586C39.836 7.23586 39.2826 6.9987 38.8579 6.52437C38.4363 6.05004 38.2254 5.42225 38.2254 4.641V4.58054ZM39.0904 4.68285C39.0904 5.24089 39.2191 5.68886 39.4764 6.02679C39.7368 6.36471 40.084 6.53367 40.518 6.53367C40.9552 6.53367 41.3024 6.36316 41.5597 6.02214C41.817 5.67801 41.9457 5.19748 41.9457 4.58054C41.9457 4.02871 41.8139 3.58228 41.5504 3.24126C41.29 2.89714 40.9428 2.72507 40.5087 2.72507C40.084 2.72507 39.7414 2.89404 39.481 3.23196C39.2206 3.56988 39.0904 4.05351 39.0904 4.68285Z"
                 fill="white"
                 fill-opacity="0.8"
                 id="path94" />
              <path
                 d="M44.8196 7.14286H43.9593V0H44.8196V7.14286Z"
                 fill="white"
                 fill-opacity="0.8"
                 id="path96" />
              <path
                 d="M45.9914 4.58519C45.9914 3.81324 46.1744 3.1932 46.5402 2.72507C46.906 2.25384 47.385 2.01823 47.9771 2.01823C48.5662 2.01823 49.0327 2.21974 49.3769 2.62277V0H50.2372V7.14286H49.4466L49.4048 6.60342C49.0606 7.02505 48.5817 7.23586 47.9678 7.23586C47.385 7.23586 46.9091 6.99715 46.5402 6.51972C46.1744 6.04229 45.9914 5.41915 45.9914 4.6503V4.58519ZM46.8517 4.68285C46.8517 5.25329 46.9696 5.69971 47.2052 6.02214C47.4408 6.34456 47.7663 6.50577 48.1817 6.50577C48.7274 6.50577 49.1257 6.26085 49.3769 5.77102V3.45982C49.1195 2.98549 48.7243 2.74833 48.191 2.74833C47.7694 2.74833 47.4408 2.91109 47.2052 3.23661C46.9696 3.56213 46.8517 4.04421 46.8517 4.68285Z"
                 fill="white"
                 fill-opacity="0.8"
                 id="path98" />
            </g>
          </g>
        </g>
      </g>
      <circle
         id="stroke"
         opacity="0.2"
         cx="110"
         cy="110"
         r="115"
         transform="translate(10 10)"
         stroke="url(#paint2_linear)"
         stroke-width="10" />
    </g>
    <defs
       id="defs122">
      <linearGradient
         id="paint0_linear"
         x2="1"
         gradientUnits="userSpaceOnUse"
         gradientTransform="translate(110 -110) scale(311.127) rotate(45)">
        <stop
           stop-color="#FFD7E9"
           id="stop107" />
        <stop
           offset="1"
           stop-color="#EFB7D1"
           id="stop109" />
      </linearGradient>
      <linearGradient
         id="paint1_linear"
         x2="1"
         gradientUnits="userSpaceOnUse"
         gradientTransform="translate(220) scale(220 74.2857) rotate(90)">
        <stop
           stop-color="#EC3E71"
           stop-opacity="0.07"
           id="stop112" />
        <stop
           offset="1"
           stop-color="#EC3E71"
           stop-opacity="0.34"
           id="stop114" />
      </linearGradient>
      <linearGradient
         id="paint2_linear"
         x2="1"
         gradientUnits="userSpaceOnUse"
         gradientTransform="translate(110 -110) scale(311.127) rotate(45)">
        <stop
           stop-color="#FFEDF5"
           id="stop117" />
        <stop
           offset="1"
           stop-color="#FF5FA8"
           id="stop119" />
      </linearGradient>
    </defs>
  </g>
</svg>
