<?xml version="1.0" encoding="UTF-8" standalone="no"?>
<svg
   xmlns:dc="http://purl.org/dc/elements/1.1/"
   xmlns:cc="http://creativecommons.org/ns#"
   xmlns:rdf="http://www.w3.org/1999/02/22-rdf-syntax-ns#"
   xmlns:svg="http://www.w3.org/2000/svg"
   xmlns="http://www.w3.org/2000/svg"
   xmlns:sodipodi="http://sodipodi.sourceforge.net/DTD/sodipodi-0.dtd"
   xmlns:inkscape="http://www.inkscape.org/namespaces/inkscape"
   width="240"
   height="240"
   viewBox="0 0 240 240"
   fill="none"
   version="1.1"
   id="svg153"
   sodipodi:docname="patient2.svg"
   inkscape:version="0.92.3 (3ce5693, 2018-03-11)">
  <metadata
     id="metadata159">
    <rdf:RDF>
      <cc:Work
         rdf:about="">
        <dc:format>image/svg+xml</dc:format>
        <dc:type
           rdf:resource="http://purl.org/dc/dcmitype/StillImage" />
        <dc:title></dc:title>
      </cc:Work>
    </rdf:RDF>
  </metadata>
  <defs
     id="defs157" />
  <sodipodi:namedview
     pagecolor="#ffffff"
     bordercolor="#666666"
     borderopacity="1"
     objecttolerance="10"
     gridtolerance="10"
     guidetolerance="10"
     inkscape:pageopacity="0"
     inkscape:pageshadow="2"
     inkscape:window-width="640"
     inkscape:window-height="480"
     id="namedview155"
     showgrid="false"
     inkscape:zoom="0.98333333"
     inkscape:cx="120"
     inkscape:cy="120"
     inkscape:window-x="63"
     inkscape:window-y="27"
     inkscape:window-maximized="0"
     inkscape:current-layer="svg153" />
  <g
     id="image">
    <g
       id="images">
      <mask
         id="mask0"
         mask-type="alpha"
         maskUnits="userSpaceOnUse"
         x="10"
         y="10"
         width="220"
         height="220">
        <circle
           id="mask"
           cx="110"
           cy="110"
           r="110"
           transform="translate(10 10)"
           fill="url(#paint0_linear)" />
      </mask>
      <g
         mask="url(#mask0)"
         id="g136">
        <g
           id="2 Pacient">
          <rect
             id="cover"
             width="220"
             height="220"
             transform="translate(10 55)"
             fill="white" />
          <g
             id="continue">
            <rect
               id="Rectangle"
               x="-0.5"
               y="-0.5"
               width="78.14"
               height="24.8095"
               rx="3.5"
               transform="translate(126 145.476)"
               stroke="#F20F6F" />
            <g
               id="Decline"
               transform="translate(150 152.619)">
              <path
                 d="M0 7.14286V0.372024H1.91127C2.50031 0.372024 3.02114 0.502232 3.47377 0.762649C3.9264 1.02307 4.27517 1.39354 4.52009 1.87407C4.76811 2.3546 4.89366 2.90644 4.89676 3.52958V3.96205C4.89676 4.60069 4.77276 5.16028 4.52474 5.64081C4.27982 6.12134 3.92795 6.49027 3.46912 6.74758C3.01339 7.0049 2.48171 7.13666 1.87407 7.14286H0ZM0.892857 1.10677V6.41276H1.83222C2.52046 6.41276 3.05525 6.19885 3.43657 5.77102C3.82099 5.34319 4.01321 4.734 4.01321 3.94345V3.54818C4.01321 2.77933 3.83185 2.18254 3.46912 1.75781C3.1095 1.32999 2.59797 1.11297 1.93452 1.10677H0.892857Z"
                 fill="#F20F6F"
                 id="path6" />
              <path
                 d="M8.20312 7.23586C7.52108 7.23586 6.96615 7.01265 6.53832 6.56622C6.11049 6.11669 5.89658 5.5168 5.89658 4.76656V4.60845C5.89658 4.10931 5.99113 3.66443 6.18025 3.27381C6.37246 2.88008 6.63907 2.57316 6.9801 2.35305C7.32422 2.12984 7.69624 2.01823 8.09617 2.01823C8.75031 2.01823 9.25874 2.23369 9.62147 2.66462C9.98419 3.09555 10.1656 3.71249 10.1656 4.51544V4.87351H6.75688C6.76928 5.36954 6.91344 5.77102 7.18936 6.07794C7.46838 6.38176 7.8218 6.53367 8.24963 6.53367C8.55345 6.53367 8.81076 6.47166 9.02158 6.34766C9.23239 6.22365 9.41685 6.05934 9.57496 5.85472L10.1004 6.26395C9.67882 6.91189 9.04638 7.23586 8.20312 7.23586ZM8.09617 2.72507C7.74895 2.72507 7.45753 2.85218 7.22191 3.1064C6.9863 3.35751 6.84059 3.71094 6.78478 4.16667H9.30525V4.10156C9.28044 3.66443 9.16264 3.32651 8.95182 3.0878C8.74101 2.84598 8.45579 2.72507 8.09617 2.72507Z"
                 fill="#F20F6F"
                 id="path8" />
              <path
                 d="M13.1836 6.53367C13.4905 6.53367 13.7587 6.44066 13.9881 6.25465C14.2175 6.06864 14.3446 5.83612 14.3694 5.55711H15.1832C15.1677 5.84542 15.0685 6.11979 14.8856 6.38021C14.7027 6.64062 14.4578 6.84834 14.1509 7.00335C13.847 7.15836 13.5246 7.23586 13.1836 7.23586C12.4985 7.23586 11.9528 7.008 11.5467 6.55227C11.1437 6.09344 10.9422 5.4672 10.9422 4.67355V4.52939C10.9422 4.03956 11.0321 3.60398 11.2119 3.22266C11.3917 2.84133 11.649 2.54526 11.9838 2.33445C12.3217 2.12364 12.7201 2.01823 13.1789 2.01823C13.7432 2.01823 14.2113 2.18719 14.5833 2.52511C14.9585 2.86303 15.1584 3.30171 15.1832 3.84115H14.3694C14.3446 3.51562 14.2206 3.24901 13.9974 3.04129C13.7773 2.83048 13.5045 2.72507 13.1789 2.72507C12.7418 2.72507 12.4023 2.88318 12.1605 3.1994C11.9218 3.51252 11.8025 3.9667 11.8025 4.56194V4.7247C11.8025 5.30444 11.9218 5.75087 12.1605 6.06399C12.3992 6.37711 12.7403 6.53367 13.1836 6.53367Z"
                 fill="#F20F6F"
                 id="path10" />
              <path
                 d="M17.0852 7.14286H16.2249V0H17.0852V7.14286Z"
                 fill="#F20F6F"
                 id="path12" />
              <path
                 d="M19.401 7.14286H18.5407V2.11124H19.401V7.14286ZM18.471 0.7766C18.471 0.637091 18.5128 0.519283 18.5965 0.423177C18.6833 0.327071 18.8105 0.279018 18.9779 0.279018C19.1453 0.279018 19.2724 0.327071 19.3592 0.423177C19.446 0.519283 19.4894 0.637091 19.4894 0.7766C19.4894 0.916109 19.446 1.03237 19.3592 1.12537C19.2724 1.21838 19.1453 1.26488 18.9779 1.26488C18.8105 1.26488 18.6833 1.21838 18.5965 1.12537C18.5128 1.03237 18.471 0.916109 18.471 0.7766Z"
                 fill="#F20F6F"
                 id="path14" />
              <path
                 d="M21.596 2.11124L21.6239 2.74368C22.0083 2.26004 22.5105 2.01823 23.1306 2.01823C24.1939 2.01823 24.7303 2.61812 24.7396 3.81789V7.14286H23.8793V3.81324C23.8762 3.45052 23.7925 3.18235 23.6282 3.00874C23.467 2.83513 23.2143 2.74833 22.8702 2.74833C22.5911 2.74833 22.3462 2.82273 22.1354 2.97154C21.9246 3.12035 21.7603 3.31566 21.6425 3.55748V7.14286H20.7822V2.11124H21.596Z"
                 fill="#F20F6F"
                 id="path16" />
              <path
                 d="M28.125 7.23586C27.443 7.23586 26.888 7.01265 26.4602 6.56622C26.0324 6.11669 25.8185 5.5168 25.8185 4.76656V4.60845C25.8185 4.10931 25.913 3.66443 26.1021 3.27381C26.2943 2.88008 26.561 2.57316 26.902 2.35305C27.2461 2.12984 27.6181 2.01823 28.018 2.01823C28.6722 2.01823 29.1806 2.23369 29.5433 2.66462C29.9061 3.09555 30.0874 3.71249 30.0874 4.51544V4.87351H26.6788C26.6912 5.36954 26.8353 5.77102 27.1112 6.07794C27.3903 6.38176 27.7437 6.53367 28.1715 6.53367C28.4753 6.53367 28.7326 6.47166 28.9435 6.34766C29.1543 6.22365 29.3387 6.05934 29.4968 5.85472L30.0223 6.26395C29.6007 6.91189 28.9683 7.23586 28.125 7.23586ZM28.018 2.72507C27.6708 2.72507 27.3794 2.85218 27.1438 3.1064C26.9082 3.35751 26.7625 3.71094 26.7067 4.16667H29.2271V4.10156C29.2023 3.66443 29.0845 3.32651 28.8737 3.0878C28.6629 2.84598 28.3777 2.72507 28.018 2.72507Z"
                 fill="#F20F6F"
                 id="path18" />
            </g>
          </g>
          <g
             id="continue_2">
            <rect
               id="Rectangle_2"
               x="-0.5"
               y="-0.5"
               width="81"
               height="24.8095"
               rx="3.5"
               transform="translate(37 145.476)"
               stroke="#2FA929" />
            <g
               id="Approve"
               transform="translate(59 152.991)">
              <path
                 d="M4.39453 5.00372H1.55785L0.920759 6.77083H0L2.58557 0H3.36682L5.95703 6.77083H5.04092L4.39453 5.00372ZM1.82757 4.26897H4.12946L2.97619 1.10212L1.82757 4.26897Z"
                 fill="#2FA929"
                 id="path23" />
              <path
                 d="M10.984 4.31083C10.984 5.07658 10.8088 5.69351 10.4585 6.16164C10.1082 6.62977 9.63387 6.86384 9.03553 6.86384C8.42479 6.86384 7.94426 6.67008 7.59394 6.28255V8.70536H6.73363V1.73921H7.51953L7.56138 2.29725C7.91171 1.86322 8.39844 1.64621 9.02158 1.64621C9.62612 1.64621 10.1035 1.87407 10.4539 2.3298C10.8073 2.78553 10.984 3.41952 10.984 4.23177V4.31083ZM10.1237 4.21317C10.1237 3.64583 10.0028 3.19785 9.76097 2.86923C9.51916 2.54061 9.18744 2.3763 8.76581 2.3763C8.24498 2.3763 7.85435 2.60727 7.59394 3.0692V5.4734C7.85125 5.93223 8.24498 6.16164 8.77511 6.16164C9.18744 6.16164 9.51451 5.99888 9.75632 5.67336C10.0012 5.34474 10.1237 4.85801 10.1237 4.21317Z"
                 fill="#2FA929"
                 id="path25" />
              <path
                 d="M16.3318 4.31083C16.3318 5.07658 16.1567 5.69351 15.8064 6.16164C15.456 6.62977 14.9817 6.86384 14.3834 6.86384C13.7726 6.86384 13.2921 6.67008 12.9418 6.28255V8.70536H12.0815V1.73921H12.8674L12.9092 2.29725C13.2595 1.86322 13.7463 1.64621 14.3694 1.64621C14.974 1.64621 15.4514 1.87407 15.8017 2.3298C16.1551 2.78553 16.3318 3.41952 16.3318 4.23177V4.31083ZM15.4715 4.21317C15.4715 3.64583 15.3506 3.19785 15.1088 2.86923C14.867 2.54061 14.5353 2.3763 14.1137 2.3763C13.5928 2.3763 13.2022 2.60727 12.9418 3.0692V5.4734C13.1991 5.93223 13.5928 6.16164 14.123 6.16164C14.5353 6.16164 14.8624 5.99888 15.1042 5.67336C15.3491 5.34474 15.4715 4.85801 15.4715 4.21317Z"
                 fill="#2FA929"
                 id="path27" />
              <path
                 d="M19.8614 2.51116C19.7312 2.48946 19.5902 2.47861 19.4382 2.47861C18.874 2.47861 18.4911 2.71887 18.2896 3.1994V6.77083H17.4293V1.73921H18.2664L18.2803 2.3205C18.5624 1.87097 18.9624 1.64621 19.4801 1.64621C19.6475 1.64621 19.7746 1.66791 19.8614 1.71131V2.51116Z"
                 fill="#2FA929"
                 id="path29" />
              <path
                 d="M20.3358 4.20852C20.3358 3.71559 20.4319 3.27226 20.6241 2.87853C20.8194 2.48481 21.0891 2.18099 21.4332 1.96708C21.7804 1.75316 22.1757 1.64621 22.619 1.64621C23.3042 1.64621 23.8576 1.88337 24.2792 2.3577C24.7039 2.83203 24.9163 3.46292 24.9163 4.25037V4.31083C24.9163 4.80066 24.8217 5.24089 24.6326 5.63151C24.4466 6.01904 24.1784 6.3213 23.8281 6.53832C23.4809 6.75533 23.081 6.86384 22.6283 6.86384C21.9463 6.86384 21.3929 6.62667 20.9682 6.15234C20.5466 5.67801 20.3358 5.05022 20.3358 4.26897V4.20852ZM21.2007 4.31083C21.2007 4.86886 21.3294 5.31684 21.5867 5.65476C21.8471 5.99268 22.1943 6.16164 22.6283 6.16164C23.0655 6.16164 23.4127 5.99113 23.67 5.65011C23.9273 5.30599 24.056 4.82546 24.056 4.20852C24.056 3.65668 23.9242 3.21026 23.6607 2.86923C23.4003 2.52511 23.0531 2.35305 22.619 2.35305C22.1943 2.35305 21.8517 2.52201 21.5913 2.85993C21.3309 3.19785 21.2007 3.68149 21.2007 4.31083Z"
                 fill="#2FA929"
                 id="path31" />
              <path
                 d="M27.5809 5.60361L28.8272 1.73921H29.7061L27.9018 6.77083H27.2461L25.4232 1.73921H26.3021L27.5809 5.60361Z"
                 fill="#2FA929"
                 id="path33" />
              <path
                 d="M32.5567 6.86384C31.8747 6.86384 31.3198 6.64063 30.8919 6.1942C30.4641 5.74467 30.2502 5.14478 30.2502 4.39453V4.23642C30.2502 3.73729 30.3447 3.29241 30.5339 2.90179C30.7261 2.50806 30.9927 2.20114 31.3337 1.98103C31.6778 1.75781 32.0499 1.64621 32.4498 1.64621C33.1039 1.64621 33.6124 1.86167 33.9751 2.2926C34.3378 2.72352 34.5192 3.34046 34.5192 4.14342V4.50149H31.1105C31.1229 4.99752 31.267 5.399 31.543 5.70592C31.822 6.00974 32.1754 6.16164 32.6032 6.16164C32.9071 6.16164 33.1644 6.09964 33.3752 5.97563C33.586 5.85162 33.7705 5.68731 33.9286 5.4827L34.4541 5.89193C34.0324 6.53987 33.4 6.86384 32.5567 6.86384ZM32.4498 2.35305C32.1026 2.35305 31.8111 2.48016 31.5755 2.73438C31.3399 2.98549 31.1942 3.33891 31.1384 3.79464H33.6589V3.72954C33.6341 3.29241 33.5162 2.95449 33.3054 2.71577C33.0946 2.47396 32.8094 2.35305 32.4498 2.35305Z"
                 fill="#2FA929"
                 id="path35" />
            </g>
          </g>
          <g
             id="study">
            <rect
               id="dark"
               width="220"
               height="28.5714"
               transform="translate(10 110.238)"
               fill="#F1F1F1" />
            <rect
               id="cover_2"
               width="220"
               height="26.6667"
               transform="translate(10 111.19)"
               fill="white" />
            <g
               id="Study"
               transform="translate(37.0387 120.238)">
              <path
                 d="M2.40885 4.12481C1.64311 3.9047 1.08507 3.63498 0.734747 3.31566C0.387525 2.99324 0.213914 2.59642 0.213914 2.12519C0.213914 1.59195 0.426277 1.15172 0.851004 0.804501C1.27883 0.454179 1.83377 0.279018 2.51581 0.279018C2.98084 0.279018 3.39472 0.368924 3.75744 0.548735C4.12326 0.728547 4.40538 0.976562 4.60379 1.29278C4.80531 1.609 4.90606 1.95467 4.90606 2.3298H4.00856C4.00856 1.92057 3.87835 1.5997 3.61793 1.36719C3.35751 1.13157 2.99014 1.01376 2.51581 1.01376C2.07558 1.01376 1.73146 1.11142 1.48344 1.30673C1.23853 1.49895 1.11607 1.76711 1.11607 2.11123C1.11607 2.38715 1.23233 2.62122 1.46484 2.81343C1.70046 3.00254 2.09883 3.17615 2.65997 3.33426C3.22421 3.49237 3.66443 3.66753 3.98065 3.85975C4.29998 4.04886 4.53559 4.27052 4.6875 4.52474C4.84251 4.77896 4.92001 5.07812 4.92001 5.42225C4.92001 5.97098 4.7061 6.41121 4.27827 6.74293C3.85045 7.07155 3.27846 7.23586 2.56231 7.23586C2.09728 7.23586 1.66326 7.14751 1.26023 6.9708C0.857205 6.79098 0.545635 6.54607 0.325521 6.23605C0.108507 5.92603 0 5.57416 0 5.18043H0.897507C0.897507 5.58966 1.04787 5.91363 1.34859 6.15234C1.65241 6.38796 2.05698 6.50577 2.56231 6.50577C3.03354 6.50577 3.39472 6.40966 3.64583 6.21745C3.89695 6.02524 4.02251 5.76327 4.02251 5.43155C4.02251 5.09983 3.90625 4.84406 3.67374 4.66425C3.44122 4.48134 3.01959 4.30153 2.40885 4.12481Z"
                 fill="black"
                 id="path41" />
              <path
                 d="M7.101 0.892857V2.11123H8.04036V2.77623H7.101V5.89658C7.101 6.09809 7.14286 6.25 7.22656 6.35231C7.31027 6.45151 7.45288 6.50112 7.65439 6.50112C7.7536 6.50112 7.89001 6.48251 8.06362 6.44531V7.14286C7.8373 7.20486 7.61719 7.23586 7.40327 7.23586C7.01885 7.23586 6.72898 7.11961 6.53367 6.88709C6.33836 6.65458 6.2407 6.3244 6.2407 5.89658V2.77623H5.32459V2.11123H6.2407V0.892857H7.101Z"
                 fill="black"
                 id="path43" />
              <path
                 d="M12.1559 6.64528C11.8211 7.039 11.3297 7.23586 10.6817 7.23586C10.1454 7.23586 9.73617 7.08085 9.45405 6.77083C9.17504 6.45771 9.03398 5.99578 9.03088 5.38504V2.11123H9.89118V5.36179C9.89118 6.12444 10.2012 6.50577 10.8212 6.50577C11.4785 6.50577 11.9156 6.26085 12.1326 5.77102V2.11123H12.9929V7.14286H12.1745L12.1559 6.64528Z"
                 fill="black"
                 id="path45" />
              <path
                 d="M14.0951 4.58519C14.0951 3.81324 14.278 3.1932 14.6438 2.72507C15.0096 2.25384 15.4886 2.01823 16.0807 2.01823C16.6698 2.01823 17.1363 2.21974 17.4805 2.62277V0H18.3408V7.14286H17.5502L17.5084 6.60342C17.1642 7.02505 16.6853 7.23586 16.0714 7.23586C15.4886 7.23586 15.0127 6.99715 14.6438 6.51972C14.278 6.04229 14.0951 5.41915 14.0951 4.6503V4.58519ZM14.9554 4.68285C14.9554 5.25329 15.0732 5.69971 15.3088 6.02214C15.5444 6.34456 15.8699 6.50577 16.2853 6.50577C16.831 6.50577 17.2294 6.26085 17.4805 5.77102V3.45982C17.2232 2.98549 16.8279 2.74833 16.2946 2.74833C15.873 2.74833 15.5444 2.91109 15.3088 3.23661C15.0732 3.56213 14.9554 4.04421 14.9554 4.68285Z"
                 fill="black"
                 id="path47" />
              <path
                 d="M21.3263 5.88263L22.4981 2.11123H23.4189L21.396 7.91946C21.0829 8.75651 20.5853 9.17504 19.9033 9.17504L19.7405 9.16109L19.4196 9.10063V8.40309L19.6522 8.42169C19.9436 8.42169 20.1699 8.36278 20.3311 8.24498C20.4954 8.12717 20.6303 7.91171 20.7357 7.59859L20.9263 7.08705L19.1313 2.11123H20.0707L21.3263 5.88263Z"
                 fill="black"
                 id="path49" />
            </g>
            <g
               id="Pediatrican study"
               transform="translate(139.279 120.952)">
              <path
                 d="M0.803571 4.04297V6.42857H0V0.334821H2.24749C2.91434 0.334821 3.43611 0.505022 3.81278 0.845424C4.19224 1.18583 4.38198 1.63644 4.38198 2.19727C4.38198 2.78878 4.19643 3.24498 3.82533 3.56585C3.45703 3.88393 2.92829 4.04297 2.23912 4.04297H0.803571ZM0.803571 3.38588H2.24749C2.67718 3.38588 3.00642 3.28543 3.23521 3.08454C3.46401 2.88086 3.5784 2.58789 3.5784 2.20564C3.5784 1.84291 3.46401 1.55273 3.23521 1.3351C3.00642 1.11747 2.69252 1.00446 2.29353 0.996094H0.803571V3.38588Z"
                 fill="#ADB5BD"
                 id="path52" />
              <path
                 d="M7.02087 6.51228C6.40703 6.51228 5.90759 6.31138 5.52254 5.9096C5.1375 5.50502 4.94498 4.96512 4.94498 4.2899V4.1476C4.94498 3.69838 5.03008 3.29799 5.20028 2.94643C5.37327 2.59208 5.61323 2.31585 5.92015 2.11775C6.22985 1.91685 6.56468 1.81641 6.92461 1.81641C7.51334 1.81641 7.97093 2.01032 8.29738 2.39816C8.62383 2.78599 8.78705 3.34124 8.78705 4.06389V4.38616H5.71925C5.73041 4.83259 5.86016 5.19392 6.10848 5.47014C6.3596 5.74358 6.67768 5.8803 7.06272 5.8803C7.33616 5.8803 7.56775 5.8245 7.75748 5.71289C7.94721 5.60128 8.11322 5.4534 8.25552 5.26925L8.72846 5.63756C8.349 6.2207 7.7798 6.51228 7.02087 6.51228ZM6.92461 2.45257C6.61211 2.45257 6.34983 2.56696 6.13778 2.79576C5.92573 3.02176 5.79459 3.33984 5.74436 3.75H8.01278V3.69141C7.99046 3.29799 7.88443 2.99386 7.6947 2.77902C7.50497 2.56138 7.24827 2.45257 6.92461 2.45257Z"
                 fill="#ADB5BD"
                 id="path54" />
              <path
                 d="M9.41283 4.12667C9.41283 3.43192 9.57746 2.87388 9.9067 2.45257C10.2359 2.02846 10.667 1.81641 11.1999 1.81641C11.7301 1.81641 12.15 1.99777 12.4597 2.36049V0H13.234V6.42857H12.5225L12.4848 5.94308C12.1751 6.32254 11.744 6.51228 11.1916 6.51228C10.667 6.51228 10.2387 6.29743 9.9067 5.86775C9.57746 5.43806 9.41283 4.87723 9.41283 4.18527V4.12667ZM10.1871 4.21456C10.1871 4.72796 10.2931 5.12974 10.5052 5.41992C10.7172 5.7101 11.0102 5.85519 11.3841 5.85519C11.8752 5.85519 12.2337 5.63477 12.4597 5.19392V3.11384C12.2281 2.68694 11.8724 2.47349 11.3925 2.47349C11.013 2.47349 10.7172 2.61998 10.5052 2.91295C10.2931 3.20591 10.1871 3.63979 10.1871 4.21456Z"
                 fill="#ADB5BD"
                 id="path56" />
              <path
                 d="M15.1949 6.42857H14.4206V1.90011H15.1949V6.42857ZM14.3578 0.69894C14.3578 0.573382 14.3955 0.467355 14.4708 0.380859C14.5489 0.294364 14.6633 0.251116 14.814 0.251116C14.9647 0.251116 15.0791 0.294364 15.1572 0.380859C15.2353 0.467355 15.2744 0.573382 15.2744 0.69894C15.2744 0.824498 15.2353 0.929129 15.1572 1.01283C15.0791 1.09654 14.9647 1.13839 14.814 1.13839C14.6633 1.13839 14.5489 1.09654 14.4708 1.01283C14.3955 0.929129 14.3578 0.824498 14.3578 0.69894Z"
                 fill="#ADB5BD"
                 id="path58" />
              <path
                 d="M19.1479 6.42857C19.1033 6.33929 19.067 6.18025 19.0391 5.95145C18.6792 6.32533 18.2495 6.51228 17.7501 6.51228C17.3036 6.51228 16.9367 6.38672 16.6493 6.1356C16.3647 5.8817 16.2224 5.56083 16.2224 5.17299C16.2224 4.70145 16.401 4.33594 16.7581 4.07645C17.1181 3.81417 17.6231 3.68304 18.2732 3.68304H19.0266V3.32729C19.0266 3.05664 18.9456 2.8418 18.7838 2.68276C18.622 2.52093 18.3834 2.44001 18.0681 2.44001C17.7919 2.44001 17.5603 2.50977 17.3734 2.64927C17.1864 2.78878 17.093 2.95759 17.093 3.15569H16.3145C16.3145 2.92969 16.394 2.71205 16.5531 2.50279C16.7149 2.29074 16.9325 2.12333 17.206 2.00056C17.4822 1.87779 17.7849 1.81641 18.1142 1.81641C18.6359 1.81641 19.0447 1.94754 19.3405 2.20982C19.6362 2.46931 19.7897 2.82785 19.8008 3.28543V5.3697C19.8008 5.78543 19.8538 6.11607 19.9599 6.36161V6.42857H19.1479ZM17.8631 5.83845C18.1058 5.83845 18.336 5.77567 18.5536 5.65011C18.7713 5.52455 18.9289 5.36133 19.0266 5.16043V4.23131H18.4197C17.471 4.23131 16.9967 4.50893 16.9967 5.06417C16.9967 5.30692 17.0776 5.49665 17.2395 5.63337C17.4013 5.77009 17.6092 5.83845 17.8631 5.83845Z"
                 fill="#ADB5BD"
                 id="path60" />
              <path
                 d="M21.9794 0.803571V1.90011H22.8248V2.4986H21.9794V5.30692C21.9794 5.48828 22.017 5.625 22.0924 5.71708C22.1677 5.80636 22.296 5.851 22.4774 5.851C22.5667 5.851 22.6895 5.83426 22.8457 5.80078V6.42857C22.642 6.48437 22.4439 6.51228 22.2514 6.51228C21.9054 6.51228 21.6445 6.40764 21.4688 6.19838C21.293 5.98912 21.2051 5.69196 21.2051 5.30692V2.4986H20.3806V1.90011H21.2051V0.803571H21.9794Z"
                 fill="#ADB5BD"
                 id="path62" />
              <path
                 d="M25.8362 2.59487C25.719 2.57533 25.592 2.56557 25.4553 2.56557C24.9475 2.56557 24.6029 2.78181 24.4215 3.21429V6.42857H23.6473V1.90011H24.4006L24.4132 2.42327C24.6671 2.01869 25.027 1.81641 25.493 1.81641C25.6436 1.81641 25.758 1.83594 25.8362 1.875V2.59487Z"
                 fill="#ADB5BD"
                 id="path64" />
              <path
                 d="M27.3074 6.42857H26.5331V1.90011H27.3074V6.42857ZM26.4703 0.69894C26.4703 0.573382 26.508 0.467355 26.5833 0.380859C26.6614 0.294364 26.7758 0.251116 26.9265 0.251116C27.0772 0.251116 27.1916 0.294364 27.2697 0.380859C27.3478 0.467355 27.3869 0.573382 27.3869 0.69894C27.3869 0.824498 27.3478 0.929129 27.2697 1.01283C27.1916 1.09654 27.0772 1.13839 26.9265 1.13839C26.7758 1.13839 26.6614 1.09654 26.5833 1.01283C26.508 0.929129 26.4703 0.824498 26.4703 0.69894Z"
                 fill="#ADB5BD"
                 id="path66" />
              <path
                 d="M30.2811 5.8803C30.5573 5.8803 30.7987 5.7966 31.0051 5.62918C31.2116 5.46177 31.326 5.25251 31.3483 5.00139H32.0807C32.0668 5.26088 31.9775 5.50781 31.8129 5.74219C31.6483 5.97656 31.4278 6.1635 31.1516 6.30301C30.8782 6.44252 30.588 6.51228 30.2811 6.51228C29.6645 6.51228 29.1734 6.3072 28.8079 5.89704C28.4451 5.4841 28.2638 4.92048 28.2638 4.20619V4.07645C28.2638 3.6356 28.3447 3.24358 28.5065 2.90039C28.6684 2.5572 28.8999 2.29074 29.2013 2.101C29.5054 1.91127 29.864 1.81641 30.2769 1.81641C30.7847 1.81641 31.206 1.96847 31.5408 2.2726C31.8785 2.57673 32.0584 2.97154 32.0807 3.45703H31.3483C31.326 3.16406 31.2144 2.92411 31.0135 2.73716C30.8154 2.54743 30.5699 2.45257 30.2769 2.45257C29.8835 2.45257 29.578 2.59487 29.3603 2.87946C29.1455 3.16127 29.0381 3.57003 29.0381 4.10575V4.25223C29.0381 4.774 29.1455 5.17578 29.3603 5.45759C29.5752 5.7394 29.8821 5.8803 30.2811 5.8803Z"
                 fill="#ADB5BD"
                 id="path68" />
              <path
                 d="M35.6613 6.42857C35.6167 6.33929 35.5804 6.18025 35.5525 5.95145C35.1926 6.32533 34.7629 6.51228 34.2634 6.51228C33.817 6.51228 33.4501 6.38672 33.1627 6.1356C32.8781 5.8817 32.7358 5.56083 32.7358 5.17299C32.7358 4.70145 32.9144 4.33594 33.2715 4.07645C33.6315 3.81417 34.1365 3.68304 34.7866 3.68304H35.54V3.32729C35.54 3.05664 35.459 2.8418 35.2972 2.68276C35.1354 2.52093 34.8968 2.44001 34.5815 2.44001C34.3053 2.44001 34.0737 2.50977 33.8868 2.64927C33.6998 2.78878 33.6064 2.95759 33.6064 3.15569H32.8279C32.8279 2.92969 32.9074 2.71205 33.0665 2.50279C33.2283 2.29074 33.4459 2.12333 33.7194 2.00056C33.9956 1.87779 34.2983 1.81641 34.6276 1.81641C35.1493 1.81641 35.5581 1.94754 35.8538 2.20982C36.1496 2.46931 36.3031 2.82785 36.3142 3.28543V5.3697C36.3142 5.78543 36.3672 6.11607 36.4733 6.36161V6.42857H35.6613ZM34.3764 5.83845C34.6192 5.83845 34.8494 5.77567 35.067 5.65011C35.2847 5.52455 35.4423 5.36133 35.54 5.16043V4.23131H34.9331C33.9844 4.23131 33.5101 4.50893 33.5101 5.06417C33.5101 5.30692 33.591 5.49665 33.7528 5.63337C33.9147 5.77009 34.1225 5.83845 34.3764 5.83845Z"
                 fill="#ADB5BD"
                 id="path70" />
              <path
                 d="M38.1747 1.90011L38.1998 2.46931C38.5458 2.03404 38.9978 1.81641 39.5558 1.81641C40.5128 1.81641 40.9955 2.35631 41.0039 3.4361V6.42857H40.2296V3.43192C40.2268 3.10547 40.1515 2.86412 40.0036 2.70787C39.8585 2.55162 39.6311 2.47349 39.3214 2.47349C39.0703 2.47349 38.8499 2.54046 38.6602 2.67439C38.4704 2.80831 38.3225 2.9841 38.2165 3.20173V6.42857H37.4422V1.90011H38.1747Z"
                 fill="#ADB5BD"
                 id="path72" />
              <path
                 d="M46.763 5.2274C46.763 5.01814 46.6835 4.85631 46.5244 4.74191C46.3682 4.62472 46.0934 4.52427 45.6999 4.44057C45.3093 4.35686 44.9982 4.25642 44.7666 4.13923C44.5378 4.02204 44.3676 3.88253 44.256 3.7207C44.1472 3.55887 44.0928 3.36635 44.0928 3.14314C44.0928 2.77204 44.2491 2.45815 44.5616 2.20145C44.8768 1.94475 45.2786 1.81641 45.7669 1.81641C46.2803 1.81641 46.696 1.94894 47.0141 2.21401C47.335 2.47907 47.4954 2.81808 47.4954 3.23103H46.717C46.717 3.01897 46.6263 2.83622 46.4449 2.68276C46.2663 2.5293 46.0403 2.45257 45.7669 2.45257C45.4851 2.45257 45.2647 2.51395 45.1056 2.63672C44.9466 2.75949 44.8671 2.91992 44.8671 3.11802C44.8671 3.30497 44.941 3.44587 45.0889 3.54074C45.2368 3.6356 45.5032 3.72628 45.8883 3.81278C46.2761 3.89927 46.59 4.00251 46.83 4.12249C47.0699 4.24247 47.2471 4.38756 47.3615 4.55776C47.4787 4.72517 47.5373 4.93025 47.5373 5.17299C47.5373 5.57757 47.3754 5.90262 47.0518 6.14816C46.7281 6.3909 46.3082 6.51228 45.792 6.51228C45.4293 6.51228 45.1084 6.4481 44.8294 6.31975C44.5504 6.19141 44.3314 6.01283 44.1723 5.78404C44.0161 5.55245 43.9379 5.30273 43.9379 5.03488H44.7122C44.7262 5.29436 44.8294 5.50084 45.0219 5.6543C45.2172 5.80497 45.4739 5.8803 45.792 5.8803C46.085 5.8803 46.3194 5.82171 46.4951 5.70452C46.6737 5.58454 46.763 5.4255 46.763 5.2274Z"
                 fill="#ADB5BD"
                 id="path74" />
              <path
                 d="M49.5107 0.803571V1.90011H50.3561V2.4986H49.5107V5.30692C49.5107 5.48828 49.5484 5.625 49.6237 5.71708C49.6991 5.80636 49.8274 5.851 50.0088 5.851C50.098 5.851 50.2208 5.83426 50.3771 5.80078V6.42857C50.1734 6.48437 49.9753 6.51228 49.7828 6.51228C49.4368 6.51228 49.1759 6.40764 49.0001 6.19838C48.8243 5.98912 48.7364 5.69196 48.7364 5.30692V2.4986H47.9119V1.90011H48.7364V0.803571H49.5107Z"
                 fill="#ADB5BD"
                 id="path76" />
              <path
                 d="M53.9744 5.98075C53.673 6.3351 53.2308 6.51228 52.6477 6.51228C52.165 6.51228 51.7966 6.37277 51.5427 6.09375C51.2916 5.81194 51.1647 5.3962 51.1619 4.84654V1.90011H51.9362V4.82561C51.9362 5.512 52.2152 5.85519 52.7732 5.85519C53.3647 5.85519 53.7581 5.63477 53.9535 5.19392V1.90011H54.7277V6.42857H53.9911L53.9744 5.98075Z"
                 fill="#ADB5BD"
                 id="path78" />
              <path
                 d="M55.6339 4.12667C55.6339 3.43192 55.7985 2.87388 56.1278 2.45257C56.457 2.02846 56.8881 1.81641 57.421 1.81641C57.9512 1.81641 58.3711 1.99777 58.6808 2.36049V0H59.4551V6.42857H58.7436L58.7059 5.94308C58.3962 6.32254 57.9651 6.51228 57.4127 6.51228C56.8881 6.51228 56.4598 6.29743 56.1278 5.86775C55.7985 5.43806 55.6339 4.87723 55.6339 4.18527V4.12667ZM56.4082 4.21456C56.4082 4.72796 56.5142 5.12974 56.7263 5.41992C56.9383 5.7101 57.2313 5.85519 57.6052 5.85519C58.0963 5.85519 58.4548 5.63477 58.6808 5.19392V3.11384C58.4492 2.68694 58.0935 2.47349 57.6136 2.47349C57.2341 2.47349 56.9383 2.61998 56.7263 2.91295C56.5142 3.20591 56.4082 3.63979 56.4082 4.21456Z"
                 fill="#ADB5BD"
                 id="path80" />
              <path
                 d="M62.0563 5.29436L63.111 1.90011H63.9397L62.1191 7.12751C61.8373 7.88086 61.3895 8.25753 60.7756 8.25753L60.6291 8.24498L60.3403 8.19057V7.56278L60.5496 7.57952C60.8119 7.57952 61.0156 7.52651 61.1607 7.42048C61.3085 7.31445 61.4299 7.12054 61.5248 6.83873L61.6964 6.37835L60.0809 1.90011H60.9263L62.0563 5.29436Z"
                 fill="#ADB5BD"
                 id="path82" />
            </g>
          </g>
          <g
             id="email">
            <rect
               id="dark_2"
               width="220"
               height="28.5714"
               transform="translate(10 82.619)"
               fill="#F1F1F1" />
            <rect
               id="cover_3"
               width="220"
               height="26.6667"
               transform="translate(10 83.5714)"
               fill="white" />
            <g
               id="Doctor"
               transform="translate(37.4526 92.9911)">
              <path
                 d="M0 6.77083V0H1.91127C2.50031 0 3.02114 0.130208 3.47377 0.390625C3.9264 0.651042 4.27517 1.02152 4.52009 1.50205C4.76811 1.98258 4.89366 2.53441 4.89676 3.15755V3.59003C4.89676 4.22867 4.77276 4.78826 4.52474 5.26879C4.27982 5.74932 3.92795 6.11824 3.46912 6.37556C3.01339 6.63287 2.48171 6.76463 1.87407 6.77083H0ZM0.892857 0.734747V6.04074H1.83222C2.52046 6.04074 3.05525 5.82682 3.43657 5.399C3.82099 4.97117 4.01321 4.36198 4.01321 3.57143V3.17615C4.01321 2.4073 3.83185 1.81052 3.46912 1.38579C3.1095 0.957961 2.59797 0.740947 1.93452 0.734747H0.892857Z"
                 fill="black"
                 id="path88" />
              <path
                 d="M5.88728 4.20852C5.88728 3.71559 5.98338 3.27226 6.17559 2.87853C6.37091 2.48481 6.64062 2.18099 6.98475 1.96708C7.33197 1.75316 7.72724 1.64621 8.17057 1.64621C8.85572 1.64621 9.4091 1.88337 9.83073 2.3577C10.2555 2.83203 10.4678 3.46292 10.4678 4.25037V4.31083C10.4678 4.80066 10.3733 5.24089 10.1842 5.63151C9.99814 6.01904 9.72997 6.3213 9.37965 6.53832C9.03243 6.75533 8.6325 6.86384 8.17987 6.86384C7.49783 6.86384 6.94444 6.62667 6.51972 6.15234C6.09809 5.67801 5.88728 5.05022 5.88728 4.26897V4.20852ZM6.75223 4.31083C6.75223 4.86886 6.88089 5.31684 7.13821 5.65476C7.39862 5.99268 7.74585 6.16164 8.17987 6.16164C8.617 6.16164 8.96422 5.99113 9.22154 5.65011C9.47886 5.30599 9.60751 4.82546 9.60751 4.20852C9.60751 3.65668 9.47576 3.21026 9.21224 2.86923C8.95182 2.52511 8.6046 2.35305 8.17057 2.35305C7.74585 2.35305 7.40327 2.52201 7.14286 2.85993C6.88244 3.19785 6.75223 3.68149 6.75223 4.31083Z"
                 fill="black"
                 id="path90" />
              <path
                 d="M13.5649 6.16164C13.8718 6.16164 14.14 6.06864 14.3694 5.88263C14.5988 5.69661 14.7259 5.4641 14.7507 5.18508H15.5645C15.549 5.4734 15.4498 5.74777 15.2669 6.00818C15.084 6.2686 14.8391 6.47631 14.5322 6.63132C14.2284 6.78633 13.9059 6.86384 13.5649 6.86384C12.8798 6.86384 12.3341 6.63597 11.928 6.18025C11.525 5.72142 11.3235 5.09518 11.3235 4.30153V4.15737C11.3235 3.66753 11.4134 3.23196 11.5932 2.85063C11.773 2.46931 12.0303 2.17324 12.3651 1.96243C12.7031 1.75161 13.1014 1.64621 13.5603 1.64621C14.1245 1.64621 14.5926 1.81517 14.9647 2.15309C15.3398 2.49101 15.5397 2.92969 15.5645 3.46912H14.7507C14.7259 3.1436 14.6019 2.87698 14.3787 2.66927C14.1586 2.45846 13.8858 2.35305 13.5603 2.35305C13.1231 2.35305 12.7837 2.51116 12.5419 2.82738C12.3031 3.1405 12.1838 3.59468 12.1838 4.18992V4.35268C12.1838 4.93242 12.3031 5.37884 12.5419 5.69196C12.7806 6.00508 13.1216 6.16164 13.5649 6.16164Z"
                 fill="black"
                 id="path92" />
              <path
                 d="M17.699 0.520833V1.73921H18.6384V2.4042H17.699V5.52455C17.699 5.72607 17.7409 5.87798 17.8246 5.98028C17.9083 6.07949 18.0509 6.12909 18.2524 6.12909C18.3516 6.12909 18.488 6.11049 18.6616 6.07329V6.77083C18.4353 6.83284 18.2152 6.86384 18.0013 6.86384C17.6169 6.86384 17.327 6.74758 17.1317 6.51507C16.9364 6.28255 16.8387 5.95238 16.8387 5.52455V2.4042H15.9226V1.73921H16.8387V0.520833H17.699Z"
                 fill="black"
                 id="path94" />
              <path
                 d="M19.3266 4.20852C19.3266 3.71559 19.4227 3.27226 19.615 2.87853C19.8103 2.48481 20.08 2.18099 20.4241 1.96708C20.7713 1.75316 21.1666 1.64621 21.6099 1.64621C22.2951 1.64621 22.8485 1.88337 23.2701 2.3577C23.6948 2.83203 23.9072 3.46292 23.9072 4.25037V4.31083C23.9072 4.80066 23.8126 5.24089 23.6235 5.63151C23.4375 6.01904 23.1693 6.3213 22.819 6.53832C22.4718 6.75533 22.0719 6.86384 21.6192 6.86384C20.9372 6.86384 20.3838 6.62667 19.9591 6.15234C19.5374 5.67801 19.3266 5.05022 19.3266 4.26897V4.20852ZM20.1916 4.31083C20.1916 4.86886 20.3202 5.31684 20.5776 5.65476C20.838 5.99268 21.1852 6.16164 21.6192 6.16164C22.0564 6.16164 22.4036 5.99113 22.6609 5.65011C22.9182 5.30599 23.0469 4.82546 23.0469 4.20852C23.0469 3.65668 22.9151 3.21026 22.6516 2.86923C22.3912 2.52511 22.044 2.35305 21.6099 2.35305C21.1852 2.35305 20.8426 2.52201 20.5822 2.85993C20.3218 3.19785 20.1916 3.68149 20.1916 4.31083Z"
                 fill="black"
                 id="path96" />
              <path
                 d="M27.4182 2.51116C27.2879 2.48946 27.1469 2.47861 26.995 2.47861C26.4307 2.47861 26.0479 2.71887 25.8464 3.1994V6.77083H24.986V1.73921H25.8231L25.8371 2.3205C26.1192 1.87097 26.5191 1.64621 27.0368 1.64621C27.2042 1.64621 27.3313 1.66791 27.4182 1.71131V2.51116Z"
                 fill="black"
                 id="path98" />
            </g>
            <g
               id="John Smith"
               transform="translate(160.698 93.3333)">
              <path
                 d="M3.0385 0.334821H3.84626V4.64983C3.84626 5.23298 3.67048 5.68917 3.31892 6.01842C2.97014 6.34766 2.50419 6.51228 1.92104 6.51228C1.31557 6.51228 0.844029 6.35742 0.506417 6.04771C0.168806 5.738 0 5.30413 0 4.74609H0.803571C0.803571 5.09487 0.898437 5.36691 1.08817 5.56222C1.28069 5.75753 1.55831 5.85519 1.92104 5.85519C2.25307 5.85519 2.52093 5.75056 2.72461 5.5413C2.93108 5.33203 3.03571 5.03906 3.0385 4.66239V0.334821Z"
                 fill="#ADB5BD"
                 id="path101" />
              <path
                 d="M4.80268 4.12249C4.80268 3.67885 4.88917 3.27986 5.06216 2.9255C5.23795 2.57115 5.48069 2.29771 5.7904 2.10519C6.1029 1.91267 6.45865 1.81641 6.85764 1.81641C7.47427 1.81641 7.97232 2.02986 8.35178 2.45675C8.73404 2.88365 8.92517 3.45145 8.92517 4.16016V4.21456C8.92517 4.65541 8.84007 5.05162 8.66987 5.40318C8.50245 5.75195 8.2611 6.024 7.94581 6.21931C7.63331 6.41462 7.27338 6.51228 6.86601 6.51228C6.25218 6.51228 5.75413 6.29883 5.37187 5.87193C4.99241 5.44503 4.80268 4.88002 4.80268 4.1769V4.12249ZM5.58114 4.21456C5.58114 4.7168 5.69693 5.11998 5.92851 5.42411C6.16289 5.72824 6.47539 5.8803 6.86601 5.8803C7.25943 5.8803 7.57193 5.72684 7.80351 5.41992C8.0351 5.11021 8.15089 4.67773 8.15089 4.12249C8.15089 3.62584 8.03231 3.22405 7.79514 2.91713C7.56077 2.60742 7.24827 2.45257 6.85764 2.45257C6.47539 2.45257 6.16708 2.60463 5.9327 2.90876C5.69833 3.21289 5.58114 3.64816 5.58114 4.21456Z"
                 fill="#ADB5BD"
                 id="path103" />
              <path
                 d="M10.5847 2.44838C10.9279 2.02706 11.3743 1.81641 11.924 1.81641C12.881 1.81641 13.3637 2.35631 13.3721 3.43611V6.42857H12.5978V3.43192C12.595 3.10547 12.5197 2.86412 12.3718 2.70787C12.2267 2.55162 11.9993 2.47349 11.6896 2.47349C11.4385 2.47349 11.2181 2.54046 11.0283 2.67439C10.8386 2.80831 10.6907 2.9841 10.5847 3.20173V6.42857H9.81043V0H10.5847V2.44838Z"
                 fill="#ADB5BD"
                 id="path105" />
              <path
                 d="M15.1781 1.90011L15.2032 2.46931C15.5492 2.03404 16.0012 1.81641 16.5593 1.81641C17.5163 1.81641 17.999 2.35631 18.0074 3.43611V6.42857H17.2331V3.43192C17.2303 3.10547 17.155 2.86412 17.0071 2.70787C16.862 2.55162 16.6346 2.47349 16.3249 2.47349C16.0738 2.47349 15.8533 2.54046 15.6636 2.67439C15.4739 2.80831 15.326 2.9841 15.22 3.20173V6.42857H14.4457V1.90011H15.1781Z"
                 fill="#ADB5BD"
                 id="path107" />
              <path
                 d="M23.0466 3.71233C22.3574 3.51423 21.8552 3.27148 21.5399 2.9841C21.2274 2.69392 21.0711 2.33677 21.0711 1.91267C21.0711 1.43276 21.2623 1.03655 21.6445 0.724051C22.0296 0.408761 22.529 0.251116 23.1429 0.251116C23.5614 0.251116 23.9339 0.332031 24.2603 0.493862C24.5896 0.655692 24.8435 0.878906 25.022 1.1635C25.2034 1.4481 25.2941 1.75921 25.2941 2.09682H24.4863C24.4863 1.72852 24.3691 1.43973 24.1348 1.23047C23.9004 1.01842 23.5698 0.912388 23.1429 0.912388C22.7466 0.912388 22.4369 1.00028 22.2137 1.17606C21.9933 1.34905 21.8831 1.5904 21.8831 1.90011C21.8831 2.14844 21.9877 2.3591 22.197 2.53209C22.409 2.70229 22.7676 2.85854 23.2726 3.00084C23.7804 3.14314 24.1766 3.30078 24.4612 3.47377C24.7486 3.64397 24.9607 3.84347 25.0974 4.07227C25.2369 4.30106 25.3066 4.57031 25.3066 4.88002C25.3066 5.37388 25.1141 5.77009 24.7291 6.06864C24.344 6.3644 23.8292 6.51228 23.1847 6.51228C22.7662 6.51228 22.3756 6.43276 22.0128 6.27372C21.6501 6.11189 21.3697 5.89146 21.1716 5.61244C20.9763 5.33343 20.8786 5.01674 20.8786 4.66239H21.6864C21.6864 5.03069 21.8217 5.32227 22.0924 5.53711C22.3658 5.74916 22.7299 5.85519 23.1847 5.85519C23.6088 5.85519 23.9339 5.76869 24.1599 5.5957C24.3859 5.42271 24.4989 5.18694 24.4989 4.88839C24.4989 4.58984 24.3943 4.35965 24.185 4.19782C23.9757 4.0332 23.5963 3.87137 23.0466 3.71233Z"
                 fill="#ADB5BD"
                 id="path109" />
              <path
                 d="M26.8615 1.90011L26.8825 2.40234C27.2145 2.01172 27.6623 1.81641 28.2259 1.81641C28.8593 1.81641 29.2904 2.05915 29.5192 2.54464C29.6699 2.32701 29.8652 2.15123 30.1051 2.0173C30.3479 1.88337 30.6339 1.81641 30.9631 1.81641C31.9564 1.81641 32.4614 2.34236 32.4782 3.39425V6.42857H31.7039V3.44029C31.7039 3.11663 31.63 2.87528 31.4821 2.71624C31.3342 2.55441 31.0859 2.47349 30.7371 2.47349C30.4497 2.47349 30.2112 2.55999 30.0214 2.73298C29.8317 2.90318 29.7215 3.13337 29.6908 3.42355V6.42857H28.9123V3.46122C28.9123 2.80273 28.5901 2.47349 27.9455 2.47349C27.4377 2.47349 27.0903 2.68973 26.9034 3.12221V6.42857H26.1291V1.90011H26.8615Z"
                 fill="#ADB5BD"
                 id="path111" />
              <path
                 d="M34.4056 6.42857H33.6313V1.90011H34.4056V6.42857ZM33.5685 0.69894C33.5685 0.573382 33.6062 0.467355 33.6815 0.380859C33.7597 0.294364 33.8741 0.251116 34.0247 0.251116C34.1754 0.251116 34.2898 0.294364 34.3679 0.380859C34.446 0.467355 34.4851 0.573382 34.4851 0.69894C34.4851 0.824498 34.446 0.92913 34.3679 1.01283C34.2898 1.09654 34.1754 1.13839 34.0247 1.13839C33.8741 1.13839 33.7597 1.09654 33.6815 1.01283C33.6062 0.92913 33.5685 0.824498 33.5685 0.69894Z"
                 fill="#ADB5BD"
                 id="path113" />
              <path
                 d="M36.6134 0.803571V1.90011H37.4588V2.49861H36.6134V5.30692C36.6134 5.48828 36.6511 5.625 36.7264 5.71708C36.8017 5.80636 36.9301 5.85101 37.1114 5.85101C37.2007 5.85101 37.3235 5.83426 37.4797 5.80078V6.42857C37.2761 6.48438 37.078 6.51228 36.8854 6.51228C36.5395 6.51228 36.2786 6.40765 36.1028 6.19838C35.927 5.98912 35.8391 5.69196 35.8391 5.30692V2.49861H35.0146V1.90011H35.8391V0.803571H36.6134Z"
                 fill="#ADB5BD"
                 id="path115" />
              <path
                 d="M39.0556 2.44838C39.3988 2.02706 39.8452 1.81641 40.3949 1.81641C41.3519 1.81641 41.8346 2.35631 41.843 3.43611V6.42857H41.0687V3.43192C41.0659 3.10547 40.9906 2.86412 40.8427 2.70787C40.6976 2.55162 40.4702 2.47349 40.1605 2.47349C39.9094 2.47349 39.6889 2.54046 39.4992 2.67439C39.3095 2.80831 39.1616 2.9841 39.0556 3.20173V6.42857H38.2813V0H39.0556V2.44838Z"
                 fill="#ADB5BD"
                 id="path117" />
            </g>
          </g>
          <g
             id="cancel">
            <g
               id="Invite"
               transform="translate(109.806 65.2)">
              <path
                 d="M1.17188 6.94289H0V0.172061H1.17188V6.94289Z"
                 fill="black"
                 id="path121" />
              <path
                 d="M3.55748 1.91127L3.59003 2.49256C3.96205 2.04303 4.45034 1.81827 5.05487 1.81827C6.10274 1.81827 6.63597 2.41815 6.65458 3.61793V6.94289H5.52455V3.68304C5.52455 3.36372 5.4548 3.1281 5.31529 2.97619C5.17888 2.82118 4.95412 2.74368 4.641 2.74368C4.18527 2.74368 3.8458 2.94984 3.62258 3.36217V6.94289H2.49256V1.91127H3.55748Z"
                 fill="black"
                 id="path123" />
              <path
                 d="M9.58426 5.5106L10.6492 1.91127H11.8164L10.0725 6.94289H9.09133L7.33352 1.91127H8.50539L9.58426 5.5106Z"
                 fill="black"
                 id="path125" />
              <path
                 d="M13.7277 6.94289H12.5977V1.91127H13.7277V6.94289ZM12.5279 0.604539C12.5279 0.430928 12.5822 0.286768 12.6907 0.172061C12.8023 0.0573537 12.9604 0 13.165 0C13.3696 0 13.5277 0.0573537 13.6393 0.172061C13.7509 0.286768 13.8067 0.430928 13.8067 0.604539C13.8067 0.77505 13.7509 0.917659 13.6393 1.03237C13.5277 1.14397 13.3696 1.19978 13.165 1.19978C12.9604 1.19978 12.8023 1.14397 12.6907 1.03237C12.5822 0.917659 12.5279 0.77505 12.5279 0.604539Z"
                 fill="black"
                 id="path127" />
              <path
                 d="M16.3783 0.688244V1.91127H17.2666V2.74833H16.3783V5.55711C16.3783 5.74932 16.4156 5.88883 16.49 5.97563C16.5675 6.05934 16.7039 6.10119 16.8992 6.10119C17.0294 6.10119 17.1611 6.08569 17.2945 6.05469V6.92894C17.0371 7.00025 16.7891 7.0359 16.5504 7.0359C15.6824 7.0359 15.2483 6.55692 15.2483 5.59896V2.74833H14.4206V1.91127H15.2483V0.688244H16.3783Z"
                 fill="black"
                 id="path129" />
              <path
                 d="M20.3497 7.0359C19.6336 7.0359 19.0523 6.81114 18.6058 6.36161C18.1625 5.90898 17.9408 5.30754 17.9408 4.55729V4.41778C17.9408 3.91555 18.037 3.46757 18.2292 3.07385C18.4245 2.67702 18.6973 2.36855 19.0476 2.14844C19.3979 1.92832 19.7886 1.81827 20.2195 1.81827C20.9046 1.81827 21.4332 2.03683 21.8052 2.47396C22.1804 2.91109 22.3679 3.52958 22.3679 4.32943V4.78516H19.0802C19.1143 5.20058 19.2522 5.5292 19.494 5.77102C19.739 6.01284 20.0459 6.13374 20.4148 6.13374C20.9325 6.13374 21.3542 5.92448 21.6797 5.50595L22.2889 6.08724C22.0874 6.38796 21.8176 6.62202 21.4797 6.78943C21.1449 6.95374 20.7682 7.0359 20.3497 7.0359ZM20.2148 2.72507C19.9048 2.72507 19.6537 2.83358 19.4615 3.0506C19.2724 3.26761 19.1515 3.56988 19.0988 3.9574H21.2519V3.8737C21.2271 3.49547 21.1263 3.21026 20.9496 3.01804C20.7729 2.82273 20.528 2.72507 20.2148 2.72507Z"
                 fill="black"
                 id="path131" />
            </g>
          </g>
        </g>
      </g>
      <circle
         id="stroke"
         opacity="0.2"
         cx="110"
         cy="110"
         r="115"
         transform="translate(10 10)"
         stroke="url(#paint1_linear)"
         stroke-width="10" />
    </g>
    <defs
       id="defs150">
      <linearGradient
         id="paint0_linear"
         x2="1"
         gradientUnits="userSpaceOnUse"
         gradientTransform="translate(110 -110) scale(311.127) rotate(45)">
        <stop
           stop-color="#FFD7E9"
           id="stop140" />
        <stop
           offset="1"
           stop-color="#EFB7D1"
           id="stop142" />
      </linearGradient>
      <linearGradient
         id="paint1_linear"
         x2="1"
         gradientUnits="userSpaceOnUse"
         gradientTransform="translate(110 -110) scale(311.127) rotate(45)">
        <stop
           stop-color="#FFEDF5"
           id="stop145" />
        <stop
           offset="1"
           stop-color="#FF5FA8"
           id="stop147" />
      </linearGradient>
    </defs>
  </g>
</svg>
